<svg xmlns="http://www.w3.org/2000/svg" xmlns:xlink="http://www.w3.org/1999/xlink" width="508" height="99" viewBox="0 0 508 99">
  <defs>
    <clipPath id="clip-Web_1920_2">
      <rect width="508" height="99"/>
    </clipPath>
  </defs>
  <g id="Web_1920_2" data-name="Web 1920 – 2" clip-path="url(#clip-Web_1920_2)">
    <rect width="508" height="99" fill="#fff"/>
    <g id="Group_1226" data-name="Group 1226" transform="translate(-149.683 -58.599)">
      <g id="Group_1055" data-name="Group 1055">
        <g id="Group_1053" data-name="Group 1053">
          <g id="Logo_lockup" data-name="Logo lockup" transform="translate(-49.841 -709.583)">
            <g id="Group_1054" data-name="Group 1054">
              <g id="logo" transform="translate(200.524 775.583)">
                <path id="Fill-1" d="M76.289,12.469c.152,3.267-2.437,5.286-4.4,7.2L51.8,36.583c-1.806,1.681-4.415,3.068-5.431,5.59a49.3,49.3,0,0,0-2.4,10.705c-.325,2.65-2.8,4.957-5.106,5.93-1.791.627-3.942.331-5.9.483l-7,.047a2.191,2.191,0,0,0-1.411.934l-.259.695c-.751.111-.5-.544-.61-1a5.157,5.157,0,0,1,1.5-4.059,3.923,3.923,0,0,1,2.308-.9L37.7,54.853a2.549,2.549,0,0,0,1.415-.667l.413-.79c.816-5.089,1.286-10.359,3.809-14.683,2.349-2.742,5.31-4.631,7.927-7.044,6.06-5.146,12.341-10.377,18.327-15.6A11.775,11.775,0,0,0,73.5,9.82l.221-.679a3.875,3.875,0,0,1,2.565,3.325" transform="translate(-17.661 -11.141)" fill="#185394" stroke="#185292" stroke-width="1" fill-rule="evenodd"/>
                <path id="Fill-3" d="M76.172,16.628c.3,3.173-2.189,4.678-4.172,6.641L63.8,30.31,49.232,42.685c-2.066,2.33-2.173,5.631-2.7,8.615.087.972,1.067,1.37.876,2.389l-2.026,3.653c.111,1.453,1.889.611,2.462,1.522.019.523-.331,1.175.083,1.611.284.5,1.455-.171.842.631-.168.133-.1.456-.055.63.243.319.7.348.738.824a2.36,2.36,0,0,0,.145,1.985c2.528,2.758,6.88-.658,9.516,1.933a2.648,2.648,0,0,1,.47,2.5c-1.409,4.127-9.737,4.431-6.888,10.284a3.364,3.364,0,0,0,2.712,1.678,5.069,5.069,0,0,0,2.44-.482c.243,0,.267.237.363.369v.157c-2.409,1.715-5.514,4.236-8.714,2.408a4.989,4.989,0,0,1-2.023-5.131c.978-3.239,4.7-4.066,6.567-6.783a2.732,2.732,0,0,0-.107-2.613A4.251,4.251,0,0,0,50.756,67.3c-2-.044-5.069,1.22-5.958-1.13-.26-.9.651-2.477-.782-2.684-.2-.251-.651-.475-.415-.882.068-.236.476-.267.267-.572-.284-.081-.667-.016-.892-.26-.812-.888,1.427-1.849-.089-2.457-.77-.105-1.81.464-2.306-.412-.241-.822.373-1.41.678-2.081.515-1.152,2.018-1.914,1.63-3.4l-.744-1.26A47.006,47.006,0,0,1,43.6,43.554c1-3.088,3.98-4.81,6.262-6.936L62.087,26.286l8.651-7.611A6.824,6.824,0,0,0,73.5,13.607c.459-.155.766.4,1.164.57a4.912,4.912,0,0,1,1.511,2.452" transform="translate(-11.656 -7.461)" fill="#185394" stroke="#185394" stroke-width="1" fill-rule="evenodd"/>
                <path id="Fill-5" d="M70.455,28.442c-1.609,2.568-4.3,4.5-6.695,6.536l-9.4,7.87a5.988,5.988,0,0,0-1.394,6.362c.088,1.067-.738,1.734-1,2.678.027.277.083.632.367.714.392.155.982-.045,1.2.475.057.551-.193,1.14.412,1.354.24.133.6-.287.626.151a1.147,1.147,0,0,0-.216.782c.308.548.978.247,1.255.7.119.635.119,1.453.835,1.718,2.437.407,4.284-1.243,6.481-1.718,3.481-1.09,6.847.273,9.953,1.2a16.847,16.847,0,0,0,4.809,0l.109.1c-1.978,2.414-4.415,4.762-7.87,4.526-3.631-.133-5.973-3.521-9.87-2.868-2.636.524-5.265,2.107-8.091,1.043a2.544,2.544,0,0,1-.743-2.66c-.133-.627-1.649-.78-.708-1.6-.289-.191-.784,0-.934-.437-.22-.5.391-1.238-.267-1.566-.586-.087-1.341.24-1.779-.256a1.266,1.266,0,0,1-.108-1.088c.417-1,1.546-1.789,1.3-2.977-.756-.716-.506-1.921-.412-2.918.432-2.3.608-4.739,2.753-6.269l11.55-9.768c2.434-2.322,5.442-3.827,7.2-6.888a5.059,5.059,0,0,1,.626,4.8" transform="translate(-7.123 -4.927)" fill="#164b86" stroke="#164b87" stroke-width="1" fill-rule="evenodd"/>
                <path id="Fill-7" d="M45.142,54.057a59.919,59.919,0,0,1,9.648,4.7,2.916,2.916,0,0,1,1.243,2.558c-1,4.154-6.785,4.6-5.936,9.493a4.642,4.642,0,0,0,3.236,3.913,5.286,5.286,0,0,0,2.7,0c.133.32.7.624.061.84-2.358,1.517-5.406,3.219-8.3,1.765a5.309,5.309,0,0,1-2.612-3.649c-.586-4.442,3.547-5.84,5.639-8.81a2.892,2.892,0,0,0,.315-1.981,4.318,4.318,0,0,0-1.782-1.83A104.139,104.139,0,0,0,24.41,51.495c-1.441-.133-3.677-.979-4.635.7v.079c-.778.165-.479-.775-.479-1.188a4.047,4.047,0,0,1,2.4-3.137c2.258-.667,4.652.133,6.845.526a147.063,147.063,0,0,1,16.6,5.589" transform="translate(-19.24 4.692)" fill="#185394" stroke="#185292" stroke-width="1" fill-rule="evenodd"/>
              </g>
              <g id="Logo_lockup-2" data-name="Logo lockup">
                <path id="U.S._Department_of_Health_and_Human_Services" data-name="U.S. Department of  Health and Human Services" d="M7.74.16A6.409,6.409,0,0,1,3.1-1.34a6.312,6.312,0,0,1-1.54-4.7v-7.14L.32-13.46v-1.4H6.78v1.4l-1.68.3v7.4q0,4.52,3.14,4.52a2.492,2.492,0,0,0,2.29-1.19,6.285,6.285,0,0,0,.73-3.29v-7.46l-1.72-.28v-1.4h5.2v1.4l-1.32.28V-5.9a6.11,6.11,0,0,1-1.53,4.59A5.739,5.739,0,0,1,7.74.16Zm10.08,0a1.682,1.682,0,0,1-1.19-.48,1.557,1.557,0,0,1-.51-1.18,1.665,1.665,0,0,1,.58-1.31,2.1,2.1,0,0,1,1.44-.51,1.667,1.667,0,0,1,1.26.5,1.647,1.647,0,0,1,.48,1.18,1.647,1.647,0,0,1-.56,1.32A2.227,2.227,0,0,1,17.82.16Zm9.32.06A10.7,10.7,0,0,1,25.11.04q-.93-.18-1.95-.48a4.915,4.915,0,0,0-.96-.22l.18-3.74h1.86l.5,2.56a1.832,1.832,0,0,0,.81.46,4.41,4.41,0,0,0,1.41.2,2.691,2.691,0,0,0,1.83-.54A1.875,1.875,0,0,0,29.4-3.2a1.792,1.792,0,0,0-.39-1.15,3.914,3.914,0,0,0-1.08-.9,19.54,19.54,0,0,0-1.89-.95,8.818,8.818,0,0,1-2.67-1.83,4,4,0,0,1-1.09-2.93A3.748,3.748,0,0,1,22.86-13a4.069,4.069,0,0,1,1.76-1.48,6.842,6.842,0,0,1,2.94-.56,10.726,10.726,0,0,1,1.85.14q.79.14,1.69.38a3.371,3.371,0,0,0,.74.18l-.12,3.56H29.9l-.46-2.46a1.306,1.306,0,0,0-.63-.33,3.715,3.715,0,0,0-1.09-.15,2.322,2.322,0,0,0-1.65.52,1.762,1.762,0,0,0-.55,1.34,1.883,1.883,0,0,0,.46,1.26,4.12,4.12,0,0,0,1.11.91q.65.37,1.99,1.03a15.908,15.908,0,0,1,1.85,1.05,4.9,4.9,0,0,1,1.35,1.37,3.45,3.45,0,0,1,.56,1.96,4.541,4.541,0,0,1-.53,2.12A4.13,4.13,0,0,1,30.5-.46,7.162,7.162,0,0,1,27.14.22ZM36.22.16a1.682,1.682,0,0,1-1.19-.48,1.557,1.557,0,0,1-.51-1.18,1.665,1.665,0,0,1,.58-1.31,2.1,2.1,0,0,1,1.44-.51,1.667,1.667,0,0,1,1.26.5,1.647,1.647,0,0,1,.48,1.18,1.647,1.647,0,0,1-.56,1.32A2.227,2.227,0,0,1,36.22.16ZM46.48-13.18l-1.46-.28v-1.4h3.12q.66,0,1.78-.08.26-.02.79-.04t.95-.02a7.488,7.488,0,0,1,5.48,1.82,7.019,7.019,0,0,1,1.84,5.22,9.392,9.392,0,0,1-.9,4.18A6.911,6.911,0,0,1,55.5-.89,7.317,7.317,0,0,1,51.54.16q-.62,0-1.86-.08Q48.52,0,48.18,0H44.94V-1.32l1.54-.22Zm3.38,11.7a4.64,4.64,0,0,0,1.6.18,3.2,3.2,0,0,0,2.79-1.53,8.581,8.581,0,0,0,.99-4.63,8.834,8.834,0,0,0-.97-4.51,3.292,3.292,0,0,0-3.05-1.63,5.553,5.553,0,0,0-.86.06l-.5.08ZM65.52.22a5.041,5.041,0,0,1-4.06-1.55,6.314,6.314,0,0,1-1.32-4.23,6.776,6.776,0,0,1,.68-3.14,4.72,4.72,0,0,1,1.91-2.01,5.811,5.811,0,0,1,2.89-.69,4.471,4.471,0,0,1,3.21,1.06,4.075,4.075,0,0,1,1.15,3,9.492,9.492,0,0,1-.18,2.06H63.54a4.425,4.425,0,0,0,.83,2.59,2.5,2.5,0,0,0,2.05.89,5.253,5.253,0,0,0,1.55-.25,5.412,5.412,0,0,0,1.31-.57l.56,1.22A4.935,4.935,0,0,1,68.07-.3,6.583,6.583,0,0,1,65.52.22ZM66.8-6.6l.02-.84a4.3,4.3,0,0,0-.34-1.92,1.2,1.2,0,0,0-1.16-.66,1.454,1.454,0,0,0-1.3.73,5.7,5.7,0,0,0-.5,2.69Zm15.92.68a6.826,6.826,0,0,1-.69,3.06A5.414,5.414,0,0,1,79.99-.62a6.031,6.031,0,0,1-3.25.84,4.326,4.326,0,0,1-.69-.06,2.826,2.826,0,0,1-.57-.14l.06,1.62v1.7l1.72.26V4.84H71.12V3.6l1.22-.26V-9.02l-1.22-.36v-1.56l3.58-.44h.04l.54.42v1.08a3.862,3.862,0,0,1,1.29-1.07,3.737,3.737,0,0,1,1.81-.45,4.009,4.009,0,0,1,3.13,1.35A6.04,6.04,0,0,1,82.72-5.92ZM77.2-9.56a2.332,2.332,0,0,0-.98.21,1.689,1.689,0,0,0-.68.51v7.32a1.03,1.03,0,0,0,.49.3,2.361,2.361,0,0,0,.77.12,2.03,2.03,0,0,0,1.79-1.08,6.9,6.9,0,0,0,.67-3.5A5.953,5.953,0,0,0,78.7-8.6,1.687,1.687,0,0,0,77.2-9.56ZM83.96-3.2a2.936,2.936,0,0,1,1.79-2.7,10.3,10.3,0,0,1,4.71-.96v-.4A3.289,3.289,0,0,0,90.3-8.4a1.141,1.141,0,0,0-.58-.63,2.865,2.865,0,0,0-1.24-.21,6.116,6.116,0,0,0-1.75.23,12.834,12.834,0,0,0-1.61.61l-.68-1.44a6.371,6.371,0,0,1,1.04-.63,8.739,8.739,0,0,1,1.73-.64,8.136,8.136,0,0,1,2.11-.27,6.111,6.111,0,0,1,2.51.42,2.525,2.525,0,0,1,1.3,1.3,6.042,6.042,0,0,1,.39,2.4v5.94h1.04V-.06q-.46.1-1.28.2a11.837,11.837,0,0,1-1.4.1A1.617,1.617,0,0,1,90.87.02a1.165,1.165,0,0,1-.25-.88v-.46A4.712,4.712,0,0,1,89.28-.25a3.906,3.906,0,0,1-1.94.47,3.581,3.581,0,0,1-1.71-.41,3.053,3.053,0,0,1-1.22-1.18A3.564,3.564,0,0,1,83.96-3.2ZM88.9-1.62a1.883,1.883,0,0,0,.8-.21,2.974,2.974,0,0,0,.76-.51V-5.52a3.865,3.865,0,0,0-2.31.56,1.722,1.722,0,0,0-.75,1.44,2.187,2.187,0,0,0,.4,1.4A1.332,1.332,0,0,0,88.9-1.62Zm6.76.3,1.22-.18V-9.02L95.7-9.38v-1.56l3.32-.44h.06l.56.42v.48l-.06,1.66h.06a3.328,3.328,0,0,1,.64-1.07,4.657,4.657,0,0,1,1.27-1.06,3.252,3.252,0,0,1,1.67-.45,1.831,1.831,0,0,1,.8.14v3.48a2.791,2.791,0,0,0-.69-.38,2.722,2.722,0,0,0-.95-.14,4.163,4.163,0,0,0-1.3.19,3.5,3.5,0,0,0-.92.43V-1.5l2.2.2V0h-6.7ZM108.62.18a2.713,2.713,0,0,1-1.95-.61,2.526,2.526,0,0,1-.63-1.89V-9.44h-1.22V-10.6l.4-.16a6.447,6.447,0,0,0,.84-.34,2.7,2.7,0,0,0,.64-1,18.029,18.029,0,0,0,.66-2.02h1.86l.12,3h2.86v1.68h-2.82v5.3a13.247,13.247,0,0,0,.06,1.54.861.861,0,0,0,.23.57,1.093,1.093,0,0,0,.63.13,4.957,4.957,0,0,0,1.78-.32l.42,1.26a4.932,4.932,0,0,1-1.66.8A7.479,7.479,0,0,1,108.62.18Zm4.84-1.5,1.06-.18V-9.02l-1.18-.36v-1.56l3.64-.44.16.08.4.56v1a5.111,5.111,0,0,1,1.88-1.13,6.17,6.17,0,0,1,2.12-.47,3.691,3.691,0,0,1,1.75.36,2.28,2.28,0,0,1,1.01,1.12,5.485,5.485,0,0,1,1.71-1.06,5.492,5.492,0,0,1,2.09-.42,2.967,2.967,0,0,1,2.53,1.02,5.629,5.629,0,0,1,.77,3.34V-1.5l1.2.18V0h-5.42V-1.32l.9-.18V-6.9a4.268,4.268,0,0,0-.33-2,1.285,1.285,0,0,0-1.21-.56,3.164,3.164,0,0,0-1.92.78,10.717,10.717,0,0,1,.12,1.7V-1.5l1.12.18V0H120.4V-1.32l1-.18V-6.96a4.308,4.308,0,0,0-.31-1.96,1.231,1.231,0,0,0-1.17-.54,2.66,2.66,0,0,0-1.11.25,3.689,3.689,0,0,0-.95.61v7.1l1.08.18V0h-5.48ZM139.04.22a5.041,5.041,0,0,1-4.06-1.55,6.314,6.314,0,0,1-1.32-4.23,6.776,6.776,0,0,1,.68-3.14,4.72,4.72,0,0,1,1.91-2.01,5.811,5.811,0,0,1,2.89-.69,4.471,4.471,0,0,1,3.21,1.06,4.075,4.075,0,0,1,1.15,3,9.492,9.492,0,0,1-.18,2.06h-6.26a4.425,4.425,0,0,0,.83,2.59,2.5,2.5,0,0,0,2.05.89,5.253,5.253,0,0,0,1.55-.25,5.412,5.412,0,0,0,1.31-.57l.56,1.22a4.935,4.935,0,0,1-1.77,1.1A6.583,6.583,0,0,1,139.04.22Zm1.28-6.82.02-.84A4.3,4.3,0,0,0,140-9.36a1.2,1.2,0,0,0-1.16-.66,1.454,1.454,0,0,0-1.3.73,5.7,5.7,0,0,0-.5,2.69Zm5.76-2.42-1.18-.36v-1.56l3.64-.44h.06l.52.42v.74l-.02.46a5.981,5.981,0,0,1,1.78-1.12,5.709,5.709,0,0,1,2.26-.46,3.558,3.558,0,0,1,1.89.43,2.436,2.436,0,0,1,1,1.37,8.456,8.456,0,0,1,.31,2.56V-1.5l1.12.16V0h-5.44V-1.32L153-1.5V-6.96a6.593,6.593,0,0,0-.13-1.49,1.311,1.311,0,0,0-.45-.77,1.513,1.513,0,0,0-.92-.24,3.64,3.64,0,0,0-2.08.86v7.1l1.1.18V0h-5.54V-1.32l1.1-.18ZM162.16.18a2.713,2.713,0,0,1-1.95-.61,2.526,2.526,0,0,1-.63-1.89V-9.44h-1.22V-10.6l.4-.16a6.447,6.447,0,0,0,.84-.34,2.7,2.7,0,0,0,.64-1,18.03,18.03,0,0,0,.66-2.02h1.86l.12,3h2.86v1.68h-2.82v5.3a13.249,13.249,0,0,0,.06,1.54.861.861,0,0,0,.23.57,1.093,1.093,0,0,0,.63.13,4.957,4.957,0,0,0,1.78-.32l.42,1.26a4.932,4.932,0,0,1-1.66.8A7.479,7.479,0,0,1,162.16.18Zm9.58-5.68a6.457,6.457,0,0,1,.76-3.25,4.907,4.907,0,0,1,2.05-1.99,6.122,6.122,0,0,1,2.83-.66,5.179,5.179,0,0,1,3.95,1.51,5.879,5.879,0,0,1,1.43,4.21,6.532,6.532,0,0,1-.76,3.3,4.809,4.809,0,0,1-2.04,1.96,6.306,6.306,0,0,1-2.86.64,5.153,5.153,0,0,1-3.93-1.51A5.879,5.879,0,0,1,171.74-5.5Zm5.56,4.32a1.52,1.52,0,0,0,1.43-1.03,8.257,8.257,0,0,0,.47-3.23,9.8,9.8,0,0,0-.45-3.45A1.553,1.553,0,0,0,177.24-10q-1.96,0-1.96,4.26a9.246,9.246,0,0,0,.48,3.44A1.607,1.607,0,0,0,177.3-1.18Zm8.54-8.26h-1.56v-1.24l1.56-.4v-.84a4.361,4.361,0,0,1,.72-2.44,5.124,5.124,0,0,1,1.93-1.74,5.5,5.5,0,0,1,2.61-.64,4.221,4.221,0,0,1,1.34.2v2.9a2.234,2.234,0,0,0-.86-.47,3.709,3.709,0,0,0-1.26-.23,1.154,1.154,0,0,0-.94.34,1.768,1.768,0,0,0-.28,1.12v1.78h2.4v1.66h-2.4V-1.5l2.02.18V0H184.3V-1.32l1.54-.18ZM3.36,16.2,1.2,15.81v-2.1h9.72v2.1l-2.46.39v7.17h8.22V16.23l-2.25-.42v-2.1h9.6v2.1l-2.22.39V33.72l2.22.3V36h-9.6V34.02l2.25-.33V25.92H8.46v7.8l2.46.3V36H1.14V34.02l2.22-.3ZM34.17,36.33q-4.11,0-6.09-2.325A9.471,9.471,0,0,1,26.1,27.66a10.165,10.165,0,0,1,1.02-4.71,7.08,7.08,0,0,1,2.865-3.015A8.717,8.717,0,0,1,34.32,18.9a6.706,6.706,0,0,1,4.815,1.59,6.113,6.113,0,0,1,1.725,4.5,14.239,14.239,0,0,1-.27,3.09H31.2a6.637,6.637,0,0,0,1.245,3.885A3.755,3.755,0,0,0,35.52,33.3a7.88,7.88,0,0,0,2.325-.375,8.118,8.118,0,0,0,1.965-.855l.84,1.83A7.4,7.4,0,0,1,38,35.55,9.874,9.874,0,0,1,34.17,36.33ZM36.09,26.1l.03-1.26a6.454,6.454,0,0,0-.51-2.88,1.8,1.8,0,0,0-1.74-.99,2.181,2.181,0,0,0-1.95,1.095,8.557,8.557,0,0,0-.75,4.035Zm6.54,5.1a4.4,4.4,0,0,1,2.685-4.05,15.448,15.448,0,0,1,7.065-1.44v-.6a4.934,4.934,0,0,0-.24-1.71,1.711,1.711,0,0,0-.87-.945,4.3,4.3,0,0,0-1.86-.315,9.173,9.173,0,0,0-2.625.345,19.252,19.252,0,0,0-2.415.915l-1.02-2.16a9.557,9.557,0,0,1,1.56-.945,13.109,13.109,0,0,1,2.6-.96,12.2,12.2,0,0,1,3.165-.405,9.167,9.167,0,0,1,3.765.63,3.788,3.788,0,0,1,1.95,1.95,9.063,9.063,0,0,1,.585,3.6v8.91h1.56v1.89q-.69.15-1.92.3a17.755,17.755,0,0,1-2.1.15A2.426,2.426,0,0,1,53,36.03a1.747,1.747,0,0,1-.375-1.32v-.69a7.068,7.068,0,0,1-2.01,1.6,5.859,5.859,0,0,1-2.91.705,5.371,5.371,0,0,1-2.565-.615,4.58,4.58,0,0,1-1.83-1.77A5.346,5.346,0,0,1,42.63,31.2Zm7.41,2.37a2.824,2.824,0,0,0,1.2-.315,4.46,4.46,0,0,0,1.14-.765V27.72a5.8,5.8,0,0,0-3.465.84,2.583,2.583,0,0,0-1.125,2.16,3.281,3.281,0,0,0,.6,2.1A2,2,0,0,0,50.04,33.57ZM61.71,14.34l-2.1-.39V12.12l6-.72h.09l.87.63V33.75l1.95.27V36H59.79V34.02l1.92-.27ZM75.54,36.27a4.07,4.07,0,0,1-2.925-.915,3.788,3.788,0,0,1-.945-2.835V21.84H69.84V20.1l.6-.24a9.671,9.671,0,0,0,1.26-.51,4.043,4.043,0,0,0,.96-1.5,27.042,27.042,0,0,0,.99-3.03h2.79l.18,4.5h4.29v2.52H76.68v7.95a19.872,19.872,0,0,0,.09,2.31,1.292,1.292,0,0,0,.345.855,1.64,1.64,0,0,0,.945.195,7.436,7.436,0,0,0,2.67-.48l.63,1.89a7.4,7.4,0,0,1-2.49,1.2A11.219,11.219,0,0,1,75.54,36.27Zm8.52-21.93-2.13-.39V12.12l6.03-.72h.09l.87.63.03,6.51-.24,2.67a8.732,8.732,0,0,1,2.46-1.545,8.232,8.232,0,0,1,3.36-.675,5.327,5.327,0,0,1,2.94.69,3.646,3.646,0,0,1,1.47,2.1,13.549,13.549,0,0,1,.42,3.75v8.22l1.83.27V36H92.85V34.02l1.59-.27V25.56a6.665,6.665,0,0,0-.45-2.925,1.894,1.894,0,0,0-1.83-.825,4.092,4.092,0,0,0-1.68.375,4.978,4.978,0,0,0-1.41.915V33.75l1.65.27V36H82.5V34.02l1.56-.27ZM109.71,31.2a4.4,4.4,0,0,1,2.685-4.05,15.448,15.448,0,0,1,7.065-1.44v-.6a4.934,4.934,0,0,0-.24-1.71,1.711,1.711,0,0,0-.87-.945,4.3,4.3,0,0,0-1.86-.315,9.173,9.173,0,0,0-2.625.345,19.252,19.252,0,0,0-2.415.915l-1.02-2.16a9.557,9.557,0,0,1,1.56-.945,13.109,13.109,0,0,1,2.6-.96,12.2,12.2,0,0,1,3.165-.405,9.167,9.167,0,0,1,3.765.63,3.788,3.788,0,0,1,1.95,1.95,9.063,9.063,0,0,1,.585,3.6v8.91h1.56v1.89q-.69.15-1.92.3a17.755,17.755,0,0,1-2.1.15,2.426,2.426,0,0,1-1.515-.33,1.747,1.747,0,0,1-.375-1.32v-.69a7.068,7.068,0,0,1-2.01,1.6,5.859,5.859,0,0,1-2.91.705,5.371,5.371,0,0,1-2.565-.615,4.58,4.58,0,0,1-1.83-1.77A5.346,5.346,0,0,1,109.71,31.2Zm7.41,2.37a2.824,2.824,0,0,0,1.2-.315,4.46,4.46,0,0,0,1.14-.765V27.72a5.8,5.8,0,0,0-3.465.84,2.583,2.583,0,0,0-1.125,2.16,3.281,3.281,0,0,0,.6,2.1A2,2,0,0,0,117.12,33.57Zm11.79-11.1-1.77-.54V19.59l5.46-.66h.09l.78.63v1.11l-.03.69a8.972,8.972,0,0,1,2.67-1.68,8.564,8.564,0,0,1,3.39-.69,5.337,5.337,0,0,1,2.835.645,3.655,3.655,0,0,1,1.5,2.055,12.684,12.684,0,0,1,.465,3.84v8.22l1.68.24V36h-8.16V34.02l1.47-.27V25.56a9.89,9.89,0,0,0-.2-2.235,1.967,1.967,0,0,0-.675-1.155,2.269,2.269,0,0,0-1.38-.36,5.459,5.459,0,0,0-3.12,1.29V33.75l1.65.27V36h-8.31V34.02l1.65-.27Zm25.26,13.86a5.91,5.91,0,0,1-4.68-2.07q-1.8-2.07-1.8-6.21a10.146,10.146,0,0,1,1.035-4.575,8.044,8.044,0,0,1,3.06-3.33,9.19,9.19,0,0,1,4.9-1.245,8.165,8.165,0,0,1,1.8.21V14.34l-2.88-.42V12l6.63-.6h.15l.9.72V33.99h1.56v1.92a20.791,20.791,0,0,1-3.84.45,2.585,2.585,0,0,1-1.515-.345,1.58,1.58,0,0,1-.465-1.335v-.75a5.327,5.327,0,0,1-2.07,1.725A6.167,6.167,0,0,1,154.17,36.33Zm1.8-2.7a3.1,3.1,0,0,0,1.485-.345,3.338,3.338,0,0,0,1.035-.825V21.6a1.561,1.561,0,0,0-.765-.45,3.818,3.818,0,0,0-1.185-.18,3.016,3.016,0,0,0-2.67,1.6,10.4,10.4,0,0,0-.99,5.235,8.916,8.916,0,0,0,.84,4.4A2.534,2.534,0,0,0,155.97,33.63ZM176.04,16.2l-2.16-.39v-2.1h9.72v2.1l-2.46.39v7.17h8.22V16.23l-2.25-.42v-2.1h9.6v2.1l-2.22.39V33.72l2.22.3V36h-9.6V34.02l2.25-.33V25.92h-8.22v7.8l2.46.3V36h-9.78V34.02l2.22-.3Zm36.6,20.1a2.188,2.188,0,0,1-1.56-.465,1.816,1.816,0,0,1-.48-1.365v-.66a6.862,6.862,0,0,1-5.07,2.52q-2.94,0-4.185-1.455T200.1,30V21.66l-1.41-.39V19.35l5.64-.39h.03l.66.42V30.12a5.473,5.473,0,0,0,.48,2.715,1.857,1.857,0,0,0,1.71.765,3.83,3.83,0,0,0,2.82-1.14V21.66l-1.86-.45V19.35l5.94-.39h.09l.72.42V33.93h1.59v1.92q-1.02.21-1.875.33A14.537,14.537,0,0,1,212.64,36.3Zm5.88-2.28,1.59-.27V22.47l-1.77-.54V19.59l5.46-.66.24.12.6.84v1.5a7.667,7.667,0,0,1,2.82-1.695,9.256,9.256,0,0,1,3.18-.7,5.537,5.537,0,0,1,2.625.54,3.42,3.42,0,0,1,1.515,1.68,8.762,8.762,0,0,1,5.7-2.22,4.451,4.451,0,0,1,3.795,1.53q1.155,1.53,1.155,5.01v8.22l1.8.27V36H239.1V34.02l1.35-.27v-8.1a6.4,6.4,0,0,0-.495-3,1.927,1.927,0,0,0-1.815-.84,4.746,4.746,0,0,0-2.88,1.17,16.075,16.075,0,0,1,.18,2.55v8.22l1.68.27V36h-8.19V34.02l1.5-.27V25.56a6.462,6.462,0,0,0-.465-2.94,1.846,1.846,0,0,0-1.755-.81,3.99,3.99,0,0,0-1.665.375,5.534,5.534,0,0,0-1.425.915V33.75l1.62.27V36h-8.22Zm30.21-2.82a4.4,4.4,0,0,1,2.685-4.05,15.448,15.448,0,0,1,7.065-1.44v-.6a4.934,4.934,0,0,0-.24-1.71,1.711,1.711,0,0,0-.87-.945,4.3,4.3,0,0,0-1.86-.315,9.173,9.173,0,0,0-2.625.345,19.251,19.251,0,0,0-2.415.915l-1.02-2.16a9.557,9.557,0,0,1,1.56-.945,13.109,13.109,0,0,1,2.6-.96,12.2,12.2,0,0,1,3.165-.405,9.167,9.167,0,0,1,3.765.63,3.788,3.788,0,0,1,1.95,1.95,9.063,9.063,0,0,1,.585,3.6v8.91h1.56v1.89q-.69.15-1.92.3a17.754,17.754,0,0,1-2.1.15,2.426,2.426,0,0,1-1.515-.33,1.747,1.747,0,0,1-.375-1.32v-.69a7.068,7.068,0,0,1-2.01,1.6,5.859,5.859,0,0,1-2.91.705,5.371,5.371,0,0,1-2.565-.615,4.58,4.58,0,0,1-1.83-1.77A5.346,5.346,0,0,1,248.73,31.2Zm7.41,2.37a2.824,2.824,0,0,0,1.2-.315,4.461,4.461,0,0,0,1.14-.765V27.72a5.8,5.8,0,0,0-3.465.84,2.583,2.583,0,0,0-1.125,2.16,3.281,3.281,0,0,0,.6,2.1A2,2,0,0,0,256.14,33.57Zm11.79-11.1-1.77-.54V19.59l5.46-.66h.09l.78.63v1.11l-.03.69a8.972,8.972,0,0,1,2.67-1.68,8.564,8.564,0,0,1,3.39-.69,5.337,5.337,0,0,1,2.835.645,3.655,3.655,0,0,1,1.5,2.055,12.684,12.684,0,0,1,.465,3.84v8.22l1.68.24V36h-8.16V34.02l1.47-.27V25.56a9.89,9.89,0,0,0-.2-2.235,1.967,1.967,0,0,0-.675-1.155,2.269,2.269,0,0,0-1.38-.36,5.459,5.459,0,0,0-3.12,1.29V33.75l1.65.27V36h-8.31V34.02l1.65-.27Zm33.93,13.86a16.045,16.045,0,0,1-3.045-.27q-1.395-.27-2.925-.72a7.372,7.372,0,0,0-1.44-.33l.27-5.61h2.79l.75,3.84a2.749,2.749,0,0,0,1.215.69,6.615,6.615,0,0,0,2.115.3,4.036,4.036,0,0,0,2.745-.81,2.812,2.812,0,0,0,.915-2.22,2.688,2.688,0,0,0-.585-1.725,5.871,5.871,0,0,0-1.62-1.35A29.312,29.312,0,0,0,300.21,26.7a13.227,13.227,0,0,1-4.005-2.745,6,6,0,0,1-1.635-4.395,5.622,5.622,0,0,1,.87-3.06,6.1,6.1,0,0,1,2.64-2.22,10.263,10.263,0,0,1,4.41-.84,16.089,16.089,0,0,1,2.775.21q1.185.21,2.535.57a5.057,5.057,0,0,0,1.11.27l-.18,5.34H306l-.69-3.69a1.959,1.959,0,0,0-.945-.495,5.572,5.572,0,0,0-1.635-.225,3.483,3.483,0,0,0-2.475.78,2.642,2.642,0,0,0-.825,2.01,2.825,2.825,0,0,0,.69,1.89,6.179,6.179,0,0,0,1.665,1.365q.975.555,2.985,1.545a23.863,23.863,0,0,1,2.775,1.575,7.344,7.344,0,0,1,2.025,2.055,5.176,5.176,0,0,1,.84,2.94,6.811,6.811,0,0,1-.795,3.18,6.194,6.194,0,0,1-2.715,2.55A10.743,10.743,0,0,1,301.86,36.33Zm18.24,0q-4.11,0-6.09-2.325a9.471,9.471,0,0,1-1.98-6.345,10.164,10.164,0,0,1,1.02-4.71,7.08,7.08,0,0,1,2.865-3.015A8.717,8.717,0,0,1,320.25,18.9a6.706,6.706,0,0,1,4.815,1.59,6.113,6.113,0,0,1,1.725,4.5,14.239,14.239,0,0,1-.27,3.09h-9.39a6.637,6.637,0,0,0,1.245,3.885A3.755,3.755,0,0,0,321.45,33.3a7.88,7.88,0,0,0,2.325-.375,8.118,8.118,0,0,0,1.965-.855l.84,1.83a7.4,7.4,0,0,1-2.655,1.65A9.874,9.874,0,0,1,320.1,36.33Zm1.92-10.23.03-1.26a6.454,6.454,0,0,0-.51-2.88,1.8,1.8,0,0,0-1.74-.99,2.181,2.181,0,0,0-1.95,1.095,8.558,8.558,0,0,0-.75,4.035Zm6.99,7.92,1.83-.27V22.47l-1.77-.54V19.59l4.98-.66h.09l.84.63v.72l-.09,2.49h.09a4.991,4.991,0,0,1,.96-1.6,6.986,6.986,0,0,1,1.9-1.59,4.878,4.878,0,0,1,2.505-.675,2.747,2.747,0,0,1,1.2.21v5.22a4.186,4.186,0,0,0-1.035-.57,4.083,4.083,0,0,0-1.425-.21,6.244,6.244,0,0,0-1.95.285,5.243,5.243,0,0,0-1.38.645v9.27l3.3.3V36H329.01Zm12.84-14.7h8.52v1.92l-1.89.36L351,29.52l.78,2.73.63-2.7,2.49-7.95-1.83-.36V19.32H360v1.92l-1.56.36-5.46,14.64h-4.02L343.02,21.6l-1.17-.36Zm22.38-2.58a2.618,2.618,0,0,1-1.89-.69,2.344,2.344,0,0,1-.72-1.77,2.832,2.832,0,0,1,.8-2.07,3.341,3.341,0,0,1,4.215-.12,2.344,2.344,0,0,1,.72,1.77,2.791,2.791,0,0,1-.81,2.085,3.117,3.117,0,0,1-2.28.8Zm-1.83,5.73-2.01-.57V19.65l6-.72h.06l.93.63V33.75l1.8.27V36h-8.64V34.02l1.86-.27Zm8.52,5.31A9.74,9.74,0,0,1,372,23.1a7.616,7.616,0,0,1,3.03-3.1,9.034,9.034,0,0,1,4.5-1.095,12.432,12.432,0,0,1,2.175.165,15.531,15.531,0,0,1,1.875.465q.87.24,1.08.27l-.21,5.43h-3.03l-.78-3.45a.766.766,0,0,0-.495-.555,2.582,2.582,0,0,0-.975-.165,2.445,2.445,0,0,0-2.2,1.38,9.732,9.732,0,0,0-.8,4.59,9.026,9.026,0,0,0,1.005,4.7,3.064,3.064,0,0,0,2.715,1.635,7.659,7.659,0,0,0,4.08-1.14l.81,1.77a7.276,7.276,0,0,1-2.37,1.575,8.6,8.6,0,0,1-3.66.765q-3.93,0-5.88-2.325A9.374,9.374,0,0,1,370.92,27.78Zm23.76,8.55q-4.11,0-6.09-2.325a9.471,9.471,0,0,1-1.98-6.345,10.164,10.164,0,0,1,1.02-4.71,7.08,7.08,0,0,1,2.865-3.015A8.717,8.717,0,0,1,394.83,18.9a6.706,6.706,0,0,1,4.815,1.59,6.113,6.113,0,0,1,1.725,4.5,14.239,14.239,0,0,1-.27,3.09h-9.39a6.637,6.637,0,0,0,1.245,3.885A3.755,3.755,0,0,0,396.03,33.3a7.88,7.88,0,0,0,2.325-.375,8.118,8.118,0,0,0,1.965-.855l.84,1.83a7.4,7.4,0,0,1-2.655,1.65A9.874,9.874,0,0,1,394.68,36.33ZM396.6,26.1l.03-1.26a6.454,6.454,0,0,0-.51-2.88,1.8,1.8,0,0,0-1.74-.99,2.181,2.181,0,0,0-1.95,1.095,8.558,8.558,0,0,0-.75,4.035Zm10.71,7.41a1.891,1.891,0,0,0,.975.6,4.613,4.613,0,0,0,1.545.27,2.909,2.909,0,0,0,1.875-.525,1.677,1.677,0,0,0,.645-1.365,1.751,1.751,0,0,0-.84-1.485,17.437,17.437,0,0,0-2.76-1.425l-1.14-.51a7.508,7.508,0,0,1-2.925-2.115,4.979,4.979,0,0,1-.975-3.165,4.057,4.057,0,0,1,.81-2.475,5.358,5.358,0,0,1,2.34-1.725,9.416,9.416,0,0,1,3.6-.63,14.948,14.948,0,0,1,2.49.18q1.05.18,2.13.45a6.087,6.087,0,0,0,1.08.24v4.08h-2.67l-.78-2.31a1.378,1.378,0,0,0-.72-.5,3.49,3.49,0,0,0-1.29-.225,2.936,2.936,0,0,0-1.8.495,1.582,1.582,0,0,0-.66,1.335,1.784,1.784,0,0,0,.75,1.515,14.085,14.085,0,0,0,2.4,1.305l.63.27a14.446,14.446,0,0,1,3.81,2.205,4.064,4.064,0,0,1,1.38,3.255,4.475,4.475,0,0,1-1.77,3.645,8.183,8.183,0,0,1-5.22,1.425,13.984,13.984,0,0,1-2.82-.255q-1.23-.255-2.7-.675l-.99-.27V31.14h2.85Z" transform="translate(281.861 788.182)" fill="#185394"/>
              </g>
            </g>
          </g>
          <g id="Group_1052" data-name="Group 1052" transform="translate(-10 5)">
            <rect id="Rectangle_1042" data-name="Rectangle 1042" width="417" height="33" transform="translate(233 122)" fill="none"/>
            <path id="Path_3049" data-name="Path 3049" d="M1.758-9.953.566-10.147v-.924H8.508l.194,2.5H7.659l-.492-1.475-3.218-.134v4.008L6.02-6.213l.238-1.222h.954v3.606H6.258L6.02-5.111,3.948-5.155v4.2l3.606-.179L8.418-3.04l1.117.313L9.149,0H.581V-.894l1.177-.149Zm9.8,3.084-.954-.268V-8.165l2.473-.313h.045l.373.3V-7.6l-.015.358a4.594,4.594,0,0,1,1.356-.849,4.241,4.241,0,0,1,1.684-.358,2.588,2.588,0,0,1,1.423.335,1.858,1.858,0,0,1,.738,1.05,6.721,6.721,0,0,1,.223,1.937v4.112l.909.119V0H15.973V-.894l.8-.119V-5.126a5.519,5.519,0,0,0-.1-1.214,1.059,1.059,0,0,0-.38-.641,1.31,1.31,0,0,0-.782-.2,3.083,3.083,0,0,0-1.818.73v5.424l.894.134V0H10.7V-.894l.864-.134Zm10.311-4.023-1.132-.194v-.8l2.771-.328h.045l.387.283.015,3.323-.1,1.3a4.818,4.818,0,0,1,1.259-.775,4.05,4.05,0,0,1,1.676-.358,2.6,2.6,0,0,1,1.46.35,1.85,1.85,0,0,1,.73,1.065,7.036,7.036,0,0,1,.209,1.907v4.1l.954.134V0H26.224V-.894l.864-.134v-4.1a5.413,5.413,0,0,0-.1-1.207,1.089,1.089,0,0,0-.38-.641,1.332,1.332,0,0,0-.812-.209,2.313,2.313,0,0,0-.946.216,3.92,3.92,0,0,0-.857.514v5.424l.909.134V0H21.039V-.894l.834-.119ZM31.29-2.324a2.186,2.186,0,0,1,1.363-2.041,7.976,7.976,0,0,1,3.524-.7v-.343a2.849,2.849,0,0,0-.127-.954.919.919,0,0,0-.462-.514,2.2,2.2,0,0,0-.976-.171,4.287,4.287,0,0,0-1.311.186,9.712,9.712,0,0,0-1.207.484l-.462-.954a3.944,3.944,0,0,1,.752-.462,6.774,6.774,0,0,1,1.259-.469,5.64,5.64,0,0,1,1.5-.2,4.391,4.391,0,0,1,1.8.3,1.8,1.8,0,0,1,.931.954,4.512,4.512,0,0,1,.283,1.758V-.894h.8V-.06a8.321,8.321,0,0,1-.849.149,7.342,7.342,0,0,1-.969.074,1.087,1.087,0,0,1-.678-.149A.808.808,0,0,1,36.3-.6V-1a4.026,4.026,0,0,1-1.043.8,2.914,2.914,0,0,1-1.445.358,2.746,2.746,0,0,1-1.259-.291,2.251,2.251,0,0,1-.916-.849A2.531,2.531,0,0,1,31.29-2.324Zm3.472,1.252a1.738,1.738,0,0,0,.715-.186,2.79,2.79,0,0,0,.7-.454V-4.157a3.57,3.57,0,0,0-2,.454,1.368,1.368,0,0,0-.663,1.17,1.576,1.576,0,0,0,.335,1.088A1.171,1.171,0,0,0,34.762-1.073Zm6.258-5.8-.954-.268V-8.165l2.473-.313h.045l.372.3V-7.6l-.015.358A4.594,4.594,0,0,1,44.3-8.091a4.241,4.241,0,0,1,1.684-.358,2.588,2.588,0,0,1,1.423.335,1.858,1.858,0,0,1,.738,1.05,6.721,6.721,0,0,1,.223,1.937v4.112l.909.119V0H45.43V-.894l.8-.119V-5.126a5.519,5.519,0,0,0-.1-1.214,1.059,1.059,0,0,0-.38-.641,1.31,1.31,0,0,0-.782-.2,3.083,3.083,0,0,0-1.818.73v5.424l.894.134V0H40.155V-.894l.864-.134ZM50.436-4.1a4.909,4.909,0,0,1,.514-2.28,3.748,3.748,0,0,1,1.475-1.557,4.381,4.381,0,0,1,2.242-.559A5.14,5.14,0,0,1,55.7-8.4q.432.089.968.238l.432.119L57.007-5.5h-1.3l-.373-1.639q-.089-.387-.879-.387a1.471,1.471,0,0,0-1.3.73,4.4,4.4,0,0,0-.484,2.28A4.618,4.618,0,0,0,53.238-2a1.723,1.723,0,0,0,1.5.872,3.791,3.791,0,0,0,2.086-.611l.343.775a3.645,3.645,0,0,1-1.185.775,4.156,4.156,0,0,1-1.721.358A3.486,3.486,0,0,1,51.4-1.013,4.723,4.723,0,0,1,50.436-4.1Zm10-5.543a1.148,1.148,0,0,1-.849-.313,1.089,1.089,0,0,1-.313-.8,1.3,1.3,0,0,1,.358-.939,1.261,1.261,0,0,1,.954-.372,1.214,1.214,0,0,1,.909.32,1.1,1.1,0,0,1,.313.8,1.289,1.289,0,0,1-.358.954,1.349,1.349,0,0,1-1,.358Zm-.79,2.771-1.058-.283v-1l2.727-.328h.03l.417.3v7.167l1,.119V0H58.6V-.894l1.043-.134Zm5.319,0-.954-.268V-8.165l2.473-.313h.045l.373.3V-7.6l-.015.358a4.594,4.594,0,0,1,1.356-.849,4.241,4.241,0,0,1,1.684-.358,2.588,2.588,0,0,1,1.423.335,1.858,1.858,0,0,1,.738,1.05,6.721,6.721,0,0,1,.224,1.937v4.112l.909.119V0H69.374V-.894l.8-.119V-5.126a5.519,5.519,0,0,0-.1-1.214,1.059,1.059,0,0,0-.38-.641,1.31,1.31,0,0,0-.782-.2,3.083,3.083,0,0,0-1.818.73v5.424l.894.134V0H64.1V-.894l.864-.134ZM78.18,4.023A5.155,5.155,0,0,1,75.29,3.4,1.968,1.968,0,0,1,74.4,1.7a1.887,1.887,0,0,1,.41-1.155A2.59,2.59,0,0,1,75.8-.268a1.376,1.376,0,0,1-.685-1.281,1.616,1.616,0,0,1,.328-.961,2.229,2.229,0,0,1,.849-.708,2.392,2.392,0,0,1-1.222-.954,2.8,2.8,0,0,1-.4-1.52,2.325,2.325,0,0,1,.5-1.483A3.2,3.2,0,0,1,76.5-8.15a4.8,4.8,0,0,1,1.825-.343,4.15,4.15,0,0,1,2.593.671,1.8,1.8,0,0,1,.656-.477,2.165,2.165,0,0,1,.954-.224h.521V-6.9H81.518a2.358,2.358,0,0,1,.224,1.013,2.645,2.645,0,0,1-.954,2.168,4,4,0,0,1-2.652.812,5.618,5.618,0,0,1-1.177-.1,1.6,1.6,0,0,0-.231.41,1.093,1.093,0,0,0-.082.38.682.682,0,0,0,.35.67,3.062,3.062,0,0,0,1.259.179h1.594q3.04,0,3.04,2.205a2.409,2.409,0,0,1-.656,1.654A4.29,4.29,0,0,1,80.49,3.621,6.6,6.6,0,0,1,78.18,4.023Zm.1-7.852q1.386,0,1.386-1.892a2.333,2.333,0,0,0-.35-1.423A1.26,1.26,0,0,0,78.255-7.6a1.329,1.329,0,0,0-1.08.454,2.086,2.086,0,0,0-.38,1.363Q76.795-3.829,78.285-3.829ZM78.4,2.995a2.871,2.871,0,0,0,1.624-.454,1.432,1.432,0,0,0,.685-1.259,1.147,1.147,0,0,0-.335-.924,1.9,1.9,0,0,0-1.2-.283H77.554A4.863,4.863,0,0,1,76.869.03a2.075,2.075,0,0,0-.4,1.281,1.661,1.661,0,0,0,.447,1.252A2.1,2.1,0,0,0,78.4,2.995ZM90.473.134A1.931,1.931,0,0,1,89.087-.3a1.835,1.835,0,0,1-.447-1.371V-7.137h-.969v-.775q.119-.045.432-.156t.477-.186a1.478,1.478,0,0,0,.432-.67q.134-.313.492-1.55H90.7l.06,2.19h2.28v1.147H90.771V-2.95a10.491,10.491,0,0,0,.045,1.177.6.6,0,0,0,.194.44,1.015,1.015,0,0,0,.521.1,3.881,3.881,0,0,0,.775-.082,3.288,3.288,0,0,0,.671-.2l.283.834a4.146,4.146,0,0,1-1.222.566A5.2,5.2,0,0,1,90.473.134Zm4.574-11.026-1.132-.194v-.8l2.771-.328h.045l.387.283.015,3.323-.1,1.3a4.818,4.818,0,0,1,1.259-.775,4.05,4.05,0,0,1,1.676-.358,2.6,2.6,0,0,1,1.46.35,1.85,1.85,0,0,1,.73,1.065,7.036,7.036,0,0,1,.209,1.907v4.1l.954.134V0H99.4V-.894l.864-.134v-4.1a5.413,5.413,0,0,0-.1-1.207,1.089,1.089,0,0,0-.38-.641,1.332,1.332,0,0,0-.812-.209,2.313,2.313,0,0,0-.946.216,3.92,3.92,0,0,0-.857.514v5.424l.909.134V0H94.213V-.894l.834-.119ZM108.383.164a3.592,3.592,0,0,1-2.928-1.155,4.777,4.777,0,0,1-.961-3.151,5.076,5.076,0,0,1,.5-2.324,3.531,3.531,0,0,1,1.408-1.5,4.146,4.146,0,0,1,2.1-.521,3.157,3.157,0,0,1,2.295.782,3.058,3.058,0,0,1,.834,2.228,6.536,6.536,0,0,1-.119,1.46h-4.842a3.652,3.652,0,0,0,.641,2.108,1.967,1.967,0,0,0,1.654.752,4,4,0,0,0,1.2-.194,3.252,3.252,0,0,0,.976-.462l.372.819a3.657,3.657,0,0,1-1.3.8A4.826,4.826,0,0,1,108.383.164Zm1.162-5.081q.03-.417.03-.641,0-1.982-1.326-1.982a1.3,1.3,0,0,0-1.132.581,3.993,3.993,0,0,0-.447,2.041Zm8.106-5.975-1.132-.194v-.8l2.771-.328h.045l.387.283.015,3.323-.1,1.3a4.818,4.818,0,0,1,1.259-.775,4.05,4.05,0,0,1,1.676-.358,2.6,2.6,0,0,1,1.46.35,1.85,1.85,0,0,1,.73,1.065,7.035,7.035,0,0,1,.209,1.907v4.1l.954.134V0H122V-.894l.864-.134v-4.1a5.413,5.413,0,0,0-.1-1.207,1.089,1.089,0,0,0-.38-.641,1.332,1.332,0,0,0-.812-.209,2.313,2.313,0,0,0-.946.216,3.92,3.92,0,0,0-.857.514v5.424l.909.134V0h-3.859V-.894l.834-.119ZM130.986.164a3.592,3.592,0,0,1-2.928-1.155,4.777,4.777,0,0,1-.961-3.151,5.076,5.076,0,0,1,.5-2.324A3.531,3.531,0,0,1,129-7.972a4.146,4.146,0,0,1,2.1-.521,3.157,3.157,0,0,1,2.295.782,3.058,3.058,0,0,1,.834,2.228,6.536,6.536,0,0,1-.119,1.46h-4.842a3.652,3.652,0,0,0,.641,2.108,1.967,1.967,0,0,0,1.654.752,4,4,0,0,0,1.2-.194,3.252,3.252,0,0,0,.976-.462l.372.819a3.657,3.657,0,0,1-1.3.8A4.826,4.826,0,0,1,130.986.164Zm1.162-5.081q.03-.417.03-.641,0-1.982-1.326-1.982a1.3,1.3,0,0,0-1.132.581,3.993,3.993,0,0,0-.447,2.041Zm3.412,2.593a2.186,2.186,0,0,1,1.363-2.041,7.976,7.976,0,0,1,3.524-.7v-.343a2.849,2.849,0,0,0-.127-.954.919.919,0,0,0-.462-.514,2.2,2.2,0,0,0-.976-.171,4.287,4.287,0,0,0-1.311.186,9.711,9.711,0,0,0-1.207.484l-.462-.954a3.944,3.944,0,0,1,.752-.462,6.775,6.775,0,0,1,1.259-.469,5.64,5.64,0,0,1,1.5-.2,4.391,4.391,0,0,1,1.8.3,1.8,1.8,0,0,1,.931.954,4.512,4.512,0,0,1,.283,1.758V-.894h.8V-.06a8.321,8.321,0,0,1-.849.149,7.342,7.342,0,0,1-.968.074,1.087,1.087,0,0,1-.678-.149.808.808,0,0,1-.171-.611V-1a4.026,4.026,0,0,1-1.043.8,2.914,2.914,0,0,1-1.445.358,2.746,2.746,0,0,1-1.259-.291,2.251,2.251,0,0,1-.916-.849A2.531,2.531,0,0,1,135.56-2.324Zm3.472,1.252a1.738,1.738,0,0,0,.715-.186,2.79,2.79,0,0,0,.7-.454V-4.157a3.57,3.57,0,0,0-2,.454,1.368,1.368,0,0,0-.663,1.17,1.576,1.576,0,0,0,.335,1.088A1.171,1.171,0,0,0,139.032-1.073Zm6.288-9.819-1.1-.194v-.8l2.757-.328H147l.4.283V-1.013l1.088.119V0h-4.217V-.894l1.043-.134Zm7,11.026A1.931,1.931,0,0,1,150.937-.3a1.835,1.835,0,0,1-.447-1.371V-7.137h-.969v-.775q.119-.045.432-.156t.477-.186a1.478,1.478,0,0,0,.432-.67q.134-.313.492-1.55h1.192l.06,2.19h2.28v1.147h-2.265V-2.95a10.49,10.49,0,0,0,.045,1.177.6.6,0,0,0,.194.44,1.015,1.015,0,0,0,.521.1,3.881,3.881,0,0,0,.775-.082,3.287,3.287,0,0,0,.671-.2l.283.834a4.146,4.146,0,0,1-1.222.566A5.2,5.2,0,0,1,152.323.134ZM156.9-10.892l-1.132-.194v-.8l2.771-.328h.045l.387.283.015,3.323-.1,1.3a4.819,4.819,0,0,1,1.259-.775,4.05,4.05,0,0,1,1.676-.358,2.6,2.6,0,0,1,1.46.35A1.85,1.85,0,0,1,164-7.033a7.035,7.035,0,0,1,.209,1.907v4.1l.954.134V0h-3.919V-.894l.864-.134v-4.1a5.413,5.413,0,0,0-.1-1.207,1.089,1.089,0,0,0-.38-.641,1.332,1.332,0,0,0-.812-.209,2.313,2.313,0,0,0-.946.216,3.92,3.92,0,0,0-.857.514v5.424l.909.134V0h-3.859V-.894l.834-.119Zm13.246,8.568a2.186,2.186,0,0,1,1.363-2.041,7.976,7.976,0,0,1,3.524-.7v-.343a2.849,2.849,0,0,0-.127-.954.919.919,0,0,0-.462-.514,2.2,2.2,0,0,0-.976-.171,4.287,4.287,0,0,0-1.311.186,9.711,9.711,0,0,0-1.207.484l-.462-.954a3.944,3.944,0,0,1,.752-.462,6.775,6.775,0,0,1,1.259-.469,5.64,5.64,0,0,1,1.5-.2,4.391,4.391,0,0,1,1.8.3,1.8,1.8,0,0,1,.931.954,4.512,4.512,0,0,1,.283,1.758V-.894h.8V-.06a8.321,8.321,0,0,1-.849.149A7.342,7.342,0,0,1,176,.164a1.087,1.087,0,0,1-.678-.149.808.808,0,0,1-.171-.611V-1a4.026,4.026,0,0,1-1.043.8,2.914,2.914,0,0,1-1.445.358A2.746,2.746,0,0,1,171.4-.127a2.251,2.251,0,0,1-.916-.849A2.531,2.531,0,0,1,170.143-2.324Zm3.472,1.252a1.738,1.738,0,0,0,.715-.186,2.79,2.79,0,0,0,.7-.454V-4.157a3.57,3.57,0,0,0-2,.454,1.368,1.368,0,0,0-.663,1.17,1.576,1.576,0,0,0,.335,1.088A1.171,1.171,0,0,0,173.615-1.073Zm6.258-5.8-.954-.268V-8.165l2.473-.313h.045l.372.3V-7.6l-.015.358a4.594,4.594,0,0,1,1.356-.849,4.241,4.241,0,0,1,1.684-.358,2.588,2.588,0,0,1,1.423.335,1.858,1.858,0,0,1,.738,1.05,6.721,6.721,0,0,1,.223,1.937v4.112l.909.119V0h-3.844V-.894l.8-.119V-5.126a5.519,5.519,0,0,0-.1-1.214,1.059,1.059,0,0,0-.38-.641,1.31,1.31,0,0,0-.782-.2,3.082,3.082,0,0,0-1.818.73v5.424l.894.134V0h-3.889V-.894l.864-.134ZM192.6.164a3.143,3.143,0,0,1-1.654-.44,3.027,3.027,0,0,1-1.162-1.363,5.446,5.446,0,0,1-.432-2.309,5.072,5.072,0,0,1,.514-2.287,3.961,3.961,0,0,1,1.512-1.646,4.509,4.509,0,0,1,2.4-.611,4.672,4.672,0,0,1,1.073.119v-2.518l-1.46-.209v-.819l3.069-.3h.045l.417.313v11h.8V-.06a9.026,9.026,0,0,1-1.773.223,1.125,1.125,0,0,1-.678-.156.755.755,0,0,1-.2-.618v-.417a2.906,2.906,0,0,1-1.058.857A3.124,3.124,0,0,1,192.6.164Zm.775-1.237a1.835,1.835,0,0,0,.872-.2,1.866,1.866,0,0,0,.6-.484V-7.182a.83.83,0,0,0-.44-.253,2.421,2.421,0,0,0-.723-.1,1.774,1.774,0,0,0-1.527.827,4.736,4.736,0,0,0-.574,2.645,4.125,4.125,0,0,0,.492,2.257A1.5,1.5,0,0,0,193.372-1.073Zm8.687-7.2H205.9v.849l-1.043.179,1.1,3.963.358,1.624.328-1.639,1.341-4.977h1.8l1.475,4.977.358,1.639.358-1.624,1.043-3.949-1.088-.194v-.849h3.189v.849l-.76.164L212.1.119h-1.714l-1.5-4.828-.343-1.773-.268,1.773L206.887.119h-1.728l-2.384-7.375-.715-.164ZM219.507.164a3.592,3.592,0,0,1-2.928-1.155,4.777,4.777,0,0,1-.961-3.151,5.076,5.076,0,0,1,.5-2.324,3.53,3.53,0,0,1,1.408-1.5,4.146,4.146,0,0,1,2.1-.521,3.157,3.157,0,0,1,2.295.782,3.058,3.058,0,0,1,.834,2.228,6.537,6.537,0,0,1-.119,1.46h-4.842a3.652,3.652,0,0,0,.641,2.108,1.967,1.967,0,0,0,1.654.752,4,4,0,0,0,1.2-.194,3.252,3.252,0,0,0,.976-.462l.373.819a3.657,3.657,0,0,1-1.3.8A4.826,4.826,0,0,1,219.507.164Zm1.162-5.081q.03-.417.03-.641,0-1.982-1.326-1.982a1.3,1.3,0,0,0-1.132.581,3.993,3.993,0,0,0-.447,2.041Zm4.44-5.975-1.1-.194v-.8l2.757-.328h.03l.4.283V-1.013l1.088.119V0h-4.217V-.894l1.043-.134Zm5.364,0-1.1-.194v-.8l2.757-.328h.03l.4.283V-1.013l1.088.119V0H229.43V-.894l1.043-.134Zm11.562,6.824h-6.064v-1.4h6.064ZM244-11.89l2.727-.328h.03l.417.283v4.4a3.459,3.459,0,0,1,.991-.678,2.966,2.966,0,0,1,1.274-.276,2.987,2.987,0,0,1,2.332,1.006,4.5,4.5,0,0,1,.9,3.077,5.007,5.007,0,0,1-.536,2.324A4.037,4.037,0,0,1,250.6-.44a4.444,4.444,0,0,1-2.332.6,9.1,9.1,0,0,1-2.041-.2,3.92,3.92,0,0,1-1.1-.365V-10.937L244-11.115Zm4.649,4.708a1.829,1.829,0,0,0-.842.2,2.282,2.282,0,0,0-.633.454v5.438a.691.691,0,0,0,.417.268,2.454,2.454,0,0,0,.745.1,1.747,1.747,0,0,0,1.527-.887,4.885,4.885,0,0,0,.574-2.63,4.012,4.012,0,0,0-.492-2.228A1.5,1.5,0,0,0,248.651-7.182ZM257.934.164a3.592,3.592,0,0,1-2.928-1.155,4.777,4.777,0,0,1-.961-3.151,5.076,5.076,0,0,1,.5-2.324,3.53,3.53,0,0,1,1.408-1.5,4.146,4.146,0,0,1,2.1-.521,3.157,3.157,0,0,1,2.295.782,3.058,3.058,0,0,1,.834,2.228,6.536,6.536,0,0,1-.119,1.46H256.22a3.652,3.652,0,0,0,.641,2.108,1.967,1.967,0,0,0,1.654.752,4,4,0,0,0,1.2-.194,3.252,3.252,0,0,0,.976-.462l.372.819a3.658,3.658,0,0,1-1.3.8A4.826,4.826,0,0,1,257.934.164ZM259.1-4.917q.03-.417.03-.641,0-1.982-1.326-1.982a1.3,1.3,0,0,0-1.132.581,3.992,3.992,0,0,0-.447,2.041Zm5.349-4.723a1.148,1.148,0,0,1-.849-.313,1.089,1.089,0,0,1-.313-.8,1.3,1.3,0,0,1,.358-.939,1.261,1.261,0,0,1,.954-.372,1.214,1.214,0,0,1,.909.32,1.1,1.1,0,0,1,.313.8,1.289,1.289,0,0,1-.358.954,1.349,1.349,0,0,1-1,.358Zm-.79,2.771L262.6-7.152v-1l2.727-.328h.03l.417.3v7.167l1,.119V0h-4.157V-.894l1.043-.134Zm5.319,0-.954-.268V-8.165l2.473-.313h.045l.372.3V-7.6l-.015.358a4.593,4.593,0,0,1,1.356-.849,4.241,4.241,0,0,1,1.684-.358,2.588,2.588,0,0,1,1.423.335,1.858,1.858,0,0,1,.738,1.05,6.722,6.722,0,0,1,.223,1.937v4.112l.909.119V0h-3.844V-.894l.8-.119V-5.126a5.518,5.518,0,0,0-.1-1.214,1.059,1.059,0,0,0-.38-.641,1.31,1.31,0,0,0-.782-.2,3.083,3.083,0,0,0-1.818.73v5.424L272-.894V0h-3.889V-.894l.864-.134ZM282.191,4.023A5.155,5.155,0,0,1,279.3,3.4a1.968,1.968,0,0,1-.894-1.7,1.887,1.887,0,0,1,.41-1.155,2.589,2.589,0,0,1,.991-.812,1.376,1.376,0,0,1-.685-1.281,1.616,1.616,0,0,1,.328-.961,2.229,2.229,0,0,1,.849-.708,2.393,2.393,0,0,1-1.222-.954,2.8,2.8,0,0,1-.4-1.52,2.325,2.325,0,0,1,.5-1.483,3.2,3.2,0,0,1,1.341-.976,4.8,4.8,0,0,1,1.825-.343,4.15,4.15,0,0,1,2.593.671,1.8,1.8,0,0,1,.656-.477,2.165,2.165,0,0,1,.954-.224h.521V-6.9h-1.535a2.358,2.358,0,0,1,.224,1.013,2.645,2.645,0,0,1-.954,2.168,4,4,0,0,1-2.652.812,5.618,5.618,0,0,1-1.177-.1,1.6,1.6,0,0,0-.231.41,1.093,1.093,0,0,0-.082.38.682.682,0,0,0,.35.67,3.062,3.062,0,0,0,1.259.179h1.594q3.04,0,3.04,2.205a2.409,2.409,0,0,1-.656,1.654A4.29,4.29,0,0,1,284.5,3.621,6.6,6.6,0,0,1,282.191,4.023Zm.1-7.852q1.386,0,1.386-1.892a2.333,2.333,0,0,0-.35-1.423,1.26,1.26,0,0,0-1.065-.454,1.329,1.329,0,0,0-1.08.454,2.086,2.086,0,0,0-.38,1.363Q280.805-3.829,282.3-3.829Zm.119,6.824a2.871,2.871,0,0,0,1.624-.454,1.432,1.432,0,0,0,.685-1.259,1.147,1.147,0,0,0-.335-.924,1.9,1.9,0,0,0-1.2-.283h-1.624A4.864,4.864,0,0,1,280.88.03a2.075,2.075,0,0,0-.4,1.281,1.661,1.661,0,0,0,.447,1.252A2.1,2.1,0,0,0,282.415,2.995Zm9.566-7.122a4.755,4.755,0,0,1,.559-2.384,3.706,3.706,0,0,1,1.5-1.483,4.28,4.28,0,0,1,2.041-.5,3.664,3.664,0,0,1,2.9,1.155A4.567,4.567,0,0,1,300-4.2a4.83,4.83,0,0,1-.559,2.406,3.609,3.609,0,0,1-1.49,1.475A4.373,4.373,0,0,1,295.9.164a3.669,3.669,0,0,1-2.891-1.155A4.546,4.546,0,0,1,291.98-4.127ZM296.018-.8q1.684,0,1.684-3.248a6.489,6.489,0,0,0-.4-2.585,1.357,1.357,0,0,0-1.311-.887q-1.728,0-1.728,3.248a6.181,6.181,0,0,0,.425,2.585A1.4,1.4,0,0,0,296.018-.8Zm6.66-6.318h-1.252v-.834l1.252-.3V-8.91a3.227,3.227,0,0,1,.514-1.773,3.7,3.7,0,0,1,1.378-1.274,3.784,3.784,0,0,1,1.833-.469,3,3,0,0,1,.954.149v1.907a1.611,1.611,0,0,0-.589-.3,2.835,2.835,0,0,0-.916-.149,1.031,1.031,0,0,0-.827.291,1.547,1.547,0,0,0-.246.991v1.266h1.892v1.147h-1.892v6.109l1.565.119V0H301.5V-.894l1.177-.134Zm9.014,4.8a2.186,2.186,0,0,1,1.363-2.041,7.976,7.976,0,0,1,3.524-.7v-.343a2.849,2.849,0,0,0-.127-.954.919.919,0,0,0-.462-.514,2.2,2.2,0,0,0-.976-.171,4.288,4.288,0,0,0-1.311.186,9.713,9.713,0,0,0-1.207.484l-.462-.954a3.944,3.944,0,0,1,.752-.462,6.775,6.775,0,0,1,1.259-.469,5.64,5.64,0,0,1,1.5-.2,4.391,4.391,0,0,1,1.8.3,1.8,1.8,0,0,1,.931.954,4.513,4.513,0,0,1,.283,1.758V-.894h.8V-.06a8.322,8.322,0,0,1-.849.149,7.342,7.342,0,0,1-.969.074,1.087,1.087,0,0,1-.678-.149A.808.808,0,0,1,316.7-.6V-1a4.027,4.027,0,0,1-1.043.8,2.914,2.914,0,0,1-1.445.358,2.746,2.746,0,0,1-1.259-.291,2.251,2.251,0,0,1-.916-.849A2.53,2.53,0,0,1,311.693-2.324Zm3.472,1.252a1.738,1.738,0,0,0,.715-.186,2.79,2.79,0,0,0,.7-.454V-4.157a3.57,3.57,0,0,0-2,.454,1.368,1.368,0,0,0-.663,1.17,1.576,1.576,0,0,0,.335,1.088A1.17,1.17,0,0,0,315.165-1.073Zm6.288-9.819-1.1-.194v-.8l2.757-.328h.03l.4.283V-1.013l1.088.119V0H320.41V-.894l1.043-.134Zm5.364,0-1.1-.194v-.8l2.757-.328h.03l.4.283V-1.013l1.088.119V0h-4.217V-.894l1.043-.134Zm11.726-.238h2.28l3.442,10.087.864.149V0h-4.4V-.894l1.117-.149L341.27-2.98H337.41l-.581,1.952,1.207.134V0h-3.8l-.015-.894.894-.149Zm1.028,2.518L339.3-9.774,339.02-8.6l-1.326,4.574h3.278ZM345.9-.894l.834-.134V-6.869l-.954-.268V-8.165l2.473-.313.179.119.224.492v.626a4.29,4.29,0,0,1,1.408-.842,4.4,4.4,0,0,1,1.587-.365,2.75,2.75,0,0,1,1.3.268,1.7,1.7,0,0,1,.752.834,4.351,4.351,0,0,1,1.3-.775,4.167,4.167,0,0,1,1.579-.328,2.146,2.146,0,0,1,1.877.775,4.473,4.473,0,0,1,.551,2.533v4.112l.969.134V0h-3.859V-.894l.775-.134V-5.081a3.457,3.457,0,0,0-.276-1.632,1.114,1.114,0,0,0-1.05-.469,2.188,2.188,0,0,0-.857.186,3.438,3.438,0,0,0-.782.454,8.008,8.008,0,0,1,.1,1.416v4.1l.924.134V0h-3.889V-.894l.82-.134v-4.1a5.93,5.93,0,0,0-.1-1.214,1.045,1.045,0,0,0-.365-.641,1.275,1.275,0,0,0-.775-.2,2.244,2.244,0,0,0-.946.216,4.053,4.053,0,0,0-.842.514v5.424l.879.134V0H345.9ZM365.05.164a3.592,3.592,0,0,1-2.928-1.155,4.777,4.777,0,0,1-.961-3.151,5.076,5.076,0,0,1,.5-2.324,3.531,3.531,0,0,1,1.408-1.5,4.146,4.146,0,0,1,2.1-.521,3.157,3.157,0,0,1,2.295.782,3.058,3.058,0,0,1,.834,2.228,6.536,6.536,0,0,1-.119,1.46h-4.842a3.652,3.652,0,0,0,.641,2.108,1.967,1.967,0,0,0,1.654.752,4,4,0,0,0,1.2-.194,3.252,3.252,0,0,0,.976-.462l.372.819a3.657,3.657,0,0,1-1.3.8A4.826,4.826,0,0,1,365.05.164Zm1.162-5.081q.03-.417.03-.641,0-1.982-1.326-1.982a1.3,1.3,0,0,0-1.132.581,3.993,3.993,0,0,0-.447,2.041Zm3.576,4.038L370.772-1V-6.869l-.954-.268V-8.165l2.31-.313h.045l.372.3v.328L372.5-6.645h.045a2.463,2.463,0,0,1,.492-.738,3.776,3.776,0,0,1,.976-.775,2.531,2.531,0,0,1,1.274-.335,1.613,1.613,0,0,1,.566.089v2.235a1.849,1.849,0,0,0-1.088-.313,3.146,3.146,0,0,0-1.892.581v4.887l1.728.134V0h-4.813Zm9.089-8.761a1.148,1.148,0,0,1-.849-.313,1.089,1.089,0,0,1-.313-.8,1.3,1.3,0,0,1,.358-.939,1.261,1.261,0,0,1,.954-.372,1.214,1.214,0,0,1,.909.32,1.1,1.1,0,0,1,.313.8,1.289,1.289,0,0,1-.358.954,1.349,1.349,0,0,1-1,.358Zm-.79,2.771-1.058-.283v-1l2.727-.328h.03l.417.3v7.167l1,.119V0h-4.157V-.894l1.043-.134ZM382.379-4.1a4.909,4.909,0,0,1,.514-2.28,3.748,3.748,0,0,1,1.475-1.557,4.381,4.381,0,0,1,2.242-.559,5.14,5.14,0,0,1,1.028.089q.432.089.968.238l.432.119L388.95-5.5h-1.3l-.372-1.639q-.089-.387-.879-.387a1.471,1.471,0,0,0-1.3.73,4.4,4.4,0,0,0-.484,2.28A4.618,4.618,0,0,0,385.18-2a1.723,1.723,0,0,0,1.5.872,3.791,3.791,0,0,0,2.086-.611l.343.775a3.645,3.645,0,0,1-1.185.775,4.156,4.156,0,0,1-1.721.358,3.486,3.486,0,0,1-2.868-1.177A4.723,4.723,0,0,1,382.379-4.1Zm8.061,1.773A2.186,2.186,0,0,1,391.8-4.366a7.976,7.976,0,0,1,3.524-.7v-.343a2.849,2.849,0,0,0-.127-.954.919.919,0,0,0-.462-.514,2.2,2.2,0,0,0-.976-.171,4.287,4.287,0,0,0-1.311.186,9.713,9.713,0,0,0-1.207.484l-.462-.954a3.944,3.944,0,0,1,.752-.462,6.775,6.775,0,0,1,1.259-.469,5.64,5.64,0,0,1,1.5-.2,4.391,4.391,0,0,1,1.8.3,1.8,1.8,0,0,1,.931.954,4.513,4.513,0,0,1,.283,1.758V-.894h.8V-.06a8.322,8.322,0,0,1-.849.149,7.342,7.342,0,0,1-.969.074,1.087,1.087,0,0,1-.678-.149.808.808,0,0,1-.171-.611V-1a4.027,4.027,0,0,1-1.043.8,2.914,2.914,0,0,1-1.445.358A2.746,2.746,0,0,1,391.7-.127a2.251,2.251,0,0,1-.916-.849A2.53,2.53,0,0,1,390.44-2.324Zm3.472,1.252a1.738,1.738,0,0,0,.715-.186,2.79,2.79,0,0,0,.7-.454V-4.157a3.57,3.57,0,0,0-2,.454,1.368,1.368,0,0,0-.663,1.17,1.576,1.576,0,0,0,.335,1.088A1.17,1.17,0,0,0,393.911-1.073Zm6.258-5.8-.954-.268V-8.165l2.473-.313h.045l.372.3V-7.6l-.015.358a4.593,4.593,0,0,1,1.356-.849,4.241,4.241,0,0,1,1.684-.358,2.588,2.588,0,0,1,1.423.335,1.858,1.858,0,0,1,.738,1.05,6.722,6.722,0,0,1,.223,1.937v4.112l.909.119V0H404.58V-.894l.8-.119V-5.126a5.518,5.518,0,0,0-.1-1.214,1.059,1.059,0,0,0-.38-.641,1.31,1.31,0,0,0-.782-.2,3.083,3.083,0,0,0-1.818.73v5.424l.894.134V0h-3.889V-.894l.864-.134Zm11.264,5.647a1.119,1.119,0,0,0,.544.335,2.462,2.462,0,0,0,.857.156,1.616,1.616,0,0,0,1.05-.291.948.948,0,0,0,.35-.767.935.935,0,0,0-.432-.8,8.886,8.886,0,0,0-1.46-.752l-.417-.179a3.929,3.929,0,0,1-1.535-1.043,2.392,2.392,0,0,1-.507-1.579,1.93,1.93,0,0,1,.4-1.2,2.631,2.631,0,0,1,1.132-.827,4.429,4.429,0,0,1,1.684-.3,6.916,6.916,0,0,1,1.2.089q.5.089,1.05.238a2.164,2.164,0,0,0,.447.119v1.952h-1.177L414.28-7.2a.781.781,0,0,0-.4-.268,2,2,0,0,0-.715-.119,1.646,1.646,0,0,0-.976.261.839.839,0,0,0-.365.723.985.985,0,0,0,.253.693,1.912,1.912,0,0,0,.551.425q.3.149,1.1.492a11.56,11.56,0,0,1,1.334.656,2.806,2.806,0,0,1,.879.812,2.061,2.061,0,0,1,.35,1.214,2.175,2.175,0,0,1-.864,1.788,3.928,3.928,0,0,1-2.488.685A6.309,6.309,0,0,1,411.575.03q-.6-.134-1.393-.358l-.328-.1V-2.4h1.237Z" transform="translate(243 143.6)" fill="#565c65"/>
          </g>
        </g>
        <path id="Path_3047" data-name="Path 3047" d="M0,0H416.5" transform="translate(233.5 126.548)" fill="none" stroke="#dfe1e2" stroke-linecap="round" stroke-width="1.5"/>
      </g>
    </g>
  </g>
</svg>
