<svg xmlns="http://www.w3.org/2000/svg" width="406.29" height="406.29" viewBox="0 0 .56429 .56429">
 <g transform="translate(-.010345 -.010528)">
  <path d="m0.39373 0.10146-0.00564-0.00282-0.00571-0.002682-0.00584-0.002544-0.00592-0.002338-0.00605-0.002201-0.00605-0.001994-0.00619-0.001857-0.00626-0.00165-0.00626-0.001445-0.00639-0.001306-0.00647-0.0011-0.00653-8.95e-4 -0.00653-6.87e-4 -0.00661-4.82e-4 -0.00666-3.44e-4 -0.00674-6.8e-5c-0.12 0-0.21703 0.09717-0.21703 0.21696 0 0.008647 5.0614e-4 0.017177 0.0014904 0.025561 0.012645 0.1077 0.10421 0.1914 0.21554 0.1914 0.11979 0 0.2169-0.097238 0.2169-0.21696 0-0.069594-0.032734-0.13162-0.08376-0.1713" fill="none" stroke="#185494" stroke-linecap="square" stroke-miterlimit="10.433" stroke-width=".0013138"/>
  <path d="m0.30028 0.013297-0.005225 0.0052952h0.01052zm-0.017879 2.0617e-4 -0.004883 0.0056396 0.010382-7.5683e-4zm0.034248 7.5684e-4 -0.00564 0.0048828 0.010523 5.5067e-4zm-0.05041 3.4451e-4 -0.004677 0.0058431 0.010523-0.0013048zm0.066638 0.0015136-0.005843 0.0045384 0.010314 0.0011014zm-0.082799 5.4796e-4 -0.004332 0.006052 0.010384-0.001926zm0.098756 0.0020643-0.005984 0.0043321 0.010316 0.0017199zm-0.11471 9.6301e-4 -0.003988 0.0061877 0.010178-0.0024061zm0.13053 0.0028185-0.00619 0.0039199 0.01011 0.0022706zm-0.14635 0.0011014-0.003578 0.0063938 0.009972-0.0029568zm0.16195 0.0035753-0.006394 0.0034397 0.009969 0.0029568zm-0.17756 0.0011692-0.003231 0.0067384 0.009969-0.0035753zm0.086646 3.4452e-4 -0.003714 0.0084581 0.001308 6.1849e-4c0.002063-0.0039885 0.00619-0.007357 0.010935-0.0071506 0.003164 0 0.002613 0.0028178 0.002406 0.0052246l-5.5068e-4 0.019599c-2.06e-4 0.0052266-9.6329e-4 0.0063287-0.005295 0.0063287v0.001511l0.01451 4.1504e-4v-0.0015137h-3.4454e-4l-4.1232e-4 -7.053e-5h-3.4181e-4l-3.445e-4 -6.782e-5h-2.767e-4l-3.4181e-4 -6.782e-5 -2.767e-4 -7.053e-5 -2.0615e-4 -6.782e-5 -2.7399e-4 -1.3835e-4 -2.0617e-4 -6.782e-5 -2.0615e-4 -1.3834e-4 -2.0617e-4 -6.782e-5 -1.3833e-4 -1.3835e-4 -2.0617e-4 -1.3835e-4 -1.3834e-4 -2.0617e-4 -1.3833e-4 -1.3564e-4 -6.778e-5 -2.0617e-4 -1.3833e-4 -2.0616e-4 -6.778e-5 -2.0617e-4 -6.778e-5 -2.767e-4 -7.056e-5 -2.0617e-4 -6.778e-5 -2.7399e-4 -6.777e-5 -2.7669e-4 -7.056e-5 -3.418e-4v-6.8903e-4l-6.778e-5 -3.4452e-4v-0.001926l6.778e-5 -2.7398e-4 7.5684e-4 -0.019531c0-0.0024756-4.1306e-4 -0.0052952 0.002818-0.0052952 0.004677 4.1262e-4 0.008665 0.0039903 0.010523 0.0081165l0.001099-5.5068e-4 -0.002957-0.0086644zm-0.024206 0.0020617-0.013341 0.0022706 1.3556e-4 0.0015136c0.003783-7.5651e-4 0.004747 5.4807e-4 0.005504 0.005637l0.003025 0.018088c6.87e-4 0.0052264 3.4267e-4 0.0065327-0.00344 0.0070828l2.0615e-4 0.0015136 0.02407-0.0039199 0.00172-0.0090088-0.001375-4.1233e-4c-0.002201 0.0058453-0.004333 0.0082522-0.010523 0.0094212-0.00447 7.5641e-4 -0.005431-4.1493e-4 -0.005981-0.004541l-0.0032342-0.018978c-7.56e-4 -0.0050888-3.4369e-4 -0.0066032 0.003575-0.0071534zm0.06416 2.78e-6 -4.1234e-4 0.001511c0.003782 7.5651e-4 0.004127 0.0020646 0.003027 0.0071534l-0.003578 0.018085c-9.6301e-4 0.0052263-0.001858 0.0061902-0.005434 0.0054335l-4.1233e-4 0.0017171 0.013205 0.0024089 3.418e-4 -0.0015136c-0.003576-7.5651e-4 -0.004125-0.0020646-0.003025-0.0071534l0.00172-0.0084581 0.014304 0.0028211-0.00172 0.0084581c-8.9501e-4 0.0050888-0.001858 0.0062562-0.005434 0.0054309l-4.1233e-4 0.0015136 0.013341 0.0026828 2.0616e-4 -0.0015136c-0.003782-7.5641e-4 -0.004126-0.0021304-0.003163-0.0071506l0.003575-0.018088c0.001101-0.0050202 0.001858-0.0061873 0.00564-0.0054309l3.4451e-4 -0.0016521-0.013135-0.0024739-4.1233e-4 0.001511c0.003576 7.5641e-4 0.003988 0.0020645 0.003025 0.0071534l-0.001514 0.0074952-0.014302-0.0028185 0.001511-0.0074952c9.6299e-4 -0.0050889 0.001925-0.0061899 0.005501-0.0054335l3.4452e-4 -0.0015136-0.013135-0.0026802zm0.066366 0.0019233-0.006809 0.0029568 0.009972 0.0035781zm-0.20822 0.0015139-0.002612 0.006741 0.009421-0.004126zm0.041396 0.0031657-0.00392 0.0022706-0.001514 0.027027c0 0.0033699-2.0599e-4 0.0075641-0.004126 0.0086644l3.4452e-4 0.0015136 0.011692-0.0031657-4.1234e-4 -0.001511c-0.001857 3.436e-4 -0.00447 6.8663e-4 -0.005089-0.0015136-3.4388e-4 -0.0013068-1.2e-7 -0.005296 2.0617e-4 -0.0066027v-0.0018554l0.011689-0.0032335 0.003372 0.0048828c3.44e-4 8.2491e-4 0.001305 0.0021307 0.001511 0.0028185 7.5701e-4 0.0022697-0.002268 0.0026834-0.003782 0.0032335l3.4452e-4 0.0015136 0.013409-0.0037842-6.1851e-4 -0.001511c-0.0011 2.0629e-4 -0.0022 2.056e-4 -0.003163-3.4452e-4 -0.001719-0.0011003-0.003577-0.0046766-0.004677-0.0062582l-0.015264-0.022143zm0.18189 0.0017199-0.007012 0.0026124 0.009627 0.004126zm-0.23814 0.0016493-0.002268 0.0069445 0.009283-0.0046767zm0.054534 0.0024767 0.009421 0.013479-0.01011 0.0028185zm0.19806 0.0030246-0.006945 0.0024089 0.009215 0.0046767zm-0.26703 0.0018554-0.001926 0.0070828 0.009009-0.0052246zm0.040639 2.77e-6 -0.022763 0.0094212 5.4796e-4 0.0014432c0.00337-0.0014442 0.004472-5.4851e-4 0.006535 0.0041966l0.007015 0.017054c0.002063 0.004951 0.001856 0.0061881-0.001514 0.0077013l5.5067e-4 0.0013075 0.023313-0.0095595-1.3834e-4 -0.0096273h-0.001375c-0.002063 0.0071517-0.002201 0.0092129-0.009353 0.012307-0.003988 0.0016508-0.005087 0.0011026-0.006394-0.0023356l-0.004332-0.01011 0.001855-5.5067e-4c0.003369-0.0017192 0.007152-0.0030241 0.009421 0.002615l0.001305-5.5067e-4 -0.005295-0.012449-0.001099 4.1234e-4c0.001512 0.0048827-9.6261e-4 0.0067391-0.004883 0.0084581l-0.001858 7.5684e-4 -0.003437-0.0081137c-0.00165-0.0043324-0.001649-0.0050217 0.002683-0.0069473 0.006395-0.0026132 0.008457-0.0017188 0.014439 0.001926l7.5685e-4 -0.0011692-0.005981-0.0061877zm0.20208 0.0057238c-0.003009 1.624e-5 -0.005707 0.0016757-0.007267 0.004796l-1.3833e-4 2.0617e-4 -1.3556e-4 4.1234e-4 -1.3833e-4 2.0616e-4 -6.778e-5 2.7399e-4 -7.056e-5 2.0617e-4 -1.3556e-4 4.1234e-4 -7.055e-5 4.1504e-4 -1.3834e-4 4.8015e-4 -6.777e-5 4.1233e-4 -6.778e-5 4.8287e-4v4.1233e-4l-7.056e-5 4.8015e-4v0.0013753l-6.778e-5 4.1234e-4v9.6578e-4l-0.0022 2.0617e-4c-0.004195 3.436e-4 -0.007702 0.0020609-0.011141 0.0054309-0.008046 0.0080458 0.001512 0.010935 0.006188 0.013135 0.003025 0.0015128 0.006051 0.0018574 0.009421 0.0017199 9.6201e-4 0.002201 0.001719 0.003921 0.003988 0.0050212 0.002957 0.0013757 0.006534 9.6187e-4 0.00956-1.3835e-4l-2.0617e-4 -0.0011692c-0.001857 2.063e-4 -0.003918 5.4974e-4 -0.005775-3.4452e-4 -0.001513-7.566e-4 -0.00289-0.0028202-0.003233-0.0044706 0.003233-0.001582 0.006054-0.0039889 0.008461-0.0062583 0.002476-0.0022697 0.00323-0.0030242 0.0066-0.001511l5.5067e-4 -0.0013075-0.010729-0.0052274-7.5413e-4 0.0011014c0.002269 0.001169 0.003987 0.0024071 0.002612 0.0048828-0.001444 0.0030257-0.004126 0.0052252-0.007083 0.0067384-0.001376-0.0052264-0.001513-0.010727-0.001926-0.016365 0.003988 0 0.010177 2.7516e-4 0.01224-0.0037136 0.00172-0.0033698-7.5411e-4 -0.0071541-0.003917-0.008667-0.001419-6.877e-4 -0.002851-0.0010192-0.004218-0.0010118zm0.038398 4.6387e-4 -0.007083 0.0020643 0.009009 0.0050891zm-0.037145 0.0012831c5.8564e-4 6.39e-6 0.001194 1.4448e-4 0.001796 4.3674e-4l2.0616e-4 1.3835e-4 2.7399e-4 1.3835e-4 1.3834e-4 1.3564e-4 2.0615e-4 1.3835e-4 2.0617e-4 1.3835e-4 1.3833e-4 2.0616e-4 1.357e-4 1.3564e-4 1.3833e-4 2.0617e-4 1.3834e-4 2.0888e-4 1.3556e-4 2.0617e-4 1.3833e-4 2.0344e-4 6.778e-5 2.0617e-4 7.055e-5 2.0617e-4 6.778e-5 2.0617e-4 7.056e-5 2.0617e-4 6.778e-5 2.0617e-4 6.778e-5 2.7397e-4v4.1504e-4l7.055e-5 2.7399e-4v4.1234e-4l-7.055e-5 2.7399e-4v2.0617e-4l-6.778e-5 2.7669e-4v2.0617e-4l-6.778e-5 2.0617e-4 -7.056e-5 2.7399e-4 -6.778e-5 2.0617e-4 -7.055e-5 2.0887e-4 -1.357e-4 2.0617e-4 -6.778e-5 2.0617e-4h-2.77e-6c-0.001719 0.0032322-0.005639 0.0034399-0.00887 0.0032335-1.3695e-4 -0.0022695 2.0751e-4 -0.0052964 0.001308-0.0073595 7.2151e-4 -0.001702 0.002293-0.0028622 0.004049-0.002843zm-0.25809 7.7855e-4 -0.001514 0.0071534 0.008803-0.0056396zm0.30897 0.0069473-0.007289 0.0015136 0.008803 0.0056396zm-0.028746 0.0011014s3.8092e-4 8.3336e-4 7.5142e-4 0.0023275c3.7051e-4 0.0014942 7.2954e-4 0.0036479 6.8361e-4 0.006288-8.34e-6 4.4002e-4 -2.764e-5 8.9554e-4 -5.973e-5 0.0013618-6.402e-5 9.3241e-4 -1.8041e-4 0.0019157-3.635e-4 0.0029432-9.153e-5 5.1376e-4 -1.9874e-4 0.0010382-3.2552e-4 0.0015734-1.268e-4 5.3511e-4 -2.7105e-4 0.0010809-4.3675e-4 0.0016357-1.6568e-4 5.5483e-4 -3.5331e-4 0.001117-5.6153e-4 0.00169-2.0821e-4 5.7299e-4 -4.3734e-4 0.0011547-6.9173e-4 0.0017443-5.0879e-4 0.001179-0.001113 0.0023914-0.001828 0.0036268-0.001073 0.0018531-0.002395 0.003761-0.004015 0.0057048-5.3995e-4 6.4792e-4 -0.001115 0.0013012-0.001723 0.0019558-0.003648 0.0039286-0.008553 0.0079663-0.01511 0.011939-0.001093 6.6203e-4 -0.002232 0.00132-0.003418 0.001978-0.001676 0.001322-0.00337 0.002634-0.005081 0.003936s-0.003439 0.002594-0.005181 0.003876c-0.001742 0.001283-0.003499 0.002558-0.005268 0.003822s-0.003552 0.002518-0.005344 0.003763c-0.003585 0.00249-0.007211 0.004944-0.010864 0.00736-0.007307 0.004834-0.014721 0.009523-0.022114 0.014079-0.011089 0.006833-0.022132 0.013363-0.032702 0.019624-0.003523 0.002087-0.006993 0.004144-0.010395 0.006171-0.003402 0.002028-0.006738 0.004027-0.009988 0.005998s-0.006415 0.003915-0.009481 0.005832c-0.004599 0.002875-0.008974 0.00569-0.01307 0.00845-0.001365 9.1986e-4 -0.0027 0.001832-0.004001 0.00274-0.00781 0.005446-0.014436 0.010673-0.019453 0.015714-6.5338e-4 7.3064e-4 -0.001378 0.001514-0.002151 0.002357-0.002705 0.002953-0.00599 0.006646-0.008803 0.011404-4.0173e-4 6.7978e-4 -7.9238e-4 0.001381-0.001172 0.002105-0.002276 0.004346-0.004094 0.009509-0.004791 0.015699l-0.008458 0.03026v5.507e-4l-6.778e-5 4.1233e-4 -6.778e-5 5.5067e-4 -7.056e-5 6.1849e-4 -1.3569e-4 6.8632e-4 -1.3834e-4 6.8903e-4 -2.0616e-4 8.2466e-4 -2.767e-4 8.9519e-4 -3.418e-4 8.9518e-4 -3.4451e-4 9.603e-4 -4.8287e-4 9.6301e-4 -4.8014e-4 9.6299e-4 -6.1849e-4 9.6301e-4 -6.8903e-4 0.001031-7.5684e-4 9.6301e-4 -8.9248e-4 9.6301e-4 -4.8285e-4 4.8014e-4 -4.8016e-4 4.1233e-4 -5.5067e-4 4.8286e-4 -5.5067e-4 4.1233e-4 -5.5069e-4 4.1234e-4 -0.001237 8.2464e-4 -6.8631e-4 4.1234e-4 -6.8903e-4 3.4452e-4 -7.5684e-4 3.445e-4 -7.5684e-4 3.4181e-4 -7.5684e-4 2.767e-4 -8.2466e-4 3.4179e-4 -8.9248e-4 2.767e-4 -0.0017904 4.1232e-4 -0.001031 2.0617e-4 -9.6301e-4 1.3833e-4 -0.001031 1.357e-4 -0.001101 1.3833e-4 -0.001099 7.056e-5 -0.001169 6.778e-5h-0.002474l-0.001242-6.778e-5 -0.001373-7.056e-5 -0.001375-1.3833e-4 -0.001375-2.0617e-4c-0.007668-9.8001e-4 -0.015831-0.001851-0.023586-0.002121-0.002909-1.0153e-4 -0.005759-1.1819e-4 -0.008507-2.444e-5 -0.001832 6.25e-5 -0.003619 1.7317e-4 -0.005344 3.4179e-4 -0.001725 1.6863e-4 -0.003388 3.9342e-4 -0.004978 6.836e-4 -7.9494e-4 1.4509e-4 -0.001573 3.0719e-4 -0.002328 4.8558e-4 -7.5594e-4 1.7837e-4 -0.001492 3.7236e-4 -0.002205 5.8593e-4 -7.1341e-4 2.1362e-4 -0.001406 4.4642e-4 -0.002073 6.9718e-4 -6.6737e-4 2.5071e-4 -0.001308 5.2128e-4 -0.001926 8.1109e-4 -0.001853 8.6943e-4 -0.003476 0.001918-0.00482 0.003174-4.481e-4 4.1861e-4 -8.656e-4 8.6058e-4 -0.001251 0.001327-3.8449e-4 4.6542e-4 -7.3809e-4 9.5295e-4 -0.001055 0.001468-3.1738e-4 5.1414e-4 -5.9962e-4 0.001055-8.4637e-4 0.001619-2.4677e-4 5.6482e-4 -4.5673e-4 0.001154-6.2934e-4 0.001771-5.1785e-4 0.001852-6.9549e-4 0.003947-4.8286e-4 0.006307 2.1262e-4 0.00236 8.1454e-4 0.004988 0.001853 0.007908 1.6547e-4 -4.3411e-4 3.5567e-4 -8.4734e-4 5.6967e-4 -0.00124 2.1399e-4 -3.9206e-4 4.53e-4 -7.6322e-4 7.1344e-4 -0.001115 2.6044e-4 -3.516e-4 5.4425e-4 -6.828e-4 8.4907e-4 -9.9555e-4 3.0481e-4 -3.1277e-4 6.2948e-4 -6.0612e-4 9.7657e-4 -8.8163e-4 3.471e-4 -2.755e-4 7.1439e-4 -5.3326e-4 0.001101-7.7312e-4 7.7463e-4 -4.7971e-4 0.00163-8.9026e-4 0.002553-0.001237 9.2301e-4 -3.4673e-4 0.001916-6.2801e-4 0.00297-8.5451e-4 5.2738e-4 -1.1319e-4 0.00107-2.1279e-4 0.001628-2.9839e-4 5.5722e-4 -8.555e-5 0.001129-1.5747e-4 0.001714-2.1701e-4 0.001755-1.7864e-4 0.003629-2.4412e-4 0.005596-2.1702e-4 0.00918 1.2639e-4 0.020368 0.002254 0.03071 0.004197 0.002955 5.5483e-4 0.00584 0.001098 0.008591 0.001571 0.01243 0 0.017742 3.0796e-4 0.024292-0.001364 0.001092-2.7883e-4 0.002219-6.1211e-4 0.003418-0.001012 0.001199-3.9954e-4 0.002471-8.6623e-4 0.003855-0.001408 0.002256-0.001504 0.004249-0.003074 0.006017-0.004707 4.4182e-4 -4.08e-4 8.6893e-4 -8.1898e-4 0.001283-0.001234 4.1425e-4 -4.1556e-4 8.1705e-4 -8.3544e-4 0.001204-0.001259 3.8782e-4 -4.2294e-4 7.6052e-4 -8.5065e-4 0.001123-0.00128 0.002538-0.003011 0.004474-0.006197 0.006009-0.009527 0.001315-0.002854 0.002335-0.005814 0.00319-0.008862 2.8492e-4 -0.001016 5.5021e-4 -0.002044 8.0296e-4 -0.003079 7.5826e-4 -0.003105 0.001394-0.006292 0.002034-0.00954 4.2638e-4 -0.002166 8.5268e-4 -0.004359 0.001321-0.006576 7.0276e-4 -0.003325 0.001498-0.006703 0.002509-0.01011 0.001348-0.004543 0.003085-0.009141 0.005512-0.013753 0.001213-0.002306 0.002597-0.004616 0.004194-0.006923 7.9855e-4 -0.001153 0.001649-0.002307 0.002558-0.003459 9.0867e-4 -0.001151 0.001876-0.0023 0.002905-0.003448 0.002057-0.002296 0.004361-0.004585 0.006953-0.00686 0.001296-0.001137 0.002663-0.002272 0.004107-0.003402 0.002166-0.001695 0.004505-0.003382 0.007031-0.005056 8.4196e-4 -5.5816e-4 0.001706-0.001113 0.002591-0.001668 0.005269-0.003877 0.010594-0.007663 0.015967-0.011377 0.005373-0.003714 0.010797-0.007359 0.016263-0.010959 0.002733-0.0018 0.005476-0.00359 0.00823-0.005371s0.005519-0.003554 0.008293-0.005322c0.005547-0.003536 0.011131-0.007051 0.016749-0.010571 0.016853-0.01056 0.033998-0.02116 0.051278-0.032457 0.00288-0.001883 0.005764-0.003785 0.008651-0.00571s0.005777-0.00387 0.00867-0.005843c0.001545-0.001298 0.003001-0.002573 0.004376-0.003822 0.001374-0.001249 0.002665-0.002473 0.003876-0.003673s0.002345-0.002374 0.003402-0.003527c0.003169-0.003457 0.005661-0.006699 0.007577-0.009733 6.3896e-4 -0.001011 0.001212-0.0019993 0.001728-0.002965 0.003093-0.0057935 0.004038-0.010769 0.003687-0.014982-5.861e-5 -7.0227e-4 -1.5269e-4 -0.0013824-2.794e-4 -0.0020427-1.2667e-4 -6.6032e-4 -2.8517e-4 -0.0013017-4.72e-4 -0.0019206-1.8685e-4 -6.1892e-4 -4.0383e-4 -0.0012177-6.4291e-4 -0.0017959-4.7817e-4 -0.0011562-0.001053-0.0022292-0.001693-0.0032254-3.1985e-4 -4.9807e-4 -6.5502e-4 -9.7613e-4 -0.001004-0.001435-0.001045-0.0013767-0.002201-0.0025792-0.003361-0.0036134-3.8655e-4 -3.4469e-4 -7.7176e-4 -6.7157e-4 -0.001156-9.7929e-4 -0.00115-9.2316e-4 -0.00227-0.0016808-0.00325-0.0022814-6.5355e-4 -4.0032e-4 -0.001245-7.3039e-4 -0.001744-9.9284e-4 -9.9783e-4 -5.2489e-4 -0.001622-7.7855e-4 -0.001622-7.7855e-4h-2.78e-6zm-0.29378 9.603e-4 -9.63e-4 0.0073595 0.008252-0.0061903zm0.033624 2.0888e-4 -0.011483 0.0067384 7.5413e-4 0.0015136c0.003233-0.0020626 0.004334-0.0013081 0.006947 0.0032309l0.003988 0.0065321-0.012446 0.0075657-0.00392-0.0066027c-0.002613-0.0043321-0.002818-0.0058446 3.4451e-4 -0.0077013l-7.5684e-4 -0.0013075-0.011415 0.0068088 7.5413e-4 0.0014432c0.003163-0.0020626 0.004265-0.0013054 0.007153 0.0032335l0.009351 0.015747c0.002682 0.004539 0.002821 0.005847-3.418e-4 0.007704l7.5685e-4 0.001305 0.011415-0.006738-6.8903e-4 -0.001514c-0.003232 0.002063-0.004332 0.001307-0.007151-0.003163l-0.004332-0.0073569 0.012378-0.0074978 0.004538 0.0072917c0.002613 0.0045387 0.00282 0.0058445-4.1232e-4 0.0077013l7.5684e-4 0.001375 0.011553-0.007015-8.2465e-4 -0.0013048c-0.003164 0.0020633-0.004471 0.0013044-0.007153-0.0031657l-0.009353-0.015815c-0.002888-0.0042638-0.002887-0.0058474 3.4451e-4 -0.0077041zm0.22697 0.0016058c3.9488e-4 -1.436e-5 7.9501e-4 4.1e-7 0.001199 4.34e-5 1.3695e-4 0.0060517 7.5735e-4 0.011896 0.002064 0.017535-0.001926 5.5013e-4 -0.003989-2.5e-7 -0.005846-7.5684e-4l-4.1233e-4 -2.0617e-4 -4.1233e-4 -2.7398e-4 -3.4451e-4 -2.0617e-4 -4.1233e-4 -3.4452e-4 -3.4451e-4 -2.767e-4 -3.418e-4 -2.7398e-4 -2.7669e-4 -3.4452e-4 -2.7399e-4 -3.4452e-4 -2.767e-4 -4.1233e-4 -2.7397e-4 -3.418e-4 -2.7399e-4 -4.1504e-4 -2.0617e-4 -4.1234e-4 -2.0888e-4 -4.1234e-4 -1.3555e-4 -4.1233e-4 -2.0617e-4 -4.1234e-4 -1.3834e-4 -4.1234e-4 -6.777e-5 -4.1233e-4 -1.3834e-4 -4.8287e-4 -6.778e-5 -4.1233e-4 -7.055e-5 -4.8015e-4 -6.778e-5 -4.8286e-4v-0.0013048l6.778e-5 -4.8286e-4 7.055e-5 -4.8015e-4 6.778e-5 -4.1233e-4 1.3834e-4 -4.1234e-4 1.3569e-4 -4.8286e-4 1.3834e-4 -4.1234e-4 2.0615e-4 -4.1234e-4 2.0617e-4 -4.1233e-4c0.001264-0.0026475 0.003738-0.0041367 0.006503-0.0042371zm0.074924 0.0056831-0.007153 0.0011692 0.008252 0.0061903zm-0.34853 0.0023383-5.4797e-4 0.0074952 0.007908-0.0068088zm0.36111 0.008252-0.00736 5.5067e-4 0.00791 0.0067384zm-0.37356 0.0024061-1.3835e-4 0.0073569 0.007701-0.0071506zm0.35849 0.0068062-8.9519e-4 0.0011013c0.002819 0.0024754 0.002407 0.0039191-9.63e-4 0.0077013l-0.01224 0.013892c-0.003577 0.003989-0.004885 0.004333-0.007498 0.001926l-0.001169 0.001101 0.009972 0.00887 0.001101-0.001169c-0.002751-0.002407-0.002408-0.003712 0.001031-0.007701l0.005775-0.006397 0.010935 0.009766-0.005846 0.006394c-0.00337 0.003989-0.004676 0.004333-0.007495 0.001926l-9.6301e-4 0.001101 0.009969 0.009009 0.001101-0.001101c-0.002819-0.002613-0.002613-0.003916 9.6301e-4 -0.007905l0.01224-0.013686c0.003369-0.003989 0.004679-0.004539 0.007498-0.001926l0.001169-0.001101-0.010178-0.009077-9.6301e-4 0.001375c0.002819 0.002407 0.002475 0.003713-0.001101 0.007495l-0.005086 0.00584-0.010932-0.00976 0.005089-0.00564c0.003437-0.003989 0.004881-0.004333 0.007563-0.001926l0.001101-0.001308-0.010178-0.0088027zm0.026888 0.0018608-0.007289 2.0617e-4 0.007495 0.0071506zm-0.38964 0.0022678-0.0073569 3.4179e-4 2.0616e-4 0.0073595zm0.016502 0.0035753v2.77e-6l-0.018015 0.017122 0.0010986 0.001099c0.00282-0.002476 0.004125-0.002062 0.007701 0.00172l0.012587 0.013341c0.003783 0.003714 0.003988 0.005019 0.001375 0.007701l0.001099 0.001101 0.010316-0.009766-0.001101-0.001099-3.418e-4 2.7399e-4 -2.7669e-4 2.0617e-4 -2.7399e-4 2.7399e-4 -2.767e-4 2.0887e-4 -2.7399e-4 1.3564e-4 -2.7398e-4 2.0617e-4 -2.767e-4 1.3835e-4 -2.0617e-4 1.3835e-4 -2.7397e-4 1.3564e-4 -2.0617e-4 7.053e-5 -2.767e-4 6.782e-5 -2.0617e-4 6.782e-5 -2.0616e-4 7.052e-5h-4.8015e-4l-2.0617e-4 -7.052e-5h-2.0616e-4l-2.767e-4 -6.782e-5 -2.0617e-4 -1.3835e-4 -2.0617e-4 -6.782e-5 -2.7397e-4 -1.3835e-4 -2.0617e-4 -1.3564e-4 -2.767e-4 -1.3835e-4 -2.3472e-4 -2.0694e-4 -2.0695e-4 -2.0556e-4 -2.7639e-4 -2.0695e-4 -2.7361e-4 -2.7639e-4 -2.75e-4 -2.7361e-4 -3.4445e-4 -2.75e-4 -2.7361e-4 -2.764e-4 -3.4445e-4 -3.4444e-4 -2.7639e-4 -3.4167e-4 -0.006258-0.006603 0.001514-0.00131c0.002476-0.002613 0.00564-0.005224 0.009766-8.9247e-4l9.6301e-4 -9.6301e-4 -0.009421-0.009766-8.9519e-4 8.9519e-4c0.003369 0.003989 0.001649 0.006601-0.001514 0.009627l-0.001305 0.001308-0.00564-0.00564c-0.003232-0.00337-0.004195-0.004882-0.001169-0.007701 0.005295-0.005089 0.007908-0.00509 0.014717-0.00399l3.4451e-4 -0.001308-0.00791-0.003711zm0.37713 0.00564 0.007153 0.007701 1.3569e-4 -0.007563zm-0.40478 0.002268-0.007289 6.8902e-4 6.8902e-4 0.007357zm0.41529 0.009768 0.006603 0.008046 7.5413e-4 -0.007292zm-0.42561 0.002403-0.0073595 0.001172 0.0011692 0.007289zm0.41846 0.004747-0.001308 8.9248e-4c0.002064 0.00282 0.001308 0.004127-0.002819 0.007153l-0.012793 0.009215c-0.005845 0.004332-0.006188 0.010382-0.001855 0.01616 0.004883 0.006808 0.010316 0.007566 0.017054 0.002683l0.011689-0.008664c0.004333-0.003026 0.00564-0.003232 0.00791-2.0616e-4l0.001305-9.63e-4 -0.006394-0.008597-0.001308 8.9518e-4 2.0617e-4 2.7399e-4 1.3834e-4 2.7398e-4 1.3569e-4 2.0889e-4 1.3834e-4 2.7397e-4 1.3833e-4 2.0617e-4 1.357e-4 2.0617e-4 7.055e-5 2.7397e-4 6.778e-5 2.0617e-4 6.778e-5 2.0888e-4v2.0617e-4l7.056e-5 2.0615e-4v4.1234e-4l-7.056e-5 1.3569e-4 -6.778e-5 2.0616e-4v2.0887e-4l-1.3833e-4 2.0617e-4 -6.778e-5 2.0617e-4 -1.3834e-4 2.0617e-4 -1.3569e-4 2.0615e-4 -1.3834e-4 2.0617e-4 -2.0616e-4 2.0617e-4 -2.0617e-4 2.0617e-4 -2.0617e-4 2.0615e-4 -2.0617e-4 2.7399e-4 -2.7668e-4 2.0617e-4 -2.7399e-4 2.0615e-4 -2.7397e-4 2.767e-4 -3.4452e-4 2.7399e-4 -3.4452e-4 2.0617e-4 -3.4451e-4 2.7668e-4 -2.0616e-4 1.3569e-4 -1.3569e-4 1.3834e-4 -0.010384 0.007563c-0.005226 0.003714-0.010523 0.006533-0.015061 1.3833e-4 -0.004264-0.005983-5.504e-4 -0.010316 0.004538-0.013892l0.010729-0.007701c0.004127-0.003025 0.005431-0.003369 0.007908-2.0617e-4l0.001101-9.6301e-4 -0.007701-0.010658zm0.01692 0.005434 0.006188 0.008458 0.001169-0.007359zm-0.10116 9.5758e-4 -2.77e-6 2.78e-6 -0.002683 0.013135c-0.045663 0.057696-0.14668 0.061481-0.1519 0.14943l0.002062 0.003025c0.005089 0.007358-0.007152 0.018085-0.010178 0.023175-0.006602 0.006327-0.006393 0.010866 0.007498 0.013686 0 0.003026-3.4503e-4 0.006602-0.001652 0.009009 2.06e-4 0.002064 0.003575 0.004883 0.003575 0.004883 0.001512 0.001719-0.001307 0.003026-7.5683e-4 0.005089 5.5e-4 0.003026 0.003921 0.002064 0.006603 0.00736-0.007771 0.03349 0.041536-5.5199e-4 0.050202 0.02895-0.003232 0.022556-0.032182 0.020907-0.044974 0.039475-0.010177 0.023725 0.005434 0.031427 0.005434 0.031632l0.001788 7.5684e-4 0.001788 6.8902e-4 0.00172 6.1849e-4 0.00172 5.5068e-4 0.001717 4.8015e-4 0.00172 4.8014e-4 0.00172 3.4451e-4 0.001649 2.767e-4 0.001652 2.0617e-4 0.001649 1.3556e-4 0.001652 7.055e-5h0.003164l0.001579-1.3833e-4 0.001514-2.0617e-4 0.001516-2.0617e-4 0.001514-2.767e-4 0.002886-8.2465e-4 0.001446-4.8015e-4 0.001443-5.5068e-4 0.001373-6.1849e-4 0.00131-6.8902e-4 0.001375-6.8631e-4 0.001237-8.2739e-4 0.001308-8.2465e-4 0.001237-8.9247e-4 0.001237-9.6301e-4 0.001169-9.6301e-4 0.001172-0.001101 0.001099-0.001099 0.001101-0.001169h-2.78e-6c-0.010384-0.002682-0.019185 0.001513-0.029156-0.013341-0.005502-0.031978 0.0295-0.025582 0.04738-0.041949 0.012791-0.039336-0.046693-0.018636-0.049306-0.032734 0-9.6201e-4 -0.003164-0.003164-0.001308-0.008803-9.62e-4 -0.003439 4.1305e-4 -0.005501-0.004126-0.008458-0.0011-0.004333 3.4471e-4 -0.003028 5.5068e-4 -0.004197-0.001306-0.003714-0.003923 3.9e-7 -0.003923-0.00392-0.001169-0.00392 7.5601e-4 -0.005638-9.63e-4 -0.008664-0.001857-0.001857-0.009765-0.00241-0.009009-0.005642 0.005983-0.010522 0.01018-0.018979 0.009768-0.016365 5.502e-4 -0.002407 5.502e-4 -0.003368 0-0.005981-0.001857-0.006808-0.005639-0.01389 0.003163-0.02352 0.010178-0.047382 0.070213-0.056734 0.10006-0.087062 0.015817-0.012791 0.03693-0.018778 0.039336-0.042091-0.00282-0.006808-0.004333-0.016367-0.013135-0.018224zm-0.34399 0.001655-0.0071534 0.001511 0.0015136 0.007151zm0.021634 0.001758c-0.004255 1.0313e-4 -0.0083459 0.001857-0.011269 0.005811-0.0056391 0.00784-0.0018586 0.017671 0.0054309 0.022692l6.8902e-4 4.8285e-4 6.8631e-4 4.8016e-4 7.5684e-4 4.1232e-4 6.8902e-4 4.1234e-4 7.5684e-4 3.445e-4 0.0015137 6.8903e-4 7.5413e-4 2.7398e-4 8.2737e-4 2.0617e-4 7.5684e-4 2.0616e-4 7.5684e-4 2.0617e-4 8.2466e-4 1.3834e-4 7.5683e-4 6.778e-5 8.2466e-4 7.055e-5 7.5684e-4 6.778e-5h8.2466e-4l7.5684e-4 -6.778e-5 7.5684e-4 -7.055e-5 8.2466e-4 -1.3556e-4 0.0015137-4.1234e-4 6.8902e-4 -2.0887e-4 7.5684e-4 -3.418e-4 6.8631e-4 -2.767e-4 6.8902e-4 -4.1233e-4 6.8631e-4 -4.1232e-4 6.8902e-4 -4.8015e-4 6.1849e-4 -5.5068e-4 6.1849e-4 -5.5067e-4 6.1849e-4 -6.1851e-4 5.5067e-4 -6.8902e-4 5.5067e-4 -6.8631e-4h-2.77e-6c0.005845-0.007908 0.002407-0.017261-0.005089-0.022556-0.003576-0.002648-0.0079955-0.004194-0.01225-0.004092zm-0.0033448 0.003429c0.004255 2.215e-5 0.0090481 0.002553 0.012229 0.004788 0.00502 0.003576 0.012034 0.010934 0.007289 0.017467l-2.0617e-4 3.4451e-4 -2.0616e-4 2.7398e-4 -2.0617e-4 2.0617e-4 -4.8287e-4 4.8286e-4 -2.7397e-4 2.7398e-4 -2.7399e-4 1.3833e-4 -2.767e-4 2.0617e-4 -2.7397e-4 2.0617e-4 -2.0617e-4 1.3833e-4 -3.4452e-4 1.357e-4 -2.7397e-4 1.3833e-4 -5.5067e-4 2.0617e-4 -6.1849e-4 2.0617e-4 -6.2122e-4 1.3833e-4 -0.001237 1.3556e-4h-0.0013075l-6.8631e-4 -6.778e-5 -6.8902e-4 -1.3833e-4 -6.8631e-4 -1.357e-4 -6.8902e-4 -1.3833e-4 -6.1849e-4 -2.0617e-4 -6.8632e-4 -2.0617e-4 -6.8901e-4 -2.0615e-4 -6.185e-4 -2.767e-4 -6.8902e-4 -2.7399e-4 -6.1849e-4 -2.7397e-4 -6.1849e-4 -2.767e-4 -6.1849e-4 -3.4181e-4 -6.1849e-4 -3.445e-4 -5.5067e-4 -2.767e-4 -5.5067e-4 -3.4179e-4 -5.5067e-4 -3.4452e-4 -4.8015e-4 -3.4452e-4 -4.8286e-4 -3.4451e-4 -4.8014e-4 -3.418e-4c-0.0048828-0.00337-0.011621-0.010936-0.0071506-0.017332 0.0017021-0.002398 0.0040606-0.003288 0.0066134-0.003273zm0.43592 0.005339 0.005843 0.008662 0.001514-0.007151zm-0.46302 0.00268-0.0071534 0.001855 0.001926 0.007153zm0.47134 0.011073 0.005227 0.009009 0.001926-0.007153zm-0.4796 0.00261-0.0070123 0.002474 0.0024739 0.006947zm0.47148 0.002821-0.001514 5.4796e-4c0.00172 0.003576 7.588e-4 0.00454-0.003917 0.006809l-0.016781 0.007701c-0.004676 0.002269-0.005981 0.002065-0.007701-0.001305l-0.001308 5.4796e-4 0.004538 0.009972 0.001514-5.5069e-4c-0.00172-0.00337-7.5638e-4 -0.004537 0.00392-0.006806l0.020904-0.009557v2.0617e-4l-0.02331 0.023449 7.5413e-4 0.001514 0.032872-0.002268v2.0617e-4l-0.020697 0.009627c-0.004676 0.002063-0.005984 0.00206-0.007704-0.001516l-0.001305 7.5686e-4 0.00564 0.012172 0.001514-5.5069e-4 -1.357e-4 -2.7397e-4 -1.3833e-4 -3.4452e-4 -1.3834e-4 -2.7397e-4 -1.3569e-4 -2.767e-4 -7.056e-5 -2.7399e-4 -6.778e-5 -2.0616e-4 -7.055e-5 -2.7398e-4 -6.778e-5 -2.0617e-4v-6.8902e-4l6.778e-5 -2.0616e-4v-2.0638e-4l7.055e-5 -2.0617e-4 6.778e-5 -1.3834e-4 1.3834e-4 -2.0615e-4 6.777e-5 -2.0617e-4 1.3834e-4 -1.3833e-4 2.0617e-4 -2.0617e-4 1.3833e-4 -2.0616e-4 2.0617e-4 -1.3569e-4 2.7397e-4 -2.0617e-4 2.0617e-4 -1.3833e-4 2.767e-4 -2.0617e-4 2.7397e-4 -2.0616e-4 2.7399e-4 -1.3833e-4 6.8902e-4 -4.1234e-4 2.0617e-4 -6.778e-5 2.0617e-4 -7.055e-5 2.0617e-4 -1.3556e-4 2.0615e-4 -7.055e-5 2.0617e-4 -1.3834e-4 2.0617e-4 -6.778e-5 2.0617e-4 -1.3833e-4 2.0615e-4 -6.778e-5 0.016778-0.007699c0.004676-0.002269 0.005985-0.002065 0.007704 0.001305l0.001292-5.4167e-4 -0.004332-0.009421-0.029156 0.002062 0.020492-0.020697-0.004126-0.009215-2.78e-6 -2.78e-6zm0.015617 0.008664 0.004674 0.009215 0.002477-0.006947zm-0.49445 0.002818-0.0068088 0.002612 0.0028211 0.006947 0.0039877-0.00956zm0.013751 0.006944-0.010381 0.025032 0.0068062 0.006394 8.9519e-4 -9.6029e-4c-0.002957-0.00337-0.0048824-0.008461-0.0029568-0.012793 0.0013066-0.003026 0.0035748-0.001304 0.0057753-3.4179e-4l0.018085 0.007495c0.0048825 0.002064 0.0058452 0.003027 0.004126 0.006947l0.0015136 7.5414e-4 0.0054335-0.013341-0.0013075-7.5412e-4 -1.3564e-4 4.1232e-4 -1.3835e-4 3.418e-4 -2.0617e-4 3.4451e-4 -1.3835e-4 2.767e-4 -1.3835e-4 2.7399e-4 -2.0616e-4 2.7397e-4 -1.3564e-4 2.0617e-4 -1.3835e-4 2.0617e-4 -2.0617e-4 2.0888e-4 -2.0617e-4 2.0615e-4 -1.3835e-4 1.357e-4 -4.1233e-4 2.7666e-4 -4.1234e-4 1.3556e-4 -2.0617e-4 7.056e-5 -2.0617e-4 6.778e-5h-7.5684e-4l-2.7398e-4 -6.778e-5h-2.767e-4l-2.7398e-4 -7.056e-5 -2.7669e-4 -6.778e-5 -3.418e-4 -1.3833e-4 -3.4451e-4 -6.778e-5 -3.4452e-4 -1.3833e-4 -3.4452e-4 -1.357e-4 -4.1233e-4 -1.3833e-4 -3.4452e-4 -2.0617e-4 -4.1232e-4 -1.3834e-4 -4.8015e-4 -2.0616e-4 -0.018018-0.007498c-0.0022693-9.6201e-4 -0.005088-0.001513-0.0039877-0.004332 0.0019256-0.004333 0.0068082-0.006738 0.011347-0.007151v-0.001101l-0.009424-4.1234e-4zm0.3466 0.002271-8.33e-6 5.56e-6 8.33e-6 8.33e-6c-1e-8 -1.2e-7 0-1.389e-5 0-1.389e-5zm0 1.389e-5c1.39e-6 1.889e-5 1.2792e-4 0.001353-1.0583e-4 0.003597-3.2358e-4 0.003107-0.001336 0.007935-0.004319 0.013341-2.7118e-4 4.9144e-4 -5.6062e-4 9.8593e-4 -8.6534e-4 0.001487-3.0472e-4 5.0015e-4 -6.2553e-4 0.001004-9.6572e-4 0.001511-3.4019e-4 5.0714e-4 -6.9929e-4 0.001018-0.001077 0.00153-3.7757e-4 5.1241e-4 -7.7383e-4 0.00103-0.001191 0.001546-4.1689e-4 5.1597e-4 -8.5474e-4 0.001034-0.001313 0.001552-4.5814e-4 5.1779e-4 -9.3613e-4 0.001036-0.001438 0.001554-0.001003 0.001036-0.002093 0.002069-0.00328 0.003095s-0.002471 0.002042-0.003858 0.003044c-6.9327e-4 5.0121e-4 -0.001413 9.9926e-4 -0.002159 0.001492-0.001492 9.8545e-4 -0.003092 0.001952-0.004807 0.002894-0.00343 0.001883-0.006804 0.003822-0.010097 0.005778-0.001646 9.7821e-4 -0.003271 0.001961-0.004872 0.002943-0.017615 0.010807-0.032313 0.021585-0.039464 0.026034-6.5015e-4 4.0442e-4 -0.001239 7.5699e-4 -0.001761 0.001053-5.2197e-4 2.9506e-4 -9.7814e-4 5.3452e-4 -0.001364 7.1073e-4 -6.1038e-4 2.75e-4 -0.001321 7.0802e-4 -0.002097 0.001272-3.8783e-4 2.8223e-4 -7.9105e-4 5.9822e-4 -0.001207 9.413e-4 -0.001249 0.001029-0.002606 0.002313-0.003955 0.003752-4.4961e-4 4.7944e-4 -8.9908e-4 9.7658e-4 -0.001343 0.001487-8.8695e-4 0.001019-0.001753 0.002092-0.002563 0.003185-8.1066e-4 0.001093-0.001565 0.002206-0.00223 0.003312-0.001331 0.002212-0.002302 0.004387-0.002637 0.00628-8.375e-5 4.7324e-4 -1.3014e-4 9.3085e-4 -1.3014e-4 0.001364 0 0-3.3074e-4 0.001139-8.0567e-4 0.002897-2.3746e-4 8.7894e-4 -5.0873e-4 0.001913-7.9481e-4 0.003035-0.001001 0.003932-0.002157 0.008962-0.002466 0.012305-4.403e-5 4.7755e-4 -7.209e-5 9.2063e-4 -7.862e-5 0.001321-1.389e-5 8.0105e-4 5.32e-5 0.001431 2.2516e-4 0.001826 7.7375e-4 0.002149 0.001602 0.004488 0.001476 0.006728-6.319e-5 0.00112-3.6482e-4 0.002217-0.001031 0.003253-1.332e-4 2.0711e-4 -2.8159e-4 4.1103e-4 -4.4488e-4 6.1308e-4l-0.006668 0.007083s-0.001748 8.3148e-4 -0.001967 0.002547c-2.18e-5 1.716e-4 -2.833e-5 3.5323e-4 -1.625e-5 5.4255e-4 6.001e-5 9.4651e-4 5.8608e-4 0.002116 0.001983 0.003513 0 0 4.1567e-4 -2.6e-7 0.001061 2.986e-5 9.6698e-4 4.514e-5 0.002448 1.5734e-4 0.0038 4.3945e-4 0.001128 2.3513e-4 0.002167 5.8827e-4 0.002751 0.001118 1.168e-4 1.0583e-4 2.1559e-4 2.1871e-4 2.9297e-4 3.3908e-4 1.7188e-4 2.5788e-4 2.8256e-4 5.3955e-4 3.5266e-4 8.4094e-4 3.5047e-4 0.001507-3.3878e-4 0.003509 2.4685e-4 0.005539 1.1708e-4 4.0614e-4 2.8582e-4 8.1346e-4 5.2354e-4 0.001218 1.1889e-4 2.0227e-4 2.5367e-4 4.0448e-4 4.0963e-4 6.0493e-4s3.3127e-4 3.9909e-4 5.2898e-4 5.968e-4c3.9525e-4 3.7825e-4 5.8614e-4 6.7653e-4 6.5918e-4 9.4944e-4 3.653e-5 1.3652e-4 4.278e-5 2.6689e-4 3.25e-5 3.9876e-4 -9.72e-6 1.3181e-4 -3.889e-5 2.651e-4 -7.319e-5 4.0691e-4 -3.431e-5 1.4181e-4 -7.528e-5 2.922e-4 -1.1125e-4 4.5845e-4 -7.195e-5 3.325e-4 -1.2209e-4 7.2791e-4 -6.514e-5 0.001245 2.847e-5 2.5867e-4 8.18e-5 5.4686e-4 1.7632e-4 8.7349e-4 1.375e-4 6.5326e-4 2.0808e-4 0.001145 2.9297e-4 0.001563 4.25e-5 2.0898e-4 8.806e-5 3.9883e-4 1.492e-4 5.8323e-4 1.2222e-4 3.6881e-4 3.0243e-4 7.1319e-4 6.2663e-4 0.00112 4.8631e-4 6.1124e-4 0.001297 0.001368 0.002715 0.00258 9.8e-4 7.9075e-4 0.001545 0.001383 0.001837 0.001869 7.278e-5 1.2139e-4 1.3042e-4 2.3781e-4 1.709e-4 3.4722e-4 8.084e-5 2.1877e-4 9.917e-5 4.1459e-4 7.598e-5 6.0222e-4 -1.112e-5 9.389e-5 -3.403e-5 1.8643e-4 -6.514e-5 2.7669e-4 -1.8698e-4 5.416e-4 -6.8633e-4 0.001043-0.001042 0.001812-1.1833e-4 2.5635e-4 -2.2149e-4 5.4402e-4 -2.9025e-4 8.7077e-4 -8.597e-5 3.3527e-4 -2.2057e-4 7.5811e-4 -3.608e-4 0.001251-1.4023e-4 4.9199e-4 -2.8644e-4 0.001051-3.9604e-4 0.001652-1.0958e-4 6.0121e-4 -1.8224e-4 0.001247-1.7634e-4 0.00191 2.78e-6 3.3142e-4 2.556e-5 6.6546e-4 7.32e-5 0.001004 4.778e-5 3.3792e-4 1.2195e-4 6.7903e-4 2.2515e-4 0.001017 2.0633e-4 6.7694e-4 5.3418e-4 0.001348 0.001025 0.001991 2.4581e-4 3.2176e-4 5.3231e-4 6.3683e-4 8.6536e-4 9.4131e-4 3.3303e-4 3.0447e-4 7.1117e-4 6.0038e-4 0.001142 8.8162e-4 4.3091e-4 2.8126e-4 9.1465e-4 5.4814e-4 0.001454 8.0025e-4 0.001079 5.0419e-4 0.002384 9.4444e-4 0.003961 0.001297 7.8812e-4 1.7593e-4 0.001643 3.2949e-4 0.002572 4.5845e-4 9.4125e-4 1.1611e-4 0.001876 2.0233e-4 0.002802 2.6312e-4 0.002778 1.8243e-4 0.005479 1.307e-4 0.008057-6.514e-5 8.5906e-4 -6.528e-5 0.001704-1.4465e-4 0.002534-2.3872e-4 0.004148-4.7032e-4 0.007906-0.001259 0.011052-0.001953 0.003145-6.9413e-4 0.005676-0.001295 0.007373-0.001386 3.394e-4 -1.819e-5 6.461e-4 -1.486e-5 9.1689e-4 1.111e-5 0.001423 1.6329e-4 0.002771 3.3102e-4 0.004047 5.0456e-4s0.002482 3.5331e-4 0.003621 5.3712e-4c0.003419 5.514e-4 0.006246 0.001149 0.008618 0.001793 0.001581 4.2957e-4 0.002959 8.7961e-4 0.004175 0.001351 6.0809e-4 2.356e-4 0.001177 4.7551e-4 0.001709 7.2158e-4 5.319e-4 2.4607e-4 0.001026 4.9757e-4 0.001492 7.5413e-4 9.3144e-4 5.1311e-4 0.001742 0.001048 0.002468 0.001603 7.2701e-4 5.5528e-4 0.001372 0.00113 0.001975 0.001728 3.0144e-4 2.9886e-4 5.9343e-4 6.0464e-4 8.7891e-4 9.1417e-4 5.7096e-4 6.1906e-4 0.00112 0.001261 0.001687 0.001923 0.001397 0.001633 0.005499 0.00428 0.010997 0.006489 0.0011 4.4182e-4 0.002255 8.6394e-4 0.003456 0.001259 0.002401 7.9031e-4 0.004983 0.001468 0.007663 0.001931 6.6995e-4 1.1611e-4 0.001346 2.2083e-4 0.002026 3.0924e-4 0.001362 1.768e-4 0.00274 2.93e-4 0.004129 3.418e-4 0.002778 9.75e-5 0.005592-8.361e-5 0.008355-6.3749e-4 0.001382-2.769e-4 0.00275-6.4604e-4 0.004096-0.00112 0.002019-7.1195e-4 0.003989-0.001659 0.00587-0.002881 0.001254-8.1477e-4 0.002469-0.001753 0.003635-0.002824s0.002285-0.002275 0.003342-0.003624c0.002115-0.002682 0.00389-0.004909 0.005387-0.006752s0.002715-0.003301 0.003695-0.004449c8.1837e-4 -9.5833e-4 0.001388-0.001591 0.00191-0.002157l-3.3909e-4 8.403e-5 -5.5068e-4 2.0616e-4 -6.8632e-4 2.0617e-4 -6.8902e-4 2.0617e-4 -7.5683e-4 2.0615e-4 -0.0016493 4.1234e-4 -8.9519e-4 2.0617e-4 -9.603e-4 2.0615e-4 -0.001926 4.1234e-4 -0.001031 2.0617e-4 -0.001034 2.0615e-4 -0.001031 1.3834e-4 -0.001099 1.3833e-4 -0.001031 1.3834e-4 -0.001101 6.777e-5 -0.001099 6.778e-5h-0.0022l-0.001101-6.778e-5 -0.001099-6.777e-5 -0.001031-1.3834e-4 -0.001101-2.0617e-4 -0.001031-2.0615e-4 -0.001031-2.767e-4 -9.6301e-4 -3.4181e-4 -9.63e-4 -4.1503e-4 -9.6301e-4 -4.1233e-4c-0.003009-0.001599-0.005709-0.002984-0.008141-0.004186-0.004863-0.002404-0.008651-0.004074-0.011681-0.005257-0.00303-0.001183-0.005304-0.001878-0.007134-0.00233-0.001831-4.5244e-4 -0.003219-6.6449e-4 -0.004484-8.762e-4 -6.3273e-4 -1.0584e-4 -0.001234-2.0967e-4 -0.001845-3.4723e-4 -6.619e-4 -1.6338e-4 -0.001393-3.1895e-4 -0.002203-4.5302e-4 -0.003642-6.0332e-4 -0.008858-7.8823e-4 -0.016354 5.4797e-4 -8.3293e-4 1.4846e-4 -0.001693 3.1704e-4 -0.002583 5.0456e-4 -8.9024e-4 1.8751e-4 -0.001809 3.9432e-4 -0.002759 6.2392e-4 -0.002848 6.8877e-4 -0.005969 0.001575-0.009386 0.002696-0.001139 3.6533e-4 -0.002204 6.7542e-4 -0.003201 9.386e-4 -0.001994 5.2631e-4 -0.003716 8.6019e-4 -0.005198 0.001042-7.4142e-4 9.055e-5 -0.001423 1.4261e-4 -0.002051 1.6275e-4 -0.001883 6.042e-5 -0.003277-1.7307e-4 -0.004308-5.561e-4 -3.4343e-4 -1.2764e-4 -6.4663e-4 -2.728e-4 -9.1417e-4 -4.286e-4 -2.6756e-4 -1.558e-4 -4.988e-4 -3.2309e-4 -6.9988e-4 -4.9642e-4 -0.001408-0.001213-0.001302-0.002724-0.001302-0.002724 0-4.6425e-4 6.07e-5 -0.001263 1.0042e-4 -0.002195 6.959e-5 -0.00163 7.5e-5 -0.003679-4.1234e-4 -0.005103-6.958e-5 -2.0339e-4 -1.4766e-4 -3.9207e-4 -2.3871e-4 -5.6695e-4 -1.8209e-4 -3.4977e-4 -4.115e-4 -6.3632e-4 -6.9445e-4 -8.3551e-4 -1.4147e-4 -9.958e-5 -2.9612e-4 -1.7775e-4 -4.6658e-4 -2.3058e-4 -1.7046e-4 -5.278e-5 -3.5685e-4 -8.139e-5 -5.5881e-4 -8.139e-5 -3.5245e-4 -1.25e-5 -6.724e-4 -3.986e-5 -9.6301e-4 -8.139e-5 -2.9063e-4 -4.153e-5 -5.4985e-4 -9.653e-5 -7.8396e-4 -1.6277e-4 -2.3412e-4 -6.625e-5 -4.4101e-4 -1.4622e-4 -6.2393e-4 -2.3329e-4 -3.658e-4 -1.7415e-4 -6.3456e-4 -3.8471e-4 -8.2738e-4 -6.1849e-4 -2.8921e-4 -3.5068e-4 -4.0922e-4 -7.5148e-4 -4.286e-4 -0.001147-2.583e-5 -5.286e-4 1.2528e-4 -0.001048 2.8213e-4 -0.001438s3.2008e-4 -6.4834e-4 3.2008e-4 -6.4834e-4l-3.445e-4 -9.6301e-4c-5.415e-4 -9.458e-5 -9.7938e-4 -2.3567e-4 -0.001327-4.0961e-4 -1.7346e-4 -8.695e-5 -3.2413e-4 -1.802e-4 -4.5574e-4 -2.8211e-4 -2.6321e-4 -2.0387e-4 -4.4666e-4 -4.3673e-4 -5.6966e-4 -6.809e-4 -6.7657e-4 -0.001343 4.9372e-4 -0.003098 4.9372e-4 -0.003098-6.014e-5 -4.1263e-4 -1.2778e-4 -7.8645e-4 -1.9803e-4 -0.001128-7.028e-5 -3.4252e-4 -1.4512e-4 -6.538e-4 -2.2516e-4 -9.3316e-4 -1.601e-4 -5.5876e-4 -3.3942e-4 -9.9786e-4 -5.3711e-4 -0.001345-1.977e-4 -3.4814e-4 -4.1245e-4 -6.0414e-4 -6.4562e-4 -7.9753e-4 -4.6634e-4 -3.868e-4 -0.001002-5.2083e-4 -0.001598-6.2392e-4 -2.9766e-4 -5.153e-5 -6.0921e-4 -9.556e-5 -9.3588e-4 -1.6005e-4 -3.2667e-4 -6.444e-5 -6.6884e-4 -1.489e-4 -0.001023-2.8212e-4 -3.5355e-4 -1.332e-4 -7.1759e-4 -3.1451e-4 -0.001096-5.7238e-4 -3.6976e-4 -2.3213e-4 -7.0981e-4 -4.9019e-4 -0.001015-7.6769e-4 -0.001217-0.00111-0.001886-0.00255-0.001809-0.004064 1.931e-5 -3.7847e-4 8.528e-5 -7.6091e-4 2.0076e-4 -0.001145 2.3104e-4 -7.6716e-4 6.6204e-4 -0.001537 0.001316-0.002276 4.4701e-4 -4.9425e-4 8.504e-4 -9.8254e-4 0.001215-0.001462 3.6517e-4 -4.7974e-4 6.9147e-4 -9.53e-4 9.82e-4 -0.001416 5.8106e-4 -9.2608e-4 0.00102-0.001815 0.001345-0.002661 4.884e-4 -0.001269 7.2226e-4 -0.00244 7.9754e-4 -0.00348 1.7565e-4 -0.002427-5.0888e-4 -0.00415-8.2195e-4 -0.004796-8.945e-5 -1.8469e-4 -1.492e-4 -2.8212e-4 -1.492e-4 -2.8212e-4 -7.7362e-4 -0.003954-4.2974e-4 -0.007721 8.0838e-4 -0.011328 3.0955e-4 -9.0185e-4 6.7544e-4 -0.001792 0.001093-0.002675 2.09e-4 -4.4133e-4 4.2979e-4 -8.8202e-4 6.6462e-4 -0.001318 2.3479e-4 -4.3668e-4 4.8351e-4 -8.6997e-4 7.4327e-4 -0.001302 0.001039-0.001729 0.002275-0.003422 0.003678-0.005084 0.00351-0.004154 0.008072-0.008112 0.013257-0.011933 0.002074-0.001528 0.004246-0.003036 0.006491-0.004525 0.001123-7.4446e-4 0.002263-0.001483 0.003418-0.002219 0.00462-0.002944 0.009473-0.005826 0.014336-0.008675 0.004863-0.002849 0.00974-0.005666 0.014404-0.008483 0.002332-0.001408 0.004612-0.002815 0.006812-0.004226 0.0022-0.001412 0.004317-0.002827 0.006329-0.004251 0.001006-7.1167e-4 0.001987-0.001427 0.002935-0.002143 0.002845-0.002148 0.005415-0.004316 0.00762-0.006521 7.3494e-4 -7.3282e-4 0.001422-0.001462 0.002062-0.002186 6.3954e-4 -7.2443e-4 0.001233-0.001444 0.001782-0.002159 5.4875e-4 -7.151e-4 0.001051-0.001425 0.001514-0.002129 4.6266e-4 -7.0484e-4 8.854e-4 -0.001406 0.001267-0.0021 3.8124e-4 -6.9363e-4 7.2129e-4 -0.00138 0.001025-0.002062 3.045e-4 -6.8149e-4 5.7321e-4 -0.001358 8.0567e-4 -0.002026 2.3244e-4 -6.6842e-4 4.2902e-4 -0.001329 5.9408e-4 -0.001983 1.6505e-4 -6.5442e-4 2.9915e-4 -0.001303 4.0147e-4 -0.001942 2.047e-4 -0.001279 2.8667e-4 -0.002527 2.6856e-4 -0.003741-9.72e-6 -6.0677e-4 -4.264e-5 -0.001204-1.0042e-4 -0.001793-5.778e-5 -5.8902e-4 -1.3969e-4 -0.001169-2.4143e-4 -0.001739-1.0181e-4 -5.7034e-4 -2.224e-4 -0.001131-3.635e-4 -0.001682-1.4109e-4 -5.5069e-4 -3.017e-4 -0.001092-4.7744e-4 -0.001622-5.272e-4 -0.00159-0.001198-0.003085-0.001953-0.004473-2.5165e-4 -4.6285e-4 -5.1365e-4 -9.147e-4 -7.8125e-4 -0.001354-5.352e-4 -8.7709e-4 -0.001097-0.001705-0.001668-0.002479-0.001142-0.001548-0.002319-0.002885-0.00338-0.003977s-0.002006-0.001941-0.002686-0.002517c-6.7436e-4 -5.7137e-4 -0.001078-8.6588e-4 -0.001085-8.7078e-4zm0.1409 0.002463 0.004126 0.00956 0.002615-0.006947-0.006741-0.002612zm-0.50766 0.002818-0.0068062 0.003163 0.0032309 0.006738zm0.51343 0.012036 0.003575 0.009763 0.003025-0.0066zm-0.51907 0.002954-0.0066027 0.003575 0.0035753 0.006397zm0.52395 0.012242 0.003027 0.009972 0.003437-0.0066zm-0.044152 0.002821-0.001514 4.1232e-4 0.003163 0.011621 0.001514-3.4451e-4c-5.5001e-4 -0.001926-8.9333e-4 -0.004332 0.001514-0.005089 0.001307-2.0628e-4 0.00509 1.3833e-4 0.006603 1.3833e-4l0.001855 2.0617e-4 0.003233 0.011486-0.005089 0.003369c-5.5e-4 5.5001e-4 -0.001858 0.001307-0.002683 0.00172-0.002407 5.5e-4 -0.002613-0.002477-0.003163-0.00399l-0.001514 4.1232e-4 0.003575 0.013341 0.001514-3.4452e-4c-2.0621e-4 -0.001169-2.0534e-4 -0.002268 5.5067e-4 -0.003437 9.6301e-4 -0.001514 0.004333-0.003714 0.006052-0.004883l0.022347-0.01499-0.002268-0.00399-0.027095-0.001305c-0.00337-2.06e-4 -0.007496-4.1214e-4 -0.008595-0.004333zm-0.48448 2.0344e-4 -0.0063966 0.00392 0.0039199 0.00619zm0.015745 3.4723e-4 -0.0022 0.010726 0.0015136 2.0617e-4c6.8761e-4 -0.003576 0.0022002-0.003988 0.007289-0.002818l0.017122 0.003575-0.028743 0.012584-0.0017199 0.007908 0.0017199 3.445e-4c6.877e-4 -0.003714 0.0019931-0.004126 0.0071506-0.002957l0.018018 0.003714c0.0050888 0.001169 0.0061902 0.001858 0.0054335 0.00564l0.0015136 4.1233e-4 0.0022678-0.010729-0.0016493-4.1234e-4c-8.2521e-4 0.003783-0.0021331 0.003987-0.0071534 0.003025l-0.020147-0.004332 0.032184-0.014097 3.4179e-4 -0.001511-0.025925-0.005434c-0.0050889-9.63e-4 -0.0062578-0.001855-0.0055013-0.005431l-0.0015135-4.1173e-4zm0.48413 0.006394 0.01671 9.6301e-4 -0.013892 0.009421zm0.032734 0.00564 0.002477 0.010178 0.00392-0.00619-0.006394-0.003988zm-0.5366 0.003231-0.0059814 0.004126 0.0042643 0.005981zm0.53977 0.012378 0.001926 0.010384 0.004126-0.006052zm-0.5428 0.003231-0.0056396 0.004677 0.0045384 0.00564zm0.53248 0.002821c3.44e-4 0.003714-7.5662e-4 0.00447-0.005846 0.005089l-0.018431 0.001788c-0.005226 4.1201e-4 -0.006394-1.3764e-4 -0.006738-0.00392l-0.00172 2.0617e-4 0.001169 0.010867 0.001438-1.3833e-4c-2.9638e-4 -0.003782 0.001035-0.00434 0.006057-0.004883l0.020495-0.002132-0.026543 0.023175 2.0617e-4 0.001514 0.026338-0.002477c0.005089-5.5e-4 0.006394 2.78e-6 0.006738 0.003784l0.001514-2.0617e-4 -9.6301e-4 -0.010867-0.001443 2.0617e-4c3.44e-4 0.003714-9.6297e-4 0.004471-0.006052 0.004815l-0.017674 0.00172 0.023861-0.020495-7.5685e-4 -0.008046zm-0.030127 0.013892c4.17e-6 5.028e-5 9.2e-7 8.695e-5 5.56e-6 1.3833e-4v-1.3833e-4zm0.042714-0.004126 0.001101 0.010523 0.004744-0.005846-0.005846-0.004677zm-0.5223 0.002271-0.008252 0.002957-0.0011692 0.024482 0.0017199 2.0617e-4c2.0619e-4 -0.003782 0.0013075-0.004334 0.0066027-0.004197l0.018431 7.5683e-4c0.005295 4.1201e-4 0.0063939 9.633e-4 0.0061877 0.004677l0.0015136 2.0615e-4 0.0011692-0.025168-0.0086644-0.00392-6.1849e-4 0.001099c0.0057074 0.004882 0.0075651 0.006396 0.0072212 0.014097-2.065e-4 0.004332-0.001171 0.004747-0.0049534 0.004471l-0.010864-5.5067e-4 2.0616e-4 -0.001855c-2.064e-4 -0.003782 3.4312e-4 -0.007702 0.006326-0.007289v-0.001375l-0.013547-6.8904e-4v0.00124c0.0051577 6.1902e-4 0.0058452 0.003644 0.0055013 0.008114v0.001855l-0.0088705-3.4181e-4c-0.0045388-2.06e-4 -0.0052266-5.5028e-4 -0.0050891-0.005295 4.127e-4 -0.006946 0.0021311-0.00839 0.0077013-0.012172zm-0.024618 8.9248e-4 -0.005637 0.005086 0.0050891 0.005434zm0.5483 0.01279 5.5067e-4 0.010316 0.004883-0.005431zm-0.54939 0.003163-0.0052952 0.005295 0.0052952 0.005295zm0.54974 0.012793v0.010384l0.005089-0.005089zm-0.54995 0.003233-0.0048828 0.005634 0.0054335 0.004886zm0.050749 0.004329-0.0014432 1.3833e-4v6.8631e-4l6.782e-5 3.4452e-4v2.767e-4l-6.782e-5 2.7397e-4v5.5068e-4l-7.053e-5 2.0616e-4 -1.3564e-4 4.1234e-4 -7.053e-5 2.0616e-4 -6.782e-5 2.0616e-4 -1.3835e-4 1.3833e-4 -1.3564e-4 2.0617e-4 -1.3834e-4 1.357e-4 -1.3835e-4 1.3833e-4 -2.0617e-4 1.3834e-4 -1.3835e-4 1.3833e-4 -2.0617e-4 6.778e-5 -2.0617e-4 1.3833e-4 -2.7397e-4 6.778e-5 -2.7399e-4 1.3834e-4 -2.7669e-4 6.777e-5 -2.7398e-4 6.778e-5 -3.4452e-4 7.056e-5 -2.7398e-4 6.778e-5 -4.1505e-4 6.778e-5 -3.4179e-4 7.055e-5 -4.1234e-4 6.778e-5 -4.1505e-4 6.778e-5 -4.1233e-4 7.055e-5h-4.8014e-4l-0.0185 0.002064c-0.0050202 6.19e-4 -0.0063257-5.9e-7 -0.0067384-0.003714l-0.0017199 1.3569e-4 0.0011692 0.010181 0.028402 0.007357-0.026131 0.013135 0.0010986 0.010178 0.0015136-2.0888e-4c-3.438e-4 -0.003782 7.5687e-4 -0.004539 0.006052-0.005089l0.018229-0.002111c0.0052955-5.5e-4 0.0063944-7e-8 0.0069445 0.003782l0.0015136-2.0617e-4 -0.0010987-0.010935-0.0017199 2.0617e-4c3.4391e-4 0.003782-7.5683e-4 0.004539-0.0058459 0.005089l-0.0229 0.002477v-2.0617e-4l0.029503-0.014854-2.0617e-4 -0.001717-0.031771-0.008252v-2.0505e-4l0.022556-0.002409c0.0052955-6.1901e-4 0.0066006 2.9e-7 0.0069445 0.003714l0.001514-1.386e-4 -0.0015136-0.013547zm0.46309 0.006532-0.009421 0.002273c5.5033e-4 7.5701e-4 0.0011 0.002062 9.63e-4 0.003025-2.06e-4 0.001857-0.001924 0.004334-0.002268 0.007153-7.5701e-4 0.005845 0.002613 0.010864 0.008664 0.011621 0.007289 9.628e-4 0.009559-0.004881 0.012172-0.01052 0.001306-0.002957 0.003574-0.007157 0.007701-0.006538 0.003438 3.44e-4 0.005845 0.003371 0.005295 0.006947-5.5002e-4 0.004676-0.005089 0.007703-0.009009 0.009353l5.5068e-4 0.001514 0.008458-0.002062c-5.502e-4 -5.5e-4 -5.5068e-4 -0.001518-5.5068e-4 -0.002412 2.0651e-4 -9.6301e-4 3.4501e-4 -0.001305 8.9519e-4 -0.002474 6.188e-4 -0.001307 9.6295e-4 -0.002065 0.001169-0.003578 7.5601e-4 -0.005845-0.002271-0.010314-0.008116-0.01107-0.012585-0.001513-0.009558 0.018224-0.020285 0.016917-0.00392-5.5e-4 -0.005847-0.004123-0.005434-0.007699 5.5e-4 -0.004882 0.005639-0.008459 0.009766-0.010935l-5.5068e-4 -0.001516zm0.035488 0.001926-5.5067e-4 0.010316 0.005501-0.004883zm-0.54857 0.003163-0.0047473 0.005846 0.0058459 0.004538zm0.096358 0.005431c-0.002832 1.847e-5 -0.005316 2.7494e-4 -0.007495 7.1616e-4 -0.001453 2.9415e-4 -0.002772 6.6972e-4 -0.003966 0.001112-0.002986 0.001107-0.0052013 0.00263-0.0068441 0.004321-3.2854e-4 3.3819e-4 -6.354e-4 6.8331e-4 -9.196e-4 0.001034-2.8421e-4 3.4975e-4 -5.4641e-4 7.0292e-4 -7.894e-4 0.001061-2.4298e-4 3.5739e-4 -4.6783e-4 7.1822e-4 -6.7275e-4 0.00108-0.0028686 0.005055-0.0021565 0.010281-0.0021565 0.010281 4.6205e-4 -2.2672e-4 9.32e-4 -4.3889e-4 0.0014106-6.3749e-4 9.5718e-4 -3.9714e-4 0.0019479-7.3932e-4 0.0029677-0.001028 0.0010197-2.8888e-4 0.0020695-5.2436e-4 0.0031467-7.1073e-4 5.3867e-4 -9.32e-5 0.0010836-1.755e-4 0.0016357-2.4414e-4 0.001104-1.3723e-4 0.002236-2.2514e-4 0.003391-2.6856e-4 0.002309-8.681e-5 0.004713 9.72e-6 0.007194 2.6313e-4 0.001241 1.2708e-4 0.0025 2.9283e-4 0.003776 4.9643e-4 0.001276 2.0359e-4 0.00257 4.4446e-4 0.003876 7.1885e-4 0.002614 5.4883e-4 0.005284 0.001234 0.007992 0.002032 0.004061 0.001196 0.008203 0.002647 0.012364 0.004273 0.001387 5.42e-4 0.002778 0.001104 0.004167 0.001682 0.001388 5.7825e-4 0.002776 0.001171 0.004161 0.001779 0.004155 0.001826 0.008281 0.003779 0.012316 0.005775 0.008069 0.003993 0.015767 0.00817 0.022564 0.011912 0.009062 0.004989 0.016524 0.009203 0.021132 0.011163 2.1275e-4 2.1919e-4 4.6764e-4 4.4431e-4 7.6225e-4 6.7818e-4 2.9462e-4 2.3386e-4 6.284e-4 4.7544e-4 9.9827e-4 7.2428e-4 7.3977e-4 4.9771e-4 0.001625 0.001027 0.002626 0.001587 0.002003 0.001119 0.004475 0.002364 0.007208 0.003746 0.004099 0.002073 0.008781 0.004451 0.013336 0.007172 0.002277 0.001361 0.004522 0.002807 0.006646 0.004343 0.002833 0.002048 0.00545 0.004253 0.007642 0.00663 5.4798e-4 5.9417e-4 0.001072 0.001199 0.001563 0.001815 0.00344 0.004309 0.005415 0.009146 0.004793 0.014564-1.7751e-4 0.001548-5.6554e-4 0.003144-0.001194 0.004788-3.1382e-4 8.2216e-4 -6.893e-4 0.001654-0.001126 0.002501-0.001427 0.00153-0.002891 0.002914-0.00437 0.004191-7.3982e-4 6.3862e-4 -0.001482 0.001251-0.002227 0.001842-0.004472 0.003546-0.008997 0.006328-0.013024 0.009465-6.7117e-4 5.2284e-4 -0.001328 0.001055-0.001969 0.001603-0.001282 0.001096-0.002499 0.002251-0.00363 0.003508-5.652e-4 6.2885e-4 -0.001108 0.001284-0.001628 0.001969-0.001559 0.002055-0.002903 0.004385-0.003961 0.007132-3.4385e-4 0.00107-6.4715e-4 0.002108-9.1147e-4 0.003111-0.001321 0.005022-0.001655 0.009248-0.001063 0.012972 2.3666e-4 0.00149 6.2169e-4 0.002898 0.00115 0.004245 2.6433e-4 6.7371e-4 5.6479e-4 0.001332 9.0062e-4 0.001978 6.7163e-4 0.00129 0.001484 0.002529 0.002436 0.003733 0.001427 0.001806 0.003166 0.003538 0.0052 0.005254 0.001356 0.001145 0.002844 0.002282 0.00446 0.003434 9.0691e-4 3.6532e-4 0.001823 6.9101e-4 0.002743 9.7656e-4 0.001839 5.7112e-4 0.003699 9.8516e-4 0.005569 0.001253 0.002805 4.0254e-4 0.005632 4.7514e-4 0.008431 2.5769e-4 0.001866-1.4493e-4 0.003719-4.1781e-4 0.005547-8.1109e-4 9.1442e-4 -1.9664e-4 0.001823-4.2353e-4 0.002723-6.7817e-4 0.0027-7.6395e-4 0.005327-0.001782 0.007837-0.003019 0.001674-8.2467e-4 0.003295-0.001746 0.00485-0.002753 7.7761e-4 -5.0387e-4 0.001538-0.001031 0.002281-0.001576 7.4296e-4 -5.4554e-4 0.001468-0.001111 0.002173-0.001695-7.7365e-4 -1.4614e-4 -0.00169-2.8479e-4 -0.002713-4.476e-4 -0.001022-1.6276e-4 -0.002149-3.4852e-4 -0.003342-5.9137e-4 -5.9635e-4 -1.2139e-4 -0.00121-2.59e-4 -0.001834-4.1232e-4 -0.001248-3.0664e-4 -0.002543-6.8514e-4 -0.003844-0.001166-6.5055e-4 -2.4089e-4 -0.001304-5.064e-4 -0.001953-8.0295e-4 -0.001947-8.8971e-4 -0.003866-0.002047-0.005623-0.003581-5.8555e-4 -5.1113e-4 -0.00115-0.001064-0.001695-0.001663-0.001907-0.002095-0.003534-0.004749-0.004671-0.008133-1.6246e-4 -4.8337e-4 -3.1388e-4 -9.8076e-4 -4.5574e-4 -0.001495-0.001306-0.007599-0.002528-0.01262-0.001823-0.017099 3.525e-4 -0.002239 0.001186-0.004344 0.002732-0.006567 0.001159-0.001667 0.002718-0.003402 0.004774-0.005311 6.8538e-4 -6.3634e-4 0.001428-0.00129 0.002227-0.001969 9.6275e-4 -8.2526e-4 0.001984-0.001571 0.003049-0.002271 0.00213-0.0014 0.004432-0.002617 0.006782-0.00392 0.001762-9.7734e-4 0.003549-0.002004 0.005309-0.003193 0.001174-7.9228e-4 0.002336-0.001655 0.003469-0.002626 5.6671e-4 -4.8519e-4 0.001125-9.9825e-4 0.001676-0.001541 5.5067e-4 -5.4237e-4 0.001091-0.001115 0.001622-0.001723 0.001592-0.001824 0.003086-0.003961 0.004427-0.006527 8.167e-5 -0.001023 4.708e-5 -0.002055-8.959e-5 -0.003084-6.819e-5 -5.1444e-4 -1.6079e-4 -0.001027-2.794e-4 -0.001541-1.1861e-4 -5.1475e-4 -2.6246e-4 -0.001031-4.2862e-4 -0.001546-1.6614e-4 -5.1424e-4 -3.5607e-4 -0.001028-5.6694e-4 -0.001541-4.2177e-4 -0.001026-9.295e-4 -0.002047-0.001514-0.003063-0.00146-0.00254-0.00339-0.005039-0.005618-0.007446-0.002673-0.002889-0.005774-0.005647-0.008998-0.008187-0.007522-0.005927-0.015717-0.01067-0.020742-0.013138l-0.007083-0.003437-0.006947-0.003372-0.006809-0.003301-0.00667-0.003301-0.00667-0.003231-0.006529-0.003163-0.013067-0.006188-0.013067-0.006052-0.00667-0.00296-0.006738-0.002886-0.006877-0.002819-0.007015-0.002821-0.007151-0.002816-0.00736-0.00268v-2.78e-6c-0.001369-3.0732e-4 -0.002691-5.7706e-4 -0.003969-8.1381e-4 -0.005111-9.4699e-4 -0.009503-0.001346-0.013279-0.001321v-2.78e-6zm0.45077 0.007159-0.001305 0.010588 0.005846-0.004747zm-0.54562 0.003434-0.004126 0.005981 0.0059842 0.004126zm0.49878 0.008599-0.006809 0.024274 0.007704 0.005843 7.5413e-4 -9.603e-4c-0.00447-0.006189-0.005983-0.007909-0.00392-0.015406 0.0011-0.004127 0.00227-0.004332 0.005846-0.003369l0.010523 0.003025-5.5069e-4 0.001858c-7.5701e-4 0.003576-0.002065 0.007356-0.00791 0.005637l-4.1232e-4 0.00131 0.012996 0.003573 3.4452e-4 -0.001099c-0.004676-0.001719-0.004677-0.004884-0.003508-0.009079l5.5068e-4 -0.001853 0.008458 0.002268c0.00447 0.001306 0.005091 0.001649 0.003716 0.006394-0.00165 0.006602-0.003714 0.007702-0.01011 0.010178l3.4451e-4 0.00131 0.008458-9.63e-4 0.006603-0.023725-0.001514-5.5067e-4c-9.6201e-4 0.003576-0.002406 0.00399-0.007357 0.002683l-0.017811-0.004953c-0.004883-0.001444-0.006053-0.002405-0.004883-0.005981l-0.001514-4.1234e-4zm0.044359 0.003779-0.00172 0.010384 0.006052-0.004194zm-0.54052 0.003369-0.0037842 0.006258 0.0061903 0.003714zm0.025922 0.008873-0.0070828 0.005846 0.008252 0.02572 0.0092151 5.5069e-4 2.0888e-4 -0.001308c-0.0045388-7.56e-4 -0.0092177-0.003368-0.010593-0.007908-0.0011002-0.002957 0.0019271-0.003369 0.0041966-0.004126l0.018636-0.005984c0.0050199-0.001513 0.0063946-0.001308 0.0077013 0.002819l0.0014458-5.4797e-4 -0.0044706-0.013756-0.0015136 3.4452e-4 1.3835e-4 4.1232e-4 6.782e-5 3.4452e-4 6.782e-5 3.4451e-4 1.3835e-4 3.4452e-4v3.4179e-4l6.782e-5 2.767e-4 7.053e-5 2.7397e-4v7.5686e-4l-7.053e-5 2.0615e-4 -6.782e-5 2.7399e-4 -6.782e-5 2.0617e-4 -7.053e-5 2.0888e-4 -6.782e-5 1.3569e-4 -1.3835e-4 2.0617e-4 -1.3564e-4 2.0617e-4 -1.3835e-4 1.3833e-4 -2.0617e-4 2.0617e-4 -2.0616e-4 1.3834e-4 -2.0617e-4 1.3569e-4 -2.0617e-4 1.3834e-4 -2.767e-4 1.3833e-4 -2.7397e-4 2.0617e-4 -2.7399e-4 1.3833e-4 -3.4452e-4 1.3556e-4 -2.7669e-4 1.3833e-4 -4.1234e-4 1.3834e-4 -3.4452e-4 1.3569e-4 -4.1233e-4 1.3834e-4 -4.1234e-4 2.0615e-4 -4.8014e-4 1.3834e-4 -0.018775 0.005984c-0.0022695 7.5576e-4 -0.0047457 0.002131-0.0056396-8.9519e-4 -0.0015129-0.004539 7.5642e-4 -0.009421 0.0039199-0.012584zm0.40202 0.001828c-6.473e-5 1.958e-5 -1.5746e-4 7.097e-5 -2.8212e-4 1.6547e-4 -2.9042e-4 2.2031e-4 -8.4475e-4 7.7882e-4 -0.001573 0.001568l2.1158e-4 -5.43e-5 4.8287e-4 -1.3834e-4 4.1232e-4 -6.778e-5 3.4179e-4 -1.3833e-4h2.78e-6s4.3692e-4 -7.5195e-4 5.2084e-4 -0.001131c1.681e-5 -7.583e-5 2.042e-5 -1.3653e-4 2.78e-6 -1.7361e-4 -1.778e-5 -3.709e-5 -5.459e-5 -4.945e-5 -1.1984e-4 -3.011e-5zm0.10921 0.001541-0.002268 0.010384 0.006188-0.00399zm-0.53357 0.003231-0.0035753 0.006532 0.0066001 0.003578zm0.48241 0.011624-0.005295 0.01224 0.001375 7.5685e-4c0.001513-0.00337 0.002956-0.003577 0.007701-0.001514l0.008046 0.003578-0.001308 0.003025-0.019186 0.002062-0.003163 0.007153 0.001308 7.5685e-4c0.001513-0.003576 0.003027-0.003438 0.006603-0.003782l0.01279-0.001308c-0.001307 0.004333 1.3e-7 0.009558 0.004332 0.011621 0.00619 0.002682 0.01066-0.003026 0.012929-0.008046l0.005501-0.01279-0.001375-5.5068e-4c-0.001856 0.004264-0.004334 0.002958-0.00791 0.001308l-0.01671-0.00736c-0.004676-0.002063-0.005639-0.003162-0.004126-0.0066l-0.001511-5.5069e-4zm0.047038 5.5068e-4 -0.003025 0.010175 0.0066-0.003575zm-0.52512 0.003231-0.0030246 0.006738 0.0066001 0.003025zm0.053432 0.00303-0.0013753 6.8631e-4c0.0019256 0.003438 6.1809e-4 0.004333-0.0013075 0.00736l-0.0070828 0.010726c-0.0024757-0.003783-0.0073592-0.006189-0.011692-0.00392-0.0060517 0.002957-0.0045366 0.01011-0.0019233 0.014993l0.0062582 0.012446 0.001511-7.5684e-4c-0.0020632-0.004127 3.4376e-4 -0.005088 0.0037136-0.006944l0.016368-0.008323c0.0047452-0.002408 0.006051-0.002407 0.0077013 9.6301e-4l0.0013753-7.5684e-4 -0.006052-0.011827-0.0015136 7.5684e-4c0.0017192 0.003163 9.636e-4 0.004331-0.0035753 0.006738l-0.0079076 0.00399-0.0015136-0.003025 0.01059-0.016163-0.0035753-0.006945zm0.43799 0.008797 0.008458 0.003782c0.003438 0.001513 0.004744 0.00227 0.003231 0.005846-0.001719 0.003714-0.005637 0.006533-0.009969 0.004883-0.004882-0.00227-0.004884-0.008114-0.002821-0.01224zm0.028609 2.0889e-4 -0.003575 0.009763 0.006603-0.003163-0.003025-0.0066zm-0.5148 0.003022-0.002615 0.006947 0.0068088 0.002612-0.0041938-0.00956zm0.032579 0.006323c0.0034234 1.9337e-4 0.006325 0.003017 0.0077176 0.006266l0.0010987 0.002271-0.0084581 0.004264c-0.0031632 0.001512-0.0044682 0.002268-0.0063938-0.001308-0.0018567-0.003714-0.0017207-0.00846 0.0024739-0.010729 0.0012206-6.0176e-4 0.0024206-8.2944e-4 0.0035617-7.643e-4zm0.47617 0.005507-0.004126 0.00956 0.006944-0.002821zm-0.50249 0.003025-0.0022706 0.006947 0.0069445 0.002268zm0.057557 0.003578-0.0011692 8.9518e-4c5.5017e-4 0.00117 9.6327e-4 0.002062 5.5067e-4 0.003369-3.442e-4 0.00172-0.0028224 0.00509-0.0039225 0.006603l-0.015815 0.021799 0.0035753 0.003027 0.025786-0.008116c0.00337-8.9401e-4 0.007359-0.002201 0.00956 0.001169l0.001375-9.603e-4 -0.007012-0.009766-0.001308 9.6301e-4c0.001169 0.001513 0.002269 0.003714 4.1234e-4 0.005089-0.001168 6.87e-4 -0.004953 0.001856-0.006397 0.0022l-0.001717 6.1849e-4 -0.0069473-0.009834 0.0035753-0.004883c3.436e-4 -7.5701e-4 0.001308-0.002065 0.001858-0.002409 0.002063-0.001513 0.003369 0.001309 0.004538 0.002409l0.001101-8.9519e-4 -0.008046-0.011279zm0.38668 0.004267-7.5685e-4 0.001373 0.015611 0.021386c0.001306 0.001513 0.003576 0.004746 0.003714 0.006809 2.0601e-4 0.001307-5.5151e-4 0.002269-0.001101 0.003369l0.001305 9.63e-4 0.006605-0.009834-0.00131-8.9519e-4c-0.001169 0.001306-0.002269 0.003371-0.004126 0.002064-0.001169-7.5601e-4 -0.003231-0.003578-0.004194-0.004747l-0.010523-0.014233 0.019599 0.005225c8.9402e-4 2.0701e-4 0.002957 7.5689e-4 0.00392 0.001308 0.001719 0.001169 3.463e-4 0.003025-5.4796e-4 0.004332l0.001305 9.63e-4 0.008116-0.012034-0.001375-7.5686e-4c-6.8701e-4 0.0011-0.001648 0.002476-0.002818 0.003027-0.001307 5.4986e-4 -0.002823-5.3e-7 -0.004886-5.5067e-4zm0.051509 0.003434-0.004744 0.009353 0.007012-0.0022zm-0.48881 0.002957-0.001926 0.007151 0.0072212 0.001926zm0.046075 0.008119 0.0061877 0.008664-0.015953 0.004883zm0.43503 0.003022-0.005295 0.009009 0.007151-0.001855-0.001853-0.007151zm-0.05701 7.5685e-4 -0.008803 0.010316 0.001305 9.603e-4 2.0617e-4 -2.7399e-4 2.0615e-4 -2.0616e-4 2.767e-4 -2.7398e-4 2.0617e-4 -2.0617e-4 2.0617e-4 -1.3833e-4 3.445e-4 -3.445e-4 2.0617e-4 -1.3834e-4 2.0617e-4 -6.778e-5 2.0617e-4 -1.3833e-4 2.0615e-4 -6.778e-5 2.0617e-4 -6.778e-5h2.0617e-4l2.0616e-4 -7.055e-5h4.1233e-4l2.0617e-4 7.055e-5 2.0616e-4 6.778e-5h2.0616e-4l2.767e-4 1.3834e-4 2.0616e-4 6.777e-5 2.7399e-4 1.3834e-4 2.0616e-4 1.3555e-4 2.7669e-4 1.3834e-4 2.7399e-4 2.0617e-4 2.7398e-4 2.0617e-4 3.4451e-4 2.0615e-4 2.7399e-4 2.0617e-4 3.445e-4 2.767e-4 1.3834e-4 1.3569e-4 2.0617e-4 1.3834e-4 1.3833e-4 1.3833e-4 2.0617e-4 1.3833e-4 1.3833e-4 1.357e-4 2.0616e-4 2.0617e-4 -2.78e-6 2.78e-6 0.014097 0.011827c0.00392 0.00337 0.00454 0.004676 0.002064 0.007495l0.001169 0.001169 0.008803-0.010384-0.001308-0.001099c-0.002475 0.003025-0.003781 0.002613-0.007701-7.5684e-4l-0.014195-0.011847c-0.003989-0.003439-0.00454-0.004744-0.002064-0.007563l-0.001166-8.9519e-4zm-0.41625 0.002062-0.0014432 0.007289 0.0073569 0.001514zm0.46481 0.010729-0.00564 0.008803 0.007151-0.00172zm-0.45607 0.002818-0.0011692 0.007289 0.0073569 9.6301e-4zm0.065398 0.002205-8.9519e-4 0.001169 2.0617e-4 2.7399e-4 2.0616e-4 2.0617e-4 2.0617e-4 2.7397e-4 2.0617e-4 2.0617e-4 1.3835e-4 2.767e-4 1.3835e-4 2.0617e-4 1.3564e-4 2.0615e-4 1.3835e-4 2.0617e-4 6.782e-5 2.0617e-4 7.052e-5 2.7397e-4 6.782e-5 2.0889e-4v8.2466e-4l-6.782e-5 2.0616e-4 -7.052e-5 2.0617e-4 -6.782e-5 2.0616e-4 -6.782e-5 2.0617e-4 -1.3835e-4 2.0616e-4 -1.3835e-4 2.7398e-4 -1.3564e-4 2.0617e-4 -2.0617e-4 2.767e-4 -2.0888e-4 2.0615e-4 -2.0616e-4 2.7399e-4 -2.0617e-4 2.767e-4 -2.7399e-4 2.7397e-4 -2.7398e-4 2.767e-4 -2.7669e-4 2.7399e-4 -2.7399e-4 3.445e-4 -3.4452e-4 2.7399e-4 -3.4451e-4 3.4452e-4 -0.005846 0.00564-0.002819-0.003027c-0.004676-0.004883-0.010864-0.008458-0.01616-0.003369-0.0045384 0.004263-0.003025 0.009972 7.5684e-4 0.013892l0.011483 0.011689 0.001101-9.6029e-4c-0.002819-0.00282-0.002271-0.004128 0.001511-0.007704l0.013205-0.01279c0.003714-0.003783 0.005019-0.004127 0.007701-0.001308l0.001101-0.001099-0.009421-0.009834zm0.32657 0.004679c-0.003479 6.848e-5 -0.006934 0.001391-0.009823 0.004188-0.004539 0.004332-0.005088 0.01066-0.003025 0.016368l0.001166-2.0617e-4c-0.001169-0.004676-0.001167-0.009423 0.002409-0.012999 0.005845-0.005433 0.014717-0.001305 0.019393 0.003578 0.004333 0.004539 0.008664 0.01224 0.003025 0.017535-0.003232 0.003163-0.009421 0.003162-0.013547 0.002612l-5.5068e-4 0.001101 0.008252 0.003988c3.44e-4 -0.001169 7.5675e-4 -0.002132 0.001514-0.002818 7.56e-4 -8.2476e-4 0.001718-0.00117 0.002612-0.00172 0.001169-4.13e-4 0.002272-9.6127e-4 0.003372-0.002062 0.003438-0.00337 0.004193-0.008252 0.003231-0.012584-7.57e-4 -0.004332-0.002683-0.008253-0.00564-0.011486-0.003404-0.003598-0.007916-0.005584-0.012389-0.005496zm0.054891 0.003225-0.00619 0.008458 0.007289-0.001099zm-0.40041 0.001508c0.002841 6.528e-5 0.0055 0.002181 0.008078 0.004888l0.001305 0.001308-0.006806 0.006394c-0.002819 0.002683-0.004332 0.003989-0.007289 7.5685e-4 -0.00337-0.00337-0.004335-0.007287-6.2122e-4 -0.010932 0.001857-0.001753 0.003629-0.002453 0.005333-0.002415zm-0.037102 0.00131-6.8631e-4 0.007357 0.007289 5.5067e-4zm0.073373 0.006057-0.008114 0.00488 5.5068e-4 0.001099c0.007358-0.001651 0.009628-0.002406 0.015611 0.002271 0.003438 0.002613 0.003232 0.003781 9.63e-4 0.006738l-0.006741 0.008526-0.001511-0.001169c-0.003026-0.002064-0.006053-0.00488-0.002271-0.009625l-0.001099-6.8632e-4 -0.00832 0.010523 9.603e-4 9.6301e-4c0.00337-0.003989 0.00619-0.002682 0.009766 0l0.001514 0.001237-0.005434 0.007015c-0.00282 0.003507-0.003437 0.003918-0.007151 8.9248e-4 -0.005433-0.004126-0.00564-0.006395-0.00564-0.013341l-0.001308-2.0617e-4 -0.002268 0.008458 0.019322 0.015061 9.6301e-4 -0.00131c-0.003025-0.002269-0.002614-0.003575 4.1232e-4 -0.007701l0.011415-0.01451c0.003232-0.004126 0.004331-0.004673 0.007357-0.002403l9.6301e-4 -0.001169-0.019943-0.01554zm0.35417 0.003708-0.006809 0.00791 0.007359-5.5067e-4zm-0.41756 0.002683-1.3835e-4 0.007289 0.0074978 2.0616e-4zm0.34742 3.4451e-4 -0.020356 0.014649 0.002477 0.009421 0.001099-4.1505e-4c4.1301e-4 -0.007495 2.097e-4 -0.00997 0.006399-0.014439 0.003576-0.002407 0.00454-0.001858 0.006809 0.001099l0.006326 0.008873-0.001649 0.001099c-0.002819 0.002269-0.00619 0.004538-0.009766-3.4452e-4l-0.001169 7.5684e-4 0.008116 0.010867 9.603e-4 -7.5684e-4c-0.002682-0.004332-7.5736e-4 -0.00674 0.002819-0.009353l0.001717-0.001164 0.005021 0.007151c0.002682 0.003782 0.003026 0.004541-9.6301e-4 0.00736-0.005639 0.004126-0.00784 0.003573-0.014442 0.001647l-5.4797e-4 0.001169 0.007495 0.004674 0.019943-0.014439-8.9519e-4 -0.001373c-0.003026 0.002338-0.004331 0.001514-0.007357-0.002612l-0.010932-0.014854c-0.003026-0.004264-0.003164-0.00564-1.3833e-4 -0.00784l-9.6301e-4 -0.001169-2.78e-6 -2.78e-6zm0.059418 0.0088-0.007151 0.007566 0.007357-2.0617e-4zm-0.39593 0.002472 2.0556e-4 0.007361 0.0074959-2.0834e-4zm0.085605 0.008588c-0.005739 5.389e-5 -0.010923 0.003062-0.014361 0.009294-0.002613 0.004676-0.00337 0.009972-0.001101 0.014854 0.002476 0.004883 0.005845 0.006946 0.009215 0.009009l0.011279 0.00619 7.5413e-4 -0.001308c-0.003164-0.001856-0.003161-0.003368-7.5413e-4 -0.007908l0.009077-0.015956c0.002614-0.004539 0.003713-0.005225 0.006944-0.003575l7.5684e-4 -0.001308-0.011141-0.006258c-0.003584-0.002037-0.007226-0.003068-0.010669-0.003036zm0.29902 2.1431e-4 -0.007566 0.007153 0.00736 2.0617e-4 2.0615e-4 -0.007357zm-0.080323 0.001175c-2.0674e-4 9.6245e-4 -9.6486e-4 0.00206-0.001858 0.00261-0.001719 9.6201e-4 -0.004538 9.606e-4 -0.007151 0.002268-0.005089 0.00282-0.00736 0.008461-0.004541 0.013756 0.00337 0.006533 0.009628 0.005226 0.015611 0.004126 0.003369-7.5701e-4 0.008115-0.001307 0.009972 0.0022 0.001719 0.003232 5.4796e-4 0.00681-0.002615 0.008529-0.004195 0.0022-0.009214 1.3695e-4 -0.012996-0.001926l-9.63e-4 0.001166h2.77e-6l0.006603 0.005778c2.06e-4 -7.5701e-4 9.6068e-4 -0.001512 0.001717-0.001855 8.9401e-4 -3.4384e-4 0.001309-3.4166e-4 0.002409-5.4797e-4 0.001513-4.1242e-4 0.002474-4.1275e-4 0.003782-0.001169 0.005089-0.002819 0.006945-0.00784 0.004332-0.013135-0.006051-0.011071-0.020288 0.002818-0.025584-0.006741-0.00172-0.003576-4e-8 -0.007151 0.003163-0.00887 0.004333-0.002407 0.010178-3.4366e-4 0.01451 0.001514l9.6301e-4 -0.001099-0.007357-0.006603zm-0.21538 8.3823e-4c0.001824 5.264e-5 0.003772 6.0238e-4 0.005835 0.001771l3.418e-4 2.0617e-4 2.7669e-4 1.3834e-4 2.7398e-4 2.0615e-4 2.7669e-4 1.3833e-4 2.0617e-4 2.0617e-4 2.0617e-4 1.357e-4 2.0615e-4 2.0615e-4 1.357e-4 1.3834e-4 2.0888e-4 2.0616e-4 1.3569e-4 2.0617e-4 7.056e-5 1.3834e-4 1.3569e-4 2.0615e-4 7.056e-5 2.0617e-4 1.3556e-4 4.1234e-4v8.9518e-4l-6.778e-5 2.7398e-4v2.767e-4l-6.778e-5 2.7398e-4 -1.3833e-4 2.7398e-4 -6.778e-5 2.767e-4 -1.3834e-4 3.4451e-4 -1.3833e-4 2.7399e-4 -1.3834e-4 3.445e-4 -1.3569e-4 3.4181e-4 -2.0616e-4 4.1503e-4 -2.0616e-4 3.4181e-4 -2.0617e-4 4.1232e-4 -2.0616e-4 4.1505e-4 -0.009215 0.016572c-0.002407 0.004263-0.00344 0.004882-0.006947 0.002818-0.008527-0.004539-0.007701-0.012035-0.003575-0.019393 0.003095-0.005518 0.007466-0.009837 0.012939-0.009678zm-0.077445 2.5499e-4v2.78e-6l7.5956e-4 0.007357 0.007289-5.5067e-4zm0.3611 0.008323-0.007908 0.006741 0.007357 5.4796e-4zm-0.34886 0.0022 8.9519e-4 0.007357 0.007357-0.001099zm0.33628 0.007566-0.00832 0.00619 0.007357 0.001099zm-0.3237 0.002064 0.001514 0.007289 0.007289-0.001443zm0.11016 0.001305-3.4451e-4 0.001511c0.003369 7.57e-4 0.003784 0.00227 0.002615 0.007153l-0.003163 0.015611c-0.001513 0.007152 0.002407 0.011828 0.009353 0.013341 0.008115 0.00165 0.012788-0.001515 0.014507-0.00963l0.003027-0.014233c8.9402e-4 -0.005088 0.001858-0.006258 0.00564-0.005501l2.0617e-4 -0.001514-0.01059-0.0022-1.3833e-4 0.001443 2.7399e-4 7.055e-5 2.7668e-4 1.357e-4 2.7399e-4 7.056e-5 2.7669e-4 6.777e-5 2.7398e-4 1.3834e-4 2.0617e-4 6.778e-5 2.0617e-4 1.3833e-4 2.0616e-4 6.778e-5 1.3834e-4 1.3833e-4 2.0615e-4 1.3834e-4 1.3834e-4 1.3569e-4 1.3569e-4 2.0617e-4 7.056e-5 1.3834e-4 1.3569e-4 1.3833e-4 7.056e-5 2.0617e-4 6.778e-5 2.0617e-4 7.055e-5 2.0617e-4 6.778e-5 2.7397e-4 6.778e-5 2.0617e-4v0.0014459l-6.778e-5 3.445e-4v3.4181e-4l-6.778e-5 3.445e-4 -7.055e-5 4.1234e-4 -6.778e-5 4.1232e-4 -7.056e-5 4.1234e-4 -1.3569e-4 4.1505e-4 -7.056e-5 4.8014e-4h2.78e-6l-0.002615 0.012446c-0.001307 0.006189-0.003371 0.011829-0.010935 0.01011-0.007359-0.001513-0.007358-0.007152-0.005981-0.013341l0.002819-0.012793c8.94e-4 -0.005089 0.001858-0.006187 0.00564-0.005431l3.445e-4 -0.001514zm0.083898 0.002062-0.004126 0.00172-0.00564 0.02627c-5.5e-4 0.003438-0.001512 0.007564-0.005501 0.007908l2.767e-4 0.00172 0.012034-0.001514-2.0616e-4 -0.001514c-0.002064 2.07e-4 -0.004539 2.0821e-4 -0.004677-0.002268-2.07e-4 -0.001307 6.886e-4 -0.005019 0.001101-0.006532l3.4181e-4 -0.00172 0.011898-0.001514 0.002612 0.005434c3.44e-4 7.5701e-4 9.6388e-4 0.002271 0.001101 0.003027 2.06e-4 0.002475-0.002819 0.002268-0.004332 0.002612l2.0616e-4 0.001514 0.013753-0.001652-2.0616e-4 -0.001511c-0.0011 0-0.002269-2.0643e-4 -0.003163-9.6301e-4 -0.001375-0.0011-0.003025-0.004884-0.003988-0.006741l-0.011486-0.024274v-2.78e-6zm-0.10886 0.001858c-0.002063 0-0.003575 0.001718-0.003575 0.003781s0.001512 0.003578 0.003575 0.003578h3.4451e-4l2.0616e-4 -7.056e-5h2.0616e-4l1.3833e-4 -6.778e-5h2.0617e-4l2.0617e-4 -7.055e-5 1.357e-4 -6.778e-5 1.3833e-4 -6.778e-5 2.0617e-4 -7.056e-5 1.3833e-4 -6.778e-5 1.3834e-4 -1.3833e-4 1.3569e-4 -6.778e-5 1.3834e-4 -6.778e-5 1.3833e-4 -1.3833e-4 1.357e-4 -1.3834e-4 1.3833e-4 -6.777e-5 2.7667e-4 -2.7667e-4 6.778e-5 -1.357e-4 6.778e-5 -1.3833e-4 1.3833e-4 -2.0617e-4 6.778e-5 -1.3834e-4 7.056e-5 -1.3555e-4 6.777e-5 -2.0617e-4 6.778e-5 -1.3833e-4 7.056e-5 -2.0617e-4v-1.3834e-4l6.778e-5 -2.0615e-4v-5.4604e-4c0-0.002063-0.001651-0.003781-0.003714-0.003781zm0.14635 0c-5.3301e-4 0-0.001037 1.0764e-4 -0.001492 3.011e-4 -0.001136 4.8349e-4 -0.00197 0.001504-0.002216 0.002726-4.93e-5 2.4444e-4 -7.597e-5 4.9626e-4 -7.597e-5 7.5414e-4 0 2.5787e-4 2.667e-5 5.0717e-4 7.597e-5 7.4599e-4 4.931e-5 2.3882e-4 1.2306e-4 4.6763e-4 2.1702e-4 6.836e-4 9.403e-5 2.1597e-4 2.0765e-4 4.2096e-4 3.4181e-4 6.1035e-4 1.3416e-4 1.8938e-4 2.8869e-4 3.6452e-4 4.5844e-4 5.2356e-4 1.6976e-4 1.5903e-4 3.553e-4 3.0096e-4 5.5611e-4 4.2589e-4 2.0076e-4 1.2487e-4 4.1565e-4 2.3035e-4 6.429e-4 3.1738e-4 2.2726e-4 8.709e-5 4.6699e-4 1.5534e-4 7.1615e-4 2.0074e-4 2.4829e-4 4.528e-5 5.0761e-4 7.042e-5 7.7312e-4 7.056e-5h3.445e-4l2.0617e-4 -7.056e-5h1.3833e-4l2.0616e-4 -6.778e-5h2.0616e-4l1.3834e-4 -7.055e-5 2.0617e-4 -6.778e-5 1.3833e-4 -6.778e-5 2.0616e-4 -7.056e-5 1.3569e-4 -6.778e-5 1.3834e-4 -1.3833e-4 1.3833e-4 -6.778e-5 1.357e-4 -6.778e-5 1.3833e-4 -1.3833e-4 1.3833e-4 -1.3834e-4 1.3834e-4 -6.777e-5 1.3569e-4 -1.3834e-4 6.778e-5 -1.3833e-4 1.3834e-4 -1.357e-4 7.055e-5 -1.3833e-4 1.357e-4 -2.0617e-4 7.056e-5 -1.3834e-4 6.777e-5 -1.3555e-4 6.778e-5 -2.0617e-4 7.056e-5 -1.3833e-4v-2.0617e-4l6.778e-5 -1.3834e-4 6.777e-5 -2.0615e-4v-5.4628e-4c0-0.002063-0.001649-0.003779-0.003711-0.003779v-2.78e-6zm-0.073378 0.001375c-0.005846 1.3695e-4 -0.009969 0.003923-0.009763 0.009768 1.375e-4 0.012584 0.019322 0.006739 0.019529 0.017674 0 0.003919-0.003368 0.006394-0.006945 0.006394-0.004882 1.3694e-4 -0.009217-0.004334-0.012036-0.008116l-0.001511 7.5684e-4 0.003575 0.009012c7.5601e-4 -5.5042e-4 0.001855-0.001308 0.002819-0.001308 0.001857 0 0.004469 0.001307 0.007495 0.001169 0.005846 0 0.010384-0.004195 0.010384-0.010178-2.0591e-4 -0.007358-0.006188-0.008869-0.01224-0.010726-0.003233-9.6301e-4 -0.007701-0.002477-0.007701-0.006603 0-0.00337 0.002612-0.00619 0.006188-0.00619 0.004676-2.06e-4 0.008253 0.003991 0.010729 0.007498l0.001308-5.5067e-4 -0.003233-0.008252c-5.5e-4 5.4992e-4 -0.001443 9.63e-4 -0.002406 9.63e-4 -9.6301e-4 0-0.001307-2.059e-4 -0.002477-6.1849e-4 -0.001512-3.4394e-4 -0.002201-6.8903e-4 -0.003714-6.8903e-4v-2.78e-6zm0.15232 5.5069e-4 -0.008664 0.005642 0.007357 0.001514 0.001308-0.007153v-2.78e-6zm-0.11884 0.001649 0.006945 0.015061-0.01052 0.001308 0.003575-0.016368zm-0.17832 2.0615e-4 0.001858 0.007153 0.007151-0.001858zm0.2836 0.006397-0.009009 0.005295 0.007151 0.001858zm-0.26992 0.00172 0.002271 0.007151 0.007012-0.002474zm0.25582 0.005775-0.009421 0.004747 0.007151 0.002268zm-0.24165 0.00172 0.002821 0.006738 0.006738-0.002818zm0.22714 0.004883-0.00956 0.004126 0.006738 0.002821zm-0.2125 0.001514 0.003025 0.006738 0.006741-0.003163zm0.19764 0.004332-0.009766 0.003575 0.006603 0.003163zm-0.18278 0.001308 0.003573 0.0066 0.006394-0.003573zm0.16758 0.003782-0.009969 0.002957 0.006394 0.003437zm-0.15232 0.001099 0.00392 0.00619 0.006188-0.00392-0.010107-0.002271zm0.13692 0.002821-0.010178 0.002474 0.006188 0.00392zm-0.12131 9.6301e-4 0.004126 0.005981 0.00619-0.004126zm0.1057 0.002268-0.010384 0.001858 0.006052 0.004126zm-0.090085 7.5684e-4 0.004677 0.005778 0.005637-0.004468zm0.074064 0.001443-0.010384 0.001375 0.005914 0.00447 0.004471-0.005846zm-0.058112 6.2121e-4 0.004883 0.005431 0.005434-0.004883zm0.042293 7.5413e-4 -0.010523 5.5067e-4 0.00564 0.004883 0.004883-0.005431zm-0.026475 3.445e-4 0.005227 0.005295 0.005295-0.005295z" fill="#185494" fill-opacity=".99216" stroke-width=".0013889"/>
 </g>
</svg>