<?xml version="1.0" encoding="UTF-8"?>
<svg id="Layer_1" data-name="Layer 1" xmlns="http://www.w3.org/2000/svg" viewBox="0 0 227.32 43.94">
  <defs>
    <style>
      .cls-1 {
        fill: #025fa3;
      }

      .cls-2 {
        fill: #0760a4;
      }
    </style>
  </defs>
  <g>
    <path class="cls-1" d="M56.58,22.33h2.12v5.47h2.26v-5.47h2.1v13.43h-2.12v-6.04h-2.26v6.04h-2.12v-13.43h.02Z"/>
    <path class="cls-1" d="M64.63,22.33h5.75v1.92h-3.65v3.55h2.89v1.92h-2.89v4.12h3.65v1.92h-5.75v-13.43Z"/>
    <path class="cls-1" d="M73.24,22.33h2.87l2.18,13.43h-2.12l-.38-2.67v.04h-2.4l-.38,2.62h-1.96l2.2-13.43ZM75.54,31.3l-.95-6.64h-.04l-.93,6.64h1.92Z"/>
    <path class="cls-1" d="M79.29,22.33h2.1v11.51h3.47v1.92h-5.57v-13.43Z"/>
    <path class="cls-1" d="M86.04,24.25h-2.2v-1.92h6.52v1.92h-2.2v11.51h-2.12v-11.51Z"/>
    <path class="cls-1" d="M91.37,22.33h2.12v5.47h2.26v-5.47h2.12v13.43h-2.12v-6.04h-2.26v6.04h-2.12v-13.43Z"/>
    <path class="cls-1" d="M104.13,22.33h2.87l2.18,13.43h-2.12l-.38-2.67v.04h-2.4l-.38,2.62h-1.96l2.2-13.43ZM106.43,31.3l-.95-6.64h-.02l-.93,6.64h1.9Z"/>
    <path class="cls-1" d="M110.19,22.33h2.65l2.06,8.04h.04v-8.04h1.88v13.43h-2.16l-2.52-9.79h-.04v9.79h-1.88v-13.43h-.02Z"/>
    <path class="cls-1" d="M118.38,22.33h3.23c2.12,0,3.15,1.17,3.15,3.31v6.78c0,2.14-1.03,3.31-3.15,3.31h-3.23v-13.41ZM121.57,33.84c.67,0,1.07-.34,1.07-1.31v-6.99c0-.97-.4-1.31-1.07-1.31h-1.07v9.59h1.07v.02Z"/>
    <path class="cls-1" d="M129.25,22.33h2.1v5.47h2.26v-5.47h2.1v13.43h-2.1v-6.04h-2.26v6.04h-2.1v-13.43Z"/>
    <path class="cls-1" d="M137.22,32.57v-10.24h2.12v10.4c0,.97.4,1.31,1.07,1.31s1.07-.34,1.07-1.31v-10.4h2.04v10.24c0,2.14-1.07,3.37-3.15,3.37s-3.15-1.23-3.15-3.37Z"/>
    <path class="cls-1" d="M145,22.33h3.01l1.35,9.61h.04l1.35-9.61h3.01v13.43h-2v-10.18h-.04l-1.53,10.18h-1.76l-1.53-10.18h-.04v10.18h-1.84v-13.43h-.02Z"/>
    <path class="cls-1" d="M156.95,22.33h2.87l2.18,13.43h-2.12l-.38-2.67v.04h-2.4l-.38,2.62h-1.96l2.2-13.43ZM159.25,31.3l-.95-6.64h-.04l-.91,6.64h1.9Z"/>
    <path class="cls-1" d="M163.03,22.33h2.65l2.06,8.04h.04v-8.04h1.88v13.43h-2.16l-2.52-9.79h-.04v9.79h-1.88v-13.43h-.02Z"/>
    <path class="cls-1" d="M173.91,32.57v-.77h2v.93c0,.97.42,1.31,1.09,1.31s1.09-.34,1.09-1.33c0-1.11-.42-1.82-1.8-3.03-1.76-1.55-2.34-2.65-2.34-4.18,0-2.12,1.09-3.33,3.15-3.33s3.07,1.23,3.07,3.37v.57h-2v-.69c0-.97-.38-1.33-1.05-1.33s-1.05.36-1.05,1.29.44,1.7,1.82,2.89c1.76,1.55,2.32,2.62,2.32,4.3,0,2.18-1.11,3.41-3.19,3.41-2.08-.04-3.11-1.27-3.11-3.41Z"/>
    <path class="cls-1" d="M181.42,22.33h5.75v1.92h-3.65v3.55h2.89v1.92h-2.89v4.12h3.65v1.92h-5.75v-13.43Z"/>
    <path class="cls-1" d="M188.37,22.33h3.13c2.18,0,3.13,1.01,3.13,3.09v.83c0,1.37-.44,2.26-1.37,2.65v.04c1.05.32,1.39,1.33,1.39,2.85v2.34c0,.65.02,1.13.22,1.64h-2.14c-.12-.34-.18-.57-.18-1.66v-2.46c0-1.25-.36-1.66-1.33-1.66h-.73v5.75h-2.1v-13.41h-.02ZM191.26,28.09c.79,0,1.27-.34,1.27-1.41v-1.03c0-.97-.32-1.37-1.07-1.37h-.97v3.84h.77v-.02Z"/>
    <path class="cls-1" d="M195.48,22.33h2.12l1.37,10.42h.04l1.37-10.42h1.94l-2.04,13.43h-2.81l-2-13.43Z"/>
    <path class="cls-1" d="M203.35,22.33h2.12v13.43h-2.12v-13.43Z"/>
    <path class="cls-1" d="M206.9,32.65v-7.21c0-2.08,1.07-3.29,3.11-3.29s3.11,1.23,3.11,3.29v1.41h-2v-1.55c0-.89-.42-1.25-1.05-1.25s-1.05.36-1.05,1.25v7.49c0,.89.42,1.23,1.05,1.23s1.05-.34,1.05-1.23v-2.06h2v1.9c0,2.08-1.07,3.29-3.11,3.29s-3.11-1.21-3.11-3.27Z"/>
    <path class="cls-1" d="M214.4,22.33h5.75v1.92h-3.65v3.55h2.89v1.92h-2.89v4.12h3.65v1.92h-5.75v-13.43Z"/>
    <path class="cls-1" d="M221.02,32.57v-.77h2v.93c0,.97.42,1.31,1.09,1.31s1.09-.34,1.09-1.33c0-1.11-.42-1.82-1.8-3.03-1.76-1.55-2.34-2.65-2.34-4.18,0-2.12,1.09-3.33,3.15-3.33s3.07,1.23,3.07,3.37v.57h-2v-.69c0-.97-.38-1.33-1.05-1.33s-1.05.36-1.05,1.29.44,1.7,1.82,2.89c1.76,1.55,2.32,2.62,2.32,4.3,0,2.18-1.11,3.41-3.19,3.41-2.06-.04-3.11-1.27-3.11-3.41Z"/>
  </g>
  <g>
    <path class="cls-1" d="M56.5,9.79h1.17v3.96c0,1.05.59,1.74,1.7,1.74s1.68-.69,1.68-1.74v-3.96h1.17v3.98c0,1.64-.95,2.73-2.85,2.73s-2.87-1.09-2.87-2.73v-3.98h0Z"/>
    <path class="cls-1" d="M63.83,15.1c.38,0,.69.32.69.69s-.32.69-.69.69-.69-.32-.69-.69.3-.69.69-.69Z"/>
    <path class="cls-1" d="M65.97,14.56c.46.48,1.17.91,2.08.91s1.33-.46,1.33-.91c0-.59-.71-.77-1.49-.99-1.07-.26-2.34-.59-2.34-1.98,0-1.09.97-1.94,2.4-1.94,1.03,0,1.86.32,2.46.93l-.67.87c-.5-.5-1.21-.75-1.92-.75s-1.11.32-1.11.83.67.69,1.45.89c1.09.28,2.38.61,2.38,2.04,0,1.09-.77,2.04-2.54,2.04-1.21,0-2.1-.42-2.69-1.05l.65-.89Z"/>
    <path class="cls-1" d="M72.12,15.1c.38,0,.69.32.69.69s-.32.69-.69.69-.69-.32-.69-.69.32-.69.69-.69Z"/>
    <path class="cls-1" d="M76.59,16.4v-6.6h2.46c2.06,0,3.45,1.37,3.45,3.31s-1.39,3.29-3.45,3.29h-2.46ZM77.74,15.37h1.29c1.43,0,2.26-1.03,2.26-2.28s-.79-2.28-2.26-2.28h-1.29v4.56Z"/>
    <path class="cls-1" d="M83.61,16.4v-6.6h4.52v1.01h-3.37v1.72h3.29v1.01h-3.29v1.84h3.37v1.01h-4.52v.02Z"/>
    <path class="cls-1" d="M89.33,16.4v-6.6h2.91c1.39,0,2.16.95,2.16,2.06s-.79,2.06-2.16,2.06h-1.74v2.46h-1.17v.02ZM92.05,10.8h-1.57v2.1h1.57c.65,0,1.13-.42,1.13-1.05s-.46-1.05-1.13-1.05Z"/>
    <path class="cls-1" d="M99.26,16.4l-.48-1.27h-3.13l-.48,1.27h-1.27l2.58-6.6h1.45l2.58,6.6h-1.25ZM97.22,10.76l-1.23,3.33h2.46l-1.23-3.33Z"/>
    <path class="cls-1" d="M105.02,16.4l-1.45-2.46h-1.15v2.46h-1.15v-6.6h2.91c1.31,0,2.16.85,2.16,2.06s-.77,1.82-1.55,1.94l1.62,2.58h-1.37v.02ZM103.99,10.8h-1.57v2.1h1.57c.65,0,1.13-.42,1.13-1.05s-.46-1.05-1.13-1.05Z"/>
    <path class="cls-1" d="M108.93,16.4v-5.59h-2v-1.01h5.15v1.01h-1.98v5.57h-1.17v.02Z"/>
    <path class="cls-1" d="M118.77,16.4v-5.01l-2.02,4.99h-.5l-2.02-4.99v4.99h-1.15v-6.58h1.64l1.8,4.44,1.8-4.44h1.64v6.6h-1.17Z"/>
    <path class="cls-1" d="M121.33,16.4v-6.6h4.52v1.01h-3.37v1.72h3.29v1.01h-3.29v1.84h3.37v1.01h-4.52v.02Z"/>
    <path class="cls-1" d="M131.65,16.4l-3.43-4.81v4.81h-1.15v-6.6h1.19l3.37,4.68v-4.68h1.15v6.6h-1.13Z"/>
    <path class="cls-1" d="M135.75,16.4v-5.59h-2v-1.01h5.15v1.01h-2v5.57h-1.15v.02Z"/>
    <path class="cls-1" d="M145.5,9.67c1.98,0,3.37,1.45,3.37,3.41s-1.39,3.41-3.37,3.41-3.37-1.45-3.37-3.41,1.39-3.41,3.37-3.41ZM145.5,10.7c-1.33,0-2.18,1.01-2.18,2.38s.85,2.38,2.18,2.38,2.18-1.03,2.18-2.38-.85-2.38-2.18-2.38Z"/>
    <path class="cls-1" d="M149.98,16.4v-6.6h4.52v1.01h-3.37v1.72h3.29v1.01h-3.29v2.85h-1.15v.02Z"/>
  </g>
  <g>
    <g>
      <g>
        <path class="cls-2" d="M39.19,7.29c.08,1.51-1.13,2.44-2.04,3.33l-9.29,7.83c-.83.79-2.04,1.41-2.5,2.58-.63,1.53-.85,3.25-1.11,4.95-.14,1.23-1.29,2.3-2.36,2.75-.83.28-1.82.16-2.73.22l-3.25.02c-.28.06-.5.2-.65.42l-.12.32c-.34.06-.24-.24-.28-.46,0-.71.16-1.45.69-1.88.28-.28.67-.36,1.07-.42l4.72-.06c.26-.02.48-.16.65-.3l.18-.36c.38-2.36.59-4.79,1.76-6.8,1.09-1.27,2.46-2.14,3.67-3.25,2.81-2.38,5.71-4.81,8.48-7.21.79-.75,1.62-1.72,1.82-2.89l.1-.32c.63.2,1.15.83,1.19,1.53"/>
        <path class="cls-2" d="M41.92,9.95c.14,1.47-1.01,2.16-1.94,3.07l-3.8,3.25-6.74,5.73c-.95,1.07-1.01,2.6-1.25,3.98.04.44.48.63.4,1.11l-.93,1.7c.06.67.87.28,1.13.71,0,.24-.16.55.04.75.14.22.67-.08.38.28-.08.06-.04.2-.02.28.12.14.32.16.34.38-.1.28-.1.67.06.91,1.17,1.27,3.19-.3,4.4.89.3.26.3.79.22,1.15-.65,1.92-4.5,2.06-3.19,4.77.22.44.75.75,1.25.77.44.06.77-.12,1.13-.22.12,0,.12.1.16.16v.08c-1.11.79-2.54,1.96-4.04,1.11-.73-.46-1.11-1.43-.93-2.38.44-1.49,2.18-1.88,3.05-3.13.2-.36.16-.85-.04-1.21-.28-.48-.91-.63-1.47-.73-.93-.02-2.34.57-2.77-.52-.12-.42.3-1.15-.36-1.25-.08-.12-.3-.22-.18-.4.04-.1.22-.12.12-.26-.14-.04-.3,0-.4-.12-.38-.4.67-.85-.04-1.13-.36-.04-.83.22-1.07-.18-.12-.38.18-.65.32-.97.24-.52.93-.89.75-1.57l-.34-.59c.1-1.37.32-2.71.67-3.98.46-1.43,1.84-2.22,2.91-3.21l5.65-4.79,4-3.53c.69-.65,1.29-1.37,1.27-2.34.22-.08.36.18.55.26.32.42.63.71.71,1.19"/>
      </g>
      <g>
        <path class="cls-2" d="M40.38,17.06c-.75,1.19-2,2.08-3.09,3.03l-4.34,3.63c-.81.73-1.01,1.98-.65,2.95.04.48-.34.81-.46,1.23.02.12.04.28.16.32.18.08.46-.02.57.22.02.26-.08.52.18.63.1.06.28-.14.28.06-.06.12-.12.22-.1.36.14.26.44.12.59.32.06.3.06.67.38.79,1.13.18,1.98-.57,3.01-.79,1.62-.5,3.17.12,4.6.55.71.12,1.51.08,2.22,0l.06.04c-.91,1.11-2.04,2.2-3.63,2.1-1.68-.06-2.77-1.64-4.56-1.33-1.21.24-2.44.97-3.74.48-.34-.26-.46-.75-.34-1.23-.06-.28-.77-.36-.32-.75-.14-.08-.36,0-.44-.2-.1-.22.18-.57-.12-.73-.26-.04-.63.1-.83-.12-.1-.14-.08-.34-.04-.5.2-.46.71-.83.61-1.37-.34-.32-.24-.89-.18-1.35.2-1.07.28-2.2,1.27-2.91l5.35-4.52c1.13-1.07,2.52-1.78,3.33-3.19.38.65.59,1.6.24,2.28"/>
        <path class="cls-2" d="M24.05,32.89c1.51.65,3.11,1.27,4.46,2.18.34.26.65.69.57,1.19-.46,1.92-3.15,2.12-2.75,4.4.12.85.67,1.57,1.49,1.82.38.1.87.1,1.25,0,.06.14.32.28.02.38-1.09.71-2.5,1.49-3.84.81-.65-.3-1.03-1.01-1.21-1.7-.26-2.06,1.64-2.71,2.6-4.08.14-.26.22-.59.14-.91-.18-.38-.46-.63-.83-.85-3.59-2.02-7.51-3.37-11.55-4.42-.67-.06-1.7-.44-2.14.32v.04c-.36.08-.22-.36-.22-.55.12-.65.48-1.19,1.11-1.45,1.05-.3,2.16.06,3.17.24,2.62.71,5.21,1.53,7.71,2.56"/>
      </g>
    </g>
    <g>
      <path class="cls-2" d="M23.18,41.29c-.32.02-.34.04-.34.12-.02.1,0,.34,0,.81.02.46.02.69.02.81q.02.08.34.1v.12l-1.01.02c-.42.02-.61-.08-.81-.26-.18-.16-.3-.42-.3-.75,0-.52.3-1.05,1.11-1.07l.97-.02.02.12ZM22.47,41.45c0-.12-.02-.12-.22-.12-.57.02-.81.28-.79.93.02.65.26.89.83.89.2,0,.22-.02.22-.08l-.04-1.62Z"/>
      <path class="cls-2" d="M20.9,41.33c-.28,0-.3,0-.3.08-.02.1-.04.34-.08.81-.04.46-.06.69-.06.79,0,.08.02.1.28.14v.12l-1.11-.1c-.16-.02-.34-.02-.46,0v-.57l.14-.02c.04.38.1.44.52.46l.26.02s.06-.02.06-.06l.06-.69s0-.06-.1-.06h-.08c-.32-.04-.34.02-.38.22h-.12c.02-.1.02-.2.04-.34,0-.12.02-.24.02-.34l.14.02c0,.22.04.26.26.28l.2.02s.06-.02.06-.04l.06-.75s-.02-.06-.04-.06l-.5-.04c-.24-.02-.3.04-.38.22l-.08.2-.14-.04c.06-.16.12-.44.12-.57l1.68.14-.06.14Z"/>
      <path class="cls-2" d="M18.98,41.17c-.3-.04-.32-.02-.34.04-.02.1-.08.34-.16.79-.08.46-.12.69-.14.79,0,.08.02.1.3.18l-.02.12-1.07-.2c-.22-.04-.38-.12-.48-.26-.1-.1-.14-.24-.1-.4.08-.4.46-.52.99-.42.08.02.16.04.2.04l.12-.71c.02-.08-.02-.1-.34-.18l.02-.12,1.05.2-.02.14ZM18.13,42s-.1-.02-.14-.04c-.3-.06-.57-.06-.65.34-.06.36.16.46.48.52.14.02.14,0,.16-.04l.14-.79Z"/>
      <path class="cls-2" d="M17.39,40.89c-.24-.04-.28.02-.44.22l-.85,1.11c-.14.18-.18.24-.24.32l-.16-.04c.02-.1,0-.26,0-.36l-.18-1.55c-.02-.2-.04-.24-.28-.3l.04-.12.99.28-.04.12c-.28-.06-.32-.04-.34.02s.02.42.02.44.02.02.04.04c.08.02.22.08.5.16.18.06.2.04.24-.02.12-.16.2-.3.22-.32.02-.1,0-.12-.26-.22l.04-.12.77.22-.06.12ZM15.95,41.25h-.04v.06l.08.79.48-.65s.02-.02.02-.04,0-.02-.02-.02l-.52-.14Z"/>
      <path class="cls-2" d="M15.16,40.26c-.28-.08-.3-.08-.34-.02-.06.08-.14.3-.32.73s-.26.65-.28.75c-.02.08,0,.1.24.22l-.04.12-1.03-.42c-.22-.08-.3-.16-.38-.28-.08-.12-.1-.26-.02-.42.16-.4.63-.3.65-.32v-.08l-.2-.77c-.04-.2-.06-.24-.2-.28l.04-.12.46.18.24,1.11s.02.06.14.1c.1.04.12.04.12.02.2-.5.24-.57.26-.65.02-.08.02-.1-.24-.22l.04-.12.91.38-.04.1ZM14.15,40.99q.02-.06-.16-.14c-.4-.16-.59.04-.65.18-.1.22.02.44.3.57.18.08.2.08.24,0l.26-.61Z"/>
      <path class="cls-2" d="M13.06,39.35c-.3-.14-.32-.14-.36-.06-.04.06-.08.14-.16.3l-.63,1.21.3.16c.08.04.16,0,.42-.26l.12.08c-.08.1-.18.22-.3.46-.04-.04-.1-.06-.14-.1s-.1-.06-.14-.08l-.91-.46c-.1-.06-.22-.1-.32-.14.12-.24.18-.4.2-.52l.14.04c-.06.36-.06.46.04.5l.3.16.63-1.21c.08-.16.12-.24.14-.3.02-.08.02-.1-.26-.26l.06-.12.95.48-.08.12Z"/>
      <path class="cls-2" d="M11.71,38.69c-.28-.16-.3-.16-.34-.1-.06.08-.2.28-.46.65-.26.38-.38.59-.44.67-.04.08-.02.1.22.28l-.08.1-.67-.44s.02-.06.04-.08l.42-1.6h0l-1.41,1.03-.65-.44.08-.1c.28.16.3.16.34.1.06-.08.2-.28.46-.67.26-.38.4-.59.44-.67.04-.06.04-.08-.22-.28l.06-.1.87.59-.06.1c-.26-.16-.3-.16-.34-.1l-.93,1.37h0l1.45-1.05s.08-.06.12-.1l.18.12s-.04.08-.04.12l-.46,1.76h0l.79-1.15c.06-.08.12-.2.14-.24.04-.08.02-.08-.2-.26l.08-.1.67.48-.06.12Z"/>
      <path class="cls-2" d="M9.41,37.07c-.22-.16-.24-.16-.3-.12-.08.06-.24.24-.52.61-.3.34-.46.52-.52.61-.04.06-.04.08.16.28l-.08.1-.85-.75c-.12-.1-.26-.2-.38-.28.1-.1.3-.38.32-.46l.1.06c-.18.34-.16.42.14.69l.2.18s.04.02.08,0l.44-.5s.02-.04-.04-.1l-.06-.06c-.24-.22-.3-.18-.44-.06l-.1-.08c.06-.08.14-.14.22-.24.08-.08.16-.2.22-.26l.1.08c-.14.18-.14.24.04.38l.14.14s.06.02.08,0l.5-.57s.02-.06,0-.08l-.38-.32c-.18-.16-.26-.14-.44-.04l-.18.12-.08-.12c.14-.1.34-.28.44-.38l1.25,1.11-.06.08Z"/>
      <path class="cls-2" d="M7.98,35.82c-.2-.2-.22-.2-.3-.16-.08.06-.26.22-.61.55-.34.3-.5.48-.59.55-.06.06-.04.08.12.3l-.1.08-.42-.44s.02-.08.04-.16l.36-1.62h0l-.34.32c-.34.32-.5.46-.59.55-.06.06-.04.08.16.32l-.1.08-.57-.61.1-.08c.18.2.22.2.34.1s.26-.22.38-.34c.42-.4.77-.73.93-.91l.14.16c-.08.24-.14.44-.2.71l-.26,1.25h0l.44-.4c.34-.3.5-.46.59-.55.04-.06.04-.08-.18-.36l.1-.08.61.65-.06.1Z"/>
      <path class="cls-2" d="M6.22,33.86c-.2-.24-.22-.24-.3-.22-.06.04-.14.1-.28.2l-1.09.83.2.26c.06.08.16.06.5-.04l.06.12c-.12.04-.26.14-.48.28-.04-.04-.06-.1-.08-.16-.04-.04-.06-.1-.1-.14l-.61-.83c-.08-.1-.16-.18-.24-.26.22-.18.34-.28.42-.38l.1.08c-.2.3-.24.38-.18.48l.2.26,1.11-.83c.14-.1.22-.18.26-.22.06-.06.06-.08-.12-.34l.1-.08.65.85-.12.14Z"/>
      <path class="cls-2" d="M2.5,31.78c-.26-.48-.08-1.07.5-1.37.57-.3,1.15-.14,1.41.34.26.48.06,1.07-.5,1.37-.57.3-1.17.14-1.41-.34M4.3,30.83c-.14-.28-.55-.38-1.11-.08-.57.3-.71.69-.57.97.14.28.55.38,1.11.08.57-.3.71-.69.57-.97"/>
      <path class="cls-2" d="M3.74,29.78c-.12-.24-.14-.26-.22-.24-.1.02-.32.12-.75.28-.42.16-.65.26-.75.32-.08.04-.08.06,0,.32l-.1.04-.42-1.03c-.06-.16-.14-.3-.2-.42.12-.06.44-.2.5-.26l.06.1c-.32.22-.34.3-.18.69l.1.24s.04.04.08.02l.63-.26s.04-.02.02-.1l-.04-.08c-.12-.3-.18-.3-.38-.24l-.04-.12c.08-.04.18-.06.3-.12.12-.04.24-.1.3-.12l.06.12c-.2.1-.22.16-.14.36l.08.18s.02.04.08.04l.67-.26c.08-.02.08-.06-.04-.36l.12-.04.36.91-.1.04Z"/>
      <path class="cls-2" d="M2.79,27.3c-.08-.3-.1-.3-.18-.3-.1.02-.32.06-.79.16-.44.1-.69.16-.77.2-.08.02-.08.04-.02.34l-.16.04-.24-1.01.12-.04c.08.3.1.3.18.3.06,0,.24-.04.38-.08l.18-.04c.08-.02.1-.04.08-.1l-.18-.77c-.02-.08-.04-.08-.12-.06l-.2.04c-.14.04-.3.08-.36.1q-.08.04-.04.34l-.12.02-.24-1.01h.16c.08.28.1.3.18.3.1-.02.34-.06.79-.16s.69-.16.79-.2c.08-.02.08-.04.04-.34l.12-.02.24,1.01-.12.04c-.08-.3-.1-.3-.18-.3s-.32.06-.67.14c-.08.02-.1.02-.08.1l.18.77q.02.08.12.06c.34-.08.57-.14.65-.16s.08-.04.04-.34l.12-.02.24,1.01-.14-.02Z"/>
      <path class="cls-2" d="M2.24,24.92q-.06-.28-.14-.28c-.1,0-.34.02-.79.08-.46.06-.69.08-.79.1-.08.02-.08.04-.08.3l-.12.02-.14-1.11c-.02-.16-.06-.34-.08-.46.14-.02.48-.1.57-.12l.04.12c-.38.14-.4.2-.36.61l.02.26s.02.06.06.04l.67-.08s.06-.02.04-.1l-.02-.08c-.04-.32-.1-.34-.3-.34l-.02-.12c.1-.02.18-.02.34-.04.12-.02.26-.04.34-.04v.16c-.22.04-.26.1-.22.32l.02.2s.02.06.06.04l.75-.1s.06-.02.06-.06l-.06-.5c-.04-.24-.1-.28-.3-.32l-.2-.04.02-.14c.16.02.44.02.59.02l.2,1.66-.14.02Z"/>
      <path class="cls-2" d="M2.02,23.1c-.02-.22-.1-.26-.34-.36l-1.29-.48c-.22-.08-.28-.1-.38-.14v-.16c.08-.02.26-.08.34-.12l1.43-.63c.18-.08.22-.1.22-.34h.12l.02,1.01h-.12c-.02-.3-.04-.32-.12-.32-.06,0-.38.14-.42.16t-.02.04v.52c0,.18.02.2.08.22.18.08.34.12.36.12.08,0,.12-.04.12-.32h.12l.02.81h-.14ZM1.27,21.83s0-.04-.02-.04-.04.02-.06.02l-.75.3.77.28s.04.02.06.02c0,0,.02-.02.02-.04l-.02-.55Z"/>
      <path class="cls-2" d="M2,20.8c0-.28,0-.3-.08-.32-.1-.02-.34-.04-.79-.08-.46-.04-.69-.06-.81-.06-.08,0-.08.02-.14.3l-.12-.02.08-.95h.12c0,.28,0,.3.08.32.06.02.24.02.38.04l1.19.1c.1,0,.12-.02.14-.1l.02-.34c.02-.28-.06-.34-.46-.55l.06-.12c.1.04.44.12.61.14l-.14,1.64h-.14Z"/>
      <path class="cls-2" d="M2.18,18.84c.04-.32.02-.34-.06-.36-.06-.02-.16-.04-.32-.08l-1.35-.22-.06.34c-.02.1.06.16.38.34l-.04.12c-.12-.04-.28-.1-.55-.14.02-.06.04-.12.04-.16.02-.08.04-.14.04-.2l.18-1.01c.02-.12.02-.24.02-.34.26.04.44.04.57.04v.14c-.36.06-.44.08-.46.18l-.06.34,1.35.24c.16.02.28.04.34.04.08,0,.1,0,.16-.32l.12.02-.18,1.05-.12-.02Z"/>
      <path class="cls-2" d="M2.42,17.41c.06-.3.06-.32-.02-.34-.1-.04-.32-.1-.77-.24-.44-.12-.67-.18-.77-.2-.08-.02-.1,0-.2.28l-.12-.04.28-.99.12.04c-.06.3-.06.32.02.34.06.02.22.08.36.12l.18.06c.08.02.1.02.12-.06l.22-.75q.02-.08-.08-.12l-.2-.06c-.12-.04-.3-.08-.36-.1-.08-.02-.1,0-.2.28l-.12-.04.28-.99.12.04c-.06.3-.06.32.02.34.1.04.32.1.77.22s.67.18.77.2c.08.02.1,0,.2-.28l.12.04-.28,1.03-.12-.04c.06-.3.06-.32-.02-.34-.08-.04-.3-.1-.65-.2-.08-.02-.1-.02-.12.06l-.22.77q-.02.08.08.12c.34.1.57.16.65.18s.1,0,.2-.28l.12.04-.28.99-.1-.08Z"/>
      <path class="cls-2" d="M4.36,12.24c.02.18.02.36-.04.48-.06.14-.18.2-.4.28.06.2.06.4-.04.63-.18.36-.55.44-.83.3-.26-.12-.38-.36-.4-.79-.32.02-.42.02-.52-.02-.18-.08-.28-.28-.14-.59.12-.26.32-.38.55-.26.22.1.26.32.24.55.32-.02.63-.04.93-.1-.06-.18-.2-.34-.28-.4-.08-.04-.14-.02-.2.1l-.12-.06.28-.63.12.06c-.06.14-.06.26.08.44.06.08.16.24.26.44.24-.06.32-.08.36-.2.04-.08.04-.2.02-.34l.14.1ZM2.67,12.86c.02-.16-.1-.28-.22-.34-.1-.04-.26-.06-.32.08-.04.08-.02.2.12.26.1.04.24.06.42,0M3.76,13.41c.04-.1.06-.22.02-.36-.26.06-.77.1-1.01.1,0,.22.06.36.26.44.22.1.61.08.73-.18"/>
      <path class="cls-2" d="M4.87,11.35c.16-.26.16-.28.1-.34-.08-.06-.26-.2-.65-.46-.36-.26-.57-.4-.67-.44-.08-.04-.1-.04-.28.2l-.1-.08.59-.85.1.06c-.16.26-.16.28-.1.34.06.04.2.14.3.22l.16.12c.06.04.08.04.14-.02l.44-.65c.04-.06.04-.08-.04-.12l-.16-.12c-.12-.08-.26-.18-.32-.2-.08-.04-.08-.02-.28.2l-.1-.08.59-.85.1.06c-.16.26-.16.28-.1.34.08.08.26.2.65.46.38.26.57.4.67.44.08.04.1.04.28-.2l.14.1-.61.85-.1-.08c.16-.26.16-.28.1-.34s-.26-.2-.55-.4c-.06-.06-.08-.06-.12.02l-.44.65c-.04.06-.04.08.04.12.28.2.48.34.57.38s.1.02.28-.2l.1.08-.59.85-.14-.06Z"/>
      <path class="cls-2" d="M4.83,8.04l.69-.77.1.08c-.18.24-.2.26-.14.32.08.08.24.24.81.75.18.16.5.36.81.02.34-.38.2-.61-.24-1.03-.36-.32-.55-.48-.63-.55-.06-.04-.08-.04-.32.18l-.1-.08.57-.63.1.08c-.18.24-.2.26-.14.32.06.08.24.24.73.67.34.3.63.65.12,1.21-.3.34-.73.42-1.13.06-.55-.5-.73-.65-.81-.71-.06-.04-.08-.04-.3.16l-.1-.1Z"/>
      <path class="cls-2" d="M7.79,7.63c.24-.22.24-.24.2-.3-.06-.08-.2-.26-.5-.61s-.46-.52-.52-.61c-.08-.06-.1-.06-.36.14l-.08-.1.61-.52s.04.04.06.06l1.41.83h0l-.63-1.64.61-.5.08.1c-.22.22-.24.24-.18.32s.2.26.5.61.46.52.55.61c.06.06.08.06.34-.14l.08.1-.79.69-.08-.1c.22-.22.22-.24.18-.3l-1.07-1.25h0l.65,1.68s.04.1.06.14l-.16.14s-.06-.04-.1-.08l-1.57-.91h0l.91,1.05c.06.08.16.16.2.2.06.06.08.04.3-.12l.08.1-.65.57-.12-.14Z"/>
      <path class="cls-2" d="M10.02,5.75c.18-.14.18-.22.12-.48l-.28-1.35c-.04-.22-.06-.28-.1-.4l.12-.08c.06.06.2.18.28.22l1.29.89c.16.12.2.14.42,0l.06.1-.85.55-.08-.1c.24-.16.26-.2.2-.26-.02-.06-.32-.26-.34-.28h-.04c-.06.04-.2.1-.44.28-.16.1-.16.12-.14.18.04.2.08.34.1.38.04.08.08.08.34-.06l.06.12-.67.42-.06-.12ZM10.68,4.46s.02-.02.02-.04-.04-.02-.04-.04l-.65-.46.16.81s0,.04.02.04c0,.02.02,0,.04,0l.44-.3Z"/>
      <path class="cls-2" d="M11.97,4.5c.24-.14.26-.16.22-.24-.04-.1-.14-.3-.34-.73-.2-.4-.3-.63-.36-.71-.04-.06-.06-.06-.32.04l-.06-.12.55-.26s.08.04.14.08l1.43.81h0l-.2-.42c-.2-.4-.3-.63-.36-.71-.04-.06-.06-.06-.36.06l-.06-.12.75-.38.06.12c-.24.12-.26.16-.2.3s.14.3.2.46c.26.52.48.95.61,1.15l-.2.1c-.2-.16-.38-.26-.63-.38l-1.11-.63h0l.26.55c.2.4.3.63.36.71.04.06.06.06.4-.08l.06.12-.79.38-.04-.1Z"/>
      <path class="cls-2" d="M15.1,2.5c.2.3.42.48.73.4.32-.1.42-.32.36-.5-.06-.18-.22-.2-.44-.22h-.24c-.57,0-.67-.16-.75-.38-.12-.36.12-.71.55-.85.22-.08.42-.1.59-.1,0,.04.02.08.04.12.04.14.08.26.14.4l-.14.04c-.16-.34-.36-.4-.65-.32-.24.08-.38.28-.32.46.04.12.12.2.36.2l.52.02c.34.02.5.14.59.4.12.38-.12.71-.59.85-.2.06-.44.04-.65.1-.04-.14-.14-.4-.22-.59l.12-.04Z"/>
      <path class="cls-2" d="M16.74,2.58c.26-.08.28-.08.26-.16,0-.1-.06-.34-.16-.79-.1-.44-.14-.69-.18-.79-.02-.08-.04-.08-.32-.06l-.02-.12,1.09-.22c.16-.04.32-.08.44-.12.04.14.14.46.16.55l-.12.04c-.16-.36-.22-.38-.65-.3l-.26.06s-.06.02-.04.08l.14.67s.02.06.1.04l.08-.02c.32-.06.32-.12.3-.34l.12-.02c.02.1.04.18.06.32.02.12.06.24.08.32l-.12.02c-.06-.2-.1-.24-.34-.2l-.2.04s-.04.02-.04.06l.16.75s.02.06.06.04l.5-.1c.24-.06.28-.12.3-.32l.02-.22h.14c0,.16.02.44.04.59l-1.64.34.02-.12Z"/>
      <path class="cls-2" d="M18.64,2.18c.3-.04.32-.06.32-.14,0-.1-.02-.34-.06-.79-.04-.46-.06-.69-.08-.79-.02-.08-.04-.08-.34-.08l-.04-.14,1.15-.12c.24-.02.36,0,.48.06s.2.18.22.36c.04.42-.44.57-.44.59s.02.04.04.08l.55.59c.14.14.18.18.32.16l.02.12-.5.06-.75-.87s-.04-.02-.18-.02q-.1.02-.1.06c.06.52.06.63.08.69.02.08.04.08.34.08l.02.12-1.05.1v-.12ZM19.2,1.07c0,.06.02.06.2.04.46-.04.52-.3.5-.46-.02-.24-.22-.38-.57-.36-.22.02-.22.04-.22.1l.08.69Z"/>
      <path class="cls-2" d="M20.39.04l1.01-.02v.12h-.14c-.14,0-.16.04-.16.1s.16.44.32.85l.22.57.22-.61c.12-.34.28-.75.28-.83s-.04-.08-.3-.08V.02l.81-.02v.12h-.08c-.14,0-.18.06-.32.42-.46,1.21-.5,1.33-.55,1.6h-.2c-.02-.2-.55-1.39-.71-1.72-.12-.26-.14-.26-.38-.26l-.02-.12Z"/>
      <path class="cls-2" d="M22.72,2c.32,0,.34,0,.36-.08.02-.1.04-.34.08-.79.04-.46.06-.69.06-.81,0-.08-.02-.08-.34-.14l.02-.12,1.07.08-.02.12c-.32,0-.34,0-.34.08-.02.1-.04.34-.08.81-.04.46-.06.71-.06.79s.02.1.34.14v.12l-1.07-.08-.02-.12Z"/>
      <path class="cls-2" d="M25.91,2.06c-.3.3-.59.42-.99.36-.46-.08-.93-.48-.81-1.23.08-.55.5-1.03,1.25-.91.18.04.44.12.61.2-.02.16-.02.44-.02.57h-.14c-.04-.36-.2-.59-.52-.65-.36-.06-.69.26-.77.83-.1.61.18.95.52,1.01.32.04.57-.08.79-.3l.08.12Z"/>
      <path class="cls-2" d="M25.93,2.42c.28.06.28.04.32-.02.04-.1.1-.32.22-.77s.18-.67.2-.77c.02-.08,0-.1-.26-.18l.04-.12,1.09.3c.16.04.34.08.46.08-.04.14-.1.48-.1.57l-.12-.02c.02-.4-.04-.44-.42-.57l-.26-.06s-.06,0-.06.04l-.18.65s0,.06.08.08l.08.02c.3.08.34.04.42-.16l.12.04c-.02.1-.06.18-.1.32-.04.12-.06.24-.08.32l-.14-.04c.04-.22.02-.28-.2-.34l-.2-.06s-.06,0-.06.04l-.2.73s0,.06.04.06l.48.14c.22.06.3.02.42-.16l.1-.18.12.08c-.08.14-.18.4-.22.52l-1.62-.44.02-.1Z"/>
      <path class="cls-2" d="M28.19,2.48c-.04.36.02.65.32.77.3.12.52,0,.59-.18.08-.18-.04-.3-.22-.44l-.2-.16c-.44-.34-.42-.55-.34-.77.14-.36.52-.48.95-.32.22.08.38.18.52.26,0,.04-.04.08-.04.12-.04.14-.08.26-.14.4l-.14-.04c.08-.36-.04-.55-.3-.65-.24-.1-.48-.02-.55.16-.04.12-.02.22.16.38l.4.34c.26.22.32.4.22.69-.14.38-.52.48-.99.32-.2-.08-.38-.24-.59-.32.06-.14.12-.4.18-.61l.16.04Z"/>
      <path class="cls-2" d="M30.59,2.89c.1.04.14.18.1.28-.06.1-.18.14-.28.1s-.14-.16-.1-.26c.06-.12.18-.16.28-.12"/>
      <path class="cls-2" d="M31.56,2.38l.89.52-.06.1q-.28-.14-.34-.06c-.06.08-.18.28-.57.93-.12.2-.24.57.16.79.44.26.65.08.95-.46.24-.42.36-.63.4-.73.02-.08.02-.1-.24-.28l.06-.1.75.44-.06.1q-.28-.14-.34-.06c-.06.08-.18.28-.5.85-.24.4-.5.75-1.15.36-.4-.24-.57-.63-.28-1.09.38-.65.48-.85.52-.95.04-.08.02-.08-.22-.26l.04-.1Z"/>
      <path class="cls-2" d="M33.17,4.99c-.14.34-.14.63.1.83.26.18.5.14.63-.02s.04-.3-.1-.48l-.14-.2c-.32-.46-.26-.65-.12-.83.22-.3.65-.32,1.01-.06.18.14.32.28.42.4-.02.04-.06.08-.08.1-.08.12-.16.24-.24.36l-.12-.08c.18-.32.1-.55-.12-.71-.2-.16-.46-.14-.59,0-.08.1-.08.22.06.4l.3.44c.18.28.2.48.02.71-.24.32-.65.32-1.03.04-.18-.14-.3-.34-.48-.46.08-.12.24-.36.32-.52l.16.08Z"/>
      <path class="cls-2" d="M34.06,6.34c.18.14.26.12.5,0l1.25-.61c.22-.1.26-.14.36-.2l.12.1c-.06.08-.12.24-.16.34l-.52,1.47c-.08.2-.08.22.1.4l-.08.08-.75-.69.08-.1c.22.2.26.2.32.14.04-.04.16-.38.18-.4,0-.02,0-.04-.02-.04-.06-.06-.16-.16-.38-.36-.14-.12-.16-.12-.22-.1-.18.08-.32.16-.34.2-.06.06-.04.1.14.32l-.08.1-.59-.55.08-.12ZM35.5,6.66s.04.02.04.02c.02-.02.02-.04.02-.06l.28-.75-.73.36s-.04.02-.04.02t.02.04l.4.36Z"/>
    </g>
  </g>
</svg>