<svg xmlns="http://www.w3.org/2000/svg" xmlns:xlink="http://www.w3.org/1999/xlink" width="227" zoomAndPan="magnify" viewBox="0 0 170.25 32.999998" height="44" preserveAspectRatio="xMidYMid meet" version="1.0"><defs><clipPath id="1024dc7779"><path d="M 165 16 L 169.503906 16 L 169.503906 27 L 165 27 Z M 165 16 " clip-rule="nonzero"/></clipPath><clipPath id="50a3639141"><path d="M 8 22 L 22 22 L 22 32.925781 L 8 32.925781 Z M 8 22 " clip-rule="nonzero"/></clipPath><clipPath id="a46b49e63a"><path d="M 15 30 L 18 30 L 18 32.925781 L 15 32.925781 Z M 15 30 " clip-rule="nonzero"/></clipPath><clipPath id="650bd98988"><path d="M 14 30 L 16 30 L 16 32.925781 L 14 32.925781 Z M 14 30 " clip-rule="nonzero"/></clipPath><clipPath id="61f912d93e"><path d="M 12 30 L 14 30 L 14 32.925781 L 12 32.925781 Z M 12 30 " clip-rule="nonzero"/></clipPath><clipPath id="28398576eb"><path d="M 10 0.0742188 L 13 0.0742188 L 13 3 L 10 3 Z M 10 0.0742188 " clip-rule="nonzero"/></clipPath><clipPath id="398d057155"><path d="M 11 0.0742188 L 14 0.0742188 L 14 3 L 11 3 Z M 11 0.0742188 " clip-rule="nonzero"/></clipPath><clipPath id="6dd48e8cdd"><path d="M 13 0.0742188 L 16 0.0742188 L 16 2 L 13 2 Z M 13 0.0742188 " clip-rule="nonzero"/></clipPath><clipPath id="8fec32c5e3"><path d="M 15 0.0742188 L 17 0.0742188 L 17 2 L 15 2 Z M 15 0.0742188 " clip-rule="nonzero"/></clipPath><clipPath id="281e3cdd8b"><path d="M 16 0.0742188 L 18 0.0742188 L 18 2 L 16 2 Z M 16 0.0742188 " clip-rule="nonzero"/></clipPath><clipPath id="b0818166de"><path d="M 17 0.0742188 L 20 0.0742188 L 20 2 L 17 2 Z M 17 0.0742188 " clip-rule="nonzero"/></clipPath><clipPath id="2417bfde2c"><path d="M 19 0.0742188 L 21 0.0742188 L 21 3 L 19 3 Z M 19 0.0742188 " clip-rule="nonzero"/></clipPath></defs><path fill="#ffffff" d="M 42.078125 16.769531 L 43.664062 16.769531 L 43.664062 20.859375 L 45.351562 20.859375 L 45.351562 16.769531 L 46.921875 16.769531 L 46.921875 26.808594 L 45.335938 26.808594 L 45.335938 22.292969 L 43.648438 22.292969 L 43.648438 26.808594 L 42.0625 26.808594 L 42.0625 16.769531 Z M 42.078125 16.769531 " fill-opacity="1" fill-rule="nonzero"/><path fill="#ffffff" d="M 48.097656 16.769531 L 52.394531 16.769531 L 52.394531 18.203125 L 49.664062 18.203125 L 49.664062 20.859375 L 51.824219 20.859375 L 51.824219 22.292969 L 49.664062 22.292969 L 49.664062 25.375 L 52.394531 25.375 L 52.394531 26.808594 L 48.097656 26.808594 Z M 48.097656 16.769531 " fill-opacity="1" fill-rule="nonzero"/><path fill="#ffffff" d="M 54.53125 16.769531 L 56.679688 16.769531 L 58.308594 26.808594 L 56.722656 26.808594 L 56.4375 24.8125 L 56.4375 24.84375 L 54.644531 24.84375 L 54.359375 26.800781 L 52.894531 26.800781 L 54.539062 16.761719 Z M 56.25 23.476562 L 55.542969 18.511719 L 55.511719 18.511719 L 54.816406 23.476562 Z M 56.25 23.476562 " fill-opacity="1" fill-rule="nonzero"/><path fill="#ffffff" d="M 59.054688 16.769531 L 60.625 16.769531 L 60.625 25.375 L 63.21875 25.375 L 63.21875 26.808594 L 59.054688 26.808594 Z M 59.054688 16.769531 " fill-opacity="1" fill-rule="nonzero"/><path fill="#ffffff" d="M 64.101562 18.203125 L 62.457031 18.203125 L 62.457031 16.769531 L 67.332031 16.769531 L 67.332031 18.203125 L 65.6875 18.203125 L 65.6875 26.808594 L 64.101562 26.808594 Z M 64.101562 18.203125 " fill-opacity="1" fill-rule="nonzero"/><path fill="#ffffff" d="M 68.085938 16.769531 L 69.671875 16.769531 L 69.671875 20.859375 L 71.359375 20.859375 L 71.359375 16.769531 L 72.945312 16.769531 L 72.945312 26.808594 L 71.359375 26.808594 L 71.359375 22.292969 L 69.671875 22.292969 L 69.671875 26.808594 L 68.085938 26.808594 Z M 68.085938 16.769531 " fill-opacity="1" fill-rule="nonzero"/><path fill="#ffffff" d="M 77.625 16.769531 L 79.769531 16.769531 L 81.398438 26.808594 L 79.816406 26.808594 L 79.53125 24.8125 L 79.53125 24.84375 L 77.738281 24.84375 L 77.453125 26.800781 L 75.988281 26.800781 L 77.632812 16.761719 Z M 79.34375 23.476562 L 78.632812 18.511719 L 78.617188 18.511719 L 77.921875 23.476562 Z M 79.34375 23.476562 " fill-opacity="1" fill-rule="nonzero"/><path fill="#ffffff" d="M 82.15625 16.769531 L 84.136719 16.769531 L 85.675781 22.78125 L 85.707031 22.78125 L 85.707031 16.769531 L 87.109375 16.769531 L 87.109375 26.808594 L 85.496094 26.808594 L 83.613281 19.488281 L 83.582031 19.488281 L 83.582031 26.808594 L 82.175781 26.808594 L 82.175781 16.769531 Z M 82.15625 16.769531 " fill-opacity="1" fill-rule="nonzero"/><path fill="#ffffff" d="M 88.277344 16.769531 L 90.691406 16.769531 C 92.277344 16.769531 93.046875 17.644531 93.046875 19.242188 L 93.046875 24.3125 C 93.046875 25.910156 92.277344 26.785156 90.691406 26.785156 L 88.277344 26.785156 L 88.277344 16.761719 Z M 90.660156 25.375 C 91.164062 25.375 91.460938 25.121094 91.460938 24.394531 L 91.460938 19.167969 C 91.460938 18.445312 91.164062 18.191406 90.660156 18.191406 L 89.863281 18.191406 L 89.863281 25.359375 L 90.660156 25.359375 Z M 90.660156 25.375 " fill-opacity="1" fill-rule="nonzero"/><path fill="#ffffff" d="M 96.402344 16.769531 L 97.972656 16.769531 L 97.972656 20.859375 L 99.664062 20.859375 L 99.664062 16.769531 L 101.230469 16.769531 L 101.230469 26.808594 L 99.664062 26.808594 L 99.664062 22.292969 L 97.972656 22.292969 L 97.972656 26.808594 L 96.402344 26.808594 Z M 96.402344 16.769531 " fill-opacity="1" fill-rule="nonzero"/><path fill="#ffffff" d="M 102.359375 24.425781 L 102.359375 16.769531 L 103.945312 16.769531 L 103.945312 24.542969 C 103.945312 25.269531 104.246094 25.523438 104.746094 25.523438 C 105.246094 25.523438 105.546875 25.269531 105.546875 24.542969 L 105.546875 16.769531 L 107.070312 16.769531 L 107.070312 24.425781 C 107.070312 26.023438 106.269531 26.945312 104.714844 26.945312 C 103.160156 26.945312 102.359375 26.023438 102.359375 24.425781 Z M 102.359375 24.425781 " fill-opacity="1" fill-rule="nonzero"/><path fill="#ffffff" d="M 108.175781 16.769531 L 110.425781 16.769531 L 111.4375 23.953125 L 111.464844 23.953125 L 112.476562 16.769531 L 114.726562 16.769531 L 114.726562 26.808594 L 113.230469 26.808594 L 113.230469 19.199219 L 113.199219 19.199219 L 112.058594 26.808594 L 110.742188 26.808594 L 109.597656 19.199219 L 109.566406 19.199219 L 109.566406 26.808594 L 108.191406 26.808594 L 108.191406 16.769531 Z M 108.175781 16.769531 " fill-opacity="1" fill-rule="nonzero"/><path fill="#ffffff" d="M 117.109375 16.769531 L 119.257812 16.769531 L 120.886719 26.808594 L 119.300781 26.808594 L 119.015625 24.8125 L 119.015625 24.84375 L 117.222656 24.84375 L 116.9375 26.800781 L 115.472656 26.800781 L 117.117188 16.761719 Z M 118.828125 23.476562 L 118.121094 18.511719 L 118.089844 18.511719 L 117.410156 23.476562 Z M 118.828125 23.476562 " fill-opacity="1" fill-rule="nonzero"/><path fill="#ffffff" d="M 121.65625 16.769531 L 123.636719 16.769531 L 125.175781 22.78125 L 125.207031 22.78125 L 125.207031 16.769531 L 126.613281 16.769531 L 126.613281 26.808594 L 124.996094 26.808594 L 123.113281 19.488281 L 123.082031 19.488281 L 123.082031 26.808594 L 121.679688 26.808594 L 121.679688 16.769531 Z M 121.65625 16.769531 " fill-opacity="1" fill-rule="nonzero"/><path fill="#ffffff" d="M 129.789062 24.425781 L 129.789062 23.847656 L 131.285156 23.847656 L 131.285156 24.542969 C 131.285156 25.269531 131.597656 25.523438 132.097656 25.523438 C 132.601562 25.523438 132.914062 25.269531 132.914062 24.527344 C 132.914062 23.699219 132.601562 23.167969 131.566406 22.261719 C 130.253906 21.105469 129.820312 20.28125 129.820312 19.140625 C 129.820312 17.554688 130.632812 16.648438 132.171875 16.648438 C 133.714844 16.648438 134.46875 17.570312 134.46875 19.167969 L 134.46875 19.59375 L 132.972656 19.59375 L 132.972656 19.078125 C 132.972656 18.355469 132.691406 18.085938 132.1875 18.085938 C 131.6875 18.085938 131.402344 18.355469 131.402344 19.050781 C 131.402344 19.746094 131.734375 20.320312 132.765625 21.210938 C 134.078125 22.367188 134.5 23.167969 134.5 24.425781 C 134.5 26.054688 133.667969 26.972656 132.113281 26.972656 C 130.558594 26.945312 129.789062 26.023438 129.789062 24.425781 Z M 129.789062 24.425781 " fill-opacity="1" fill-rule="nonzero"/><path fill="#ffffff" d="M 135.402344 16.769531 L 139.703125 16.769531 L 139.703125 18.203125 L 136.972656 18.203125 L 136.972656 20.859375 L 139.132812 20.859375 L 139.132812 22.292969 L 136.972656 22.292969 L 136.972656 25.375 L 139.703125 25.375 L 139.703125 26.808594 L 135.402344 26.808594 Z M 135.402344 16.769531 " fill-opacity="1" fill-rule="nonzero"/><path fill="#ffffff" d="M 140.597656 16.769531 L 142.9375 16.769531 C 144.566406 16.769531 145.277344 17.523438 145.277344 19.078125 L 145.277344 19.699219 C 145.277344 20.722656 144.949219 21.390625 144.253906 21.679688 L 144.253906 21.710938 C 145.039062 21.949219 145.292969 22.703125 145.292969 23.839844 L 145.292969 25.589844 C 145.292969 26.078125 145.308594 26.433594 145.457031 26.816406 L 143.859375 26.816406 C 143.769531 26.5625 143.722656 26.390625 143.722656 25.574219 L 143.722656 23.738281 C 143.722656 22.800781 143.453125 22.496094 142.730469 22.496094 L 142.183594 22.496094 L 142.183594 26.792969 L 140.613281 26.792969 L 140.613281 16.769531 Z M 142.757812 21.074219 C 143.351562 21.074219 143.707031 20.820312 143.707031 20.019531 L 143.707031 19.25 C 143.707031 18.527344 143.46875 18.226562 142.910156 18.226562 L 142.183594 18.226562 L 142.183594 21.097656 L 142.757812 21.097656 Z M 142.757812 21.074219 " fill-opacity="1" fill-rule="nonzero"/><path fill="#ffffff" d="M 145.914062 16.769531 L 147.5 16.769531 L 148.523438 24.558594 L 148.550781 24.558594 L 149.578125 16.769531 L 151.027344 16.769531 L 149.503906 26.808594 L 147.402344 26.808594 L 145.90625 16.769531 Z M 145.914062 16.769531 " fill-opacity="1" fill-rule="nonzero"/><path fill="#ffffff" d="M 151.796875 16.769531 L 153.382812 16.769531 L 153.382812 26.808594 L 151.796875 26.808594 Z M 151.796875 16.769531 " fill-opacity="1" fill-rule="nonzero"/><path fill="#ffffff" d="M 154.449219 24.484375 L 154.449219 19.09375 C 154.449219 17.539062 155.25 16.632812 156.777344 16.632812 C 158.300781 16.632812 159.101562 17.554688 159.101562 19.09375 L 159.101562 20.148438 L 157.605469 20.148438 L 157.605469 18.988281 C 157.605469 18.324219 157.292969 18.054688 156.820312 18.054688 C 156.351562 18.054688 156.035156 18.324219 156.035156 18.988281 L 156.035156 24.589844 C 156.035156 25.253906 156.351562 25.507812 156.820312 25.507812 C 157.292969 25.507812 157.605469 25.253906 157.605469 24.589844 L 157.605469 23.046875 L 159.101562 23.046875 L 159.101562 24.46875 C 159.101562 26.023438 158.300781 26.929688 156.777344 26.929688 C 155.25 26.929688 154.449219 26.023438 154.449219 24.484375 Z M 154.449219 24.484375 " fill-opacity="1" fill-rule="nonzero"/><path fill="#ffffff" d="M 160.058594 16.769531 L 164.355469 16.769531 L 164.355469 18.203125 L 161.628906 18.203125 L 161.628906 20.859375 L 163.789062 20.859375 L 163.789062 22.292969 L 161.628906 22.292969 L 161.628906 25.375 L 164.355469 25.375 L 164.355469 26.808594 L 160.058594 26.808594 Z M 160.058594 16.769531 " fill-opacity="1" fill-rule="nonzero"/><g clip-path="url(#1024dc7779)"><path fill="#ffffff" d="M 165.007812 24.425781 L 165.007812 23.847656 L 166.5 23.847656 L 166.5 24.542969 C 166.5 25.269531 166.816406 25.523438 167.316406 25.523438 C 167.816406 25.523438 168.132812 25.269531 168.132812 24.527344 C 168.132812 23.699219 167.816406 23.167969 166.785156 22.261719 C 165.46875 21.105469 165.035156 20.28125 165.035156 19.140625 C 165.035156 17.554688 165.851562 16.648438 167.390625 16.648438 C 168.929688 16.648438 169.6875 17.570312 169.6875 19.167969 L 169.6875 19.59375 L 168.191406 19.59375 L 168.191406 19.078125 C 168.191406 18.355469 167.90625 18.085938 167.40625 18.085938 C 166.90625 18.085938 166.621094 18.355469 166.621094 19.050781 C 166.621094 19.746094 166.949219 20.320312 167.980469 21.210938 C 169.296875 22.367188 169.714844 23.167969 169.714844 24.425781 C 169.714844 26.054688 168.886719 26.972656 167.332031 26.972656 C 165.792969 26.945312 165.007812 26.023438 165.007812 24.425781 Z M 165.007812 24.425781 " fill-opacity="1" fill-rule="nonzero"/></g><path fill="#ffffff" d="M 42.019531 7.394531 L 42.894531 7.394531 L 42.894531 10.355469 C 42.894531 11.140625 43.332031 11.65625 44.164062 11.65625 C 44.992188 11.65625 45.417969 11.140625 45.417969 10.355469 L 45.417969 7.394531 L 46.292969 7.394531 L 46.292969 10.371094 C 46.292969 11.597656 45.585938 12.410156 44.164062 12.410156 C 42.742188 12.410156 42.019531 11.597656 42.019531 10.371094 Z M 42.019531 7.394531 " fill-opacity="1" fill-rule="nonzero"/><path fill="#ffffff" d="M 47.496094 11.363281 C 47.78125 11.363281 48.011719 11.601562 48.011719 11.878906 C 48.011719 12.15625 47.773438 12.394531 47.496094 12.394531 C 47.222656 12.394531 46.980469 12.15625 46.980469 11.878906 C 46.980469 11.601562 47.207031 11.363281 47.496094 11.363281 Z M 47.496094 11.363281 " fill-opacity="1" fill-rule="nonzero"/><path fill="#ffffff" d="M 49.097656 10.960938 C 49.441406 11.320312 49.972656 11.640625 50.652344 11.640625 C 51.332031 11.640625 51.648438 11.296875 51.648438 10.960938 C 51.648438 10.519531 51.117188 10.386719 50.53125 10.21875 C 49.734375 10.027344 48.785156 9.78125 48.785156 8.742188 C 48.785156 7.925781 49.507812 7.289062 50.578125 7.289062 C 51.347656 7.289062 51.96875 7.53125 52.417969 7.984375 L 51.914062 8.636719 C 51.542969 8.261719 51.011719 8.074219 50.480469 8.074219 C 49.949219 8.074219 49.652344 8.3125 49.652344 8.695312 C 49.652344 9.078125 50.152344 9.210938 50.734375 9.359375 C 51.550781 9.570312 52.515625 9.816406 52.515625 10.886719 C 52.515625 11.699219 51.9375 12.410156 50.613281 12.410156 C 49.710938 12.410156 49.046875 12.097656 48.605469 11.625 L 49.089844 10.960938 Z M 49.097656 10.960938 " fill-opacity="1" fill-rule="nonzero"/><path fill="#ffffff" d="M 53.695312 11.363281 C 53.980469 11.363281 54.210938 11.601562 54.210938 11.878906 C 54.210938 12.15625 53.972656 12.394531 53.695312 12.394531 C 53.417969 12.394531 53.179688 12.15625 53.179688 11.878906 C 53.179688 11.601562 53.417969 11.363281 53.695312 11.363281 Z M 53.695312 11.363281 " fill-opacity="1" fill-rule="nonzero"/><path fill="#ffffff" d="M 57.035156 12.335938 L 57.035156 7.402344 L 58.875 7.402344 C 60.414062 7.402344 61.453125 8.425781 61.453125 9.875 C 61.453125 11.328125 60.414062 12.335938 58.875 12.335938 Z M 57.894531 11.566406 L 58.859375 11.566406 C 59.929688 11.566406 60.550781 10.796875 60.550781 9.863281 C 60.550781 8.925781 59.960938 8.15625 58.859375 8.15625 L 57.894531 8.15625 Z M 57.894531 11.566406 " fill-opacity="1" fill-rule="nonzero"/><path fill="#ffffff" d="M 62.285156 12.335938 L 62.285156 7.402344 L 65.664062 7.402344 L 65.664062 8.15625 L 63.144531 8.15625 L 63.144531 9.441406 L 65.605469 9.441406 L 65.605469 10.199219 L 63.144531 10.199219 L 63.144531 11.574219 L 65.664062 11.574219 L 65.664062 12.328125 L 62.285156 12.328125 L 62.285156 12.34375 Z M 62.285156 12.335938 " fill-opacity="1" fill-rule="nonzero"/><path fill="#ffffff" d="M 66.558594 12.335938 L 66.558594 7.402344 L 68.734375 7.402344 C 69.773438 7.402344 70.351562 8.113281 70.351562 8.941406 C 70.351562 9.773438 69.761719 10.480469 68.734375 10.480469 L 67.433594 10.480469 L 67.433594 12.320312 L 66.558594 12.320312 Z M 68.59375 8.148438 L 67.421875 8.148438 L 67.421875 9.71875 L 68.59375 9.71875 C 69.078125 9.71875 69.4375 9.40625 69.4375 8.933594 C 69.4375 8.464844 69.09375 8.148438 68.59375 8.148438 Z M 68.59375 8.148438 " fill-opacity="1" fill-rule="nonzero"/><path fill="#ffffff" d="M 73.984375 12.335938 L 73.625 11.386719 L 71.285156 11.386719 L 70.925781 12.335938 L 69.976562 12.335938 L 71.90625 7.402344 L 72.988281 7.402344 L 74.917969 12.335938 Z M 72.457031 8.121094 L 71.539062 10.609375 L 73.378906 10.609375 Z M 72.457031 8.121094 " fill-opacity="1" fill-rule="nonzero"/><path fill="#ffffff" d="M 78.289062 12.335938 L 77.207031 10.496094 L 76.347656 10.496094 L 76.347656 12.335938 L 75.488281 12.335938 L 75.488281 7.402344 L 77.660156 7.402344 C 78.640625 7.402344 79.277344 8.039062 79.277344 8.941406 C 79.277344 9.847656 78.699219 10.304688 78.117188 10.390625 L 79.328125 12.320312 L 78.304688 12.320312 L 78.304688 12.335938 Z M 77.519531 8.148438 L 76.347656 8.148438 L 76.347656 9.71875 L 77.519531 9.71875 C 78.003906 9.71875 78.363281 9.40625 78.363281 8.933594 C 78.363281 8.464844 78.019531 8.148438 77.519531 8.148438 Z M 77.519531 8.148438 " fill-opacity="1" fill-rule="nonzero"/><path fill="#ffffff" d="M 81.210938 12.335938 L 81.210938 8.15625 L 79.71875 8.15625 L 79.71875 7.402344 L 83.566406 7.402344 L 83.566406 8.15625 L 82.085938 8.15625 L 82.085938 12.320312 L 81.210938 12.320312 Z M 81.210938 12.335938 " fill-opacity="1" fill-rule="nonzero"/><path fill="#ffffff" d="M 88.570312 12.335938 L 88.570312 8.589844 L 87.058594 12.320312 L 86.683594 12.320312 L 85.175781 8.589844 L 85.175781 12.320312 L 84.316406 12.320312 L 84.316406 7.402344 L 85.542969 7.402344 L 86.886719 10.722656 L 88.230469 7.402344 L 89.457031 7.402344 L 89.457031 12.335938 Z M 88.570312 12.335938 " fill-opacity="1" fill-rule="nonzero"/><path fill="#ffffff" d="M 90.480469 12.335938 L 90.480469 7.402344 L 93.863281 7.402344 L 93.863281 8.15625 L 91.34375 8.15625 L 91.34375 9.441406 L 93.800781 9.441406 L 93.800781 10.199219 L 91.34375 10.199219 L 91.34375 11.574219 L 93.863281 11.574219 L 93.863281 12.328125 L 90.480469 12.328125 L 90.480469 12.34375 Z M 90.480469 12.335938 " fill-opacity="1" fill-rule="nonzero"/><path fill="#ffffff" d="M 98.195312 12.335938 L 95.632812 8.742188 L 95.632812 12.335938 L 94.773438 12.335938 L 94.773438 7.402344 L 95.664062 7.402344 L 98.183594 10.902344 L 98.183594 7.402344 L 99.042969 7.402344 L 99.042969 12.335938 Z M 98.195312 12.335938 " fill-opacity="1" fill-rule="nonzero"/><path fill="#ffffff" d="M 101.261719 12.335938 L 101.261719 8.15625 L 99.765625 8.15625 L 99.765625 7.402344 L 103.617188 7.402344 L 103.617188 8.15625 L 102.121094 8.15625 L 102.121094 12.320312 L 101.261719 12.320312 Z M 101.261719 12.335938 " fill-opacity="1" fill-rule="nonzero"/><path fill="#ffffff" d="M 108.550781 7.304688 C 110.03125 7.304688 111.070312 8.390625 111.070312 9.855469 C 111.070312 11.320312 110.03125 12.402344 108.550781 12.402344 C 107.070312 12.402344 106.03125 11.320312 106.03125 9.855469 C 106.03125 8.390625 107.070312 7.304688 108.550781 7.304688 Z M 108.550781 8.074219 C 107.554688 8.074219 106.921875 8.828125 106.921875 9.855469 C 106.921875 10.878906 107.554688 11.632812 108.550781 11.632812 C 109.546875 11.632812 110.179688 10.863281 110.179688 9.855469 C 110.179688 8.84375 109.546875 8.074219 108.550781 8.074219 Z M 108.550781 8.074219 " fill-opacity="1" fill-rule="nonzero"/><path fill="#ffffff" d="M 111.898438 12.335938 L 111.898438 7.402344 L 115.277344 7.402344 L 115.277344 8.15625 L 112.757812 8.15625 L 112.757812 9.441406 L 115.21875 9.441406 L 115.21875 10.199219 L 112.757812 10.199219 L 112.757812 12.328125 L 111.898438 12.328125 L 111.898438 12.34375 Z M 111.898438 12.335938 " fill-opacity="1" fill-rule="nonzero"/><path fill="#ffffff" d="M 29.078125 5.527344 C 29.136719 6.65625 28.234375 7.351562 27.554688 8.015625 L 20.609375 13.867188 C 19.988281 14.460938 19.082031 14.921875 18.738281 15.796875 C 18.269531 16.941406 18.105469 18.226562 17.910156 19.496094 C 17.804688 20.417969 16.945312 21.21875 16.144531 21.554688 C 15.523438 21.761719 14.785156 21.671875 14.105469 21.71875 L 11.675781 21.734375 C 11.464844 21.777344 11.300781 21.882812 11.1875 22.046875 L 11.097656 22.285156 C 10.84375 22.332031 10.917969 22.105469 10.890625 21.941406 C 10.890625 21.410156 11.007812 20.859375 11.40625 20.535156 C 11.613281 20.328125 11.90625 20.269531 12.207031 20.222656 L 15.734375 20.179688 C 15.929688 20.164062 16.09375 20.058594 16.21875 19.953125 L 16.355469 19.683594 C 16.636719 17.921875 16.796875 16.105469 17.671875 14.601562 C 18.484375 13.652344 19.507812 13 20.414062 12.171875 C 22.515625 10.390625 24.683594 8.574219 26.753906 6.78125 C 27.34375 6.222656 27.964844 5.496094 28.113281 4.621094 L 28.1875 4.382812 C 28.660156 4.53125 29.046875 5.003906 29.078125 5.527344 " fill-opacity="1" fill-rule="nonzero"/><path fill="#ffffff" d="M 31.117188 7.515625 C 31.222656 8.613281 30.363281 9.128906 29.667969 9.808594 L 26.828125 12.238281 L 21.789062 16.523438 C 21.078125 17.324219 21.035156 18.464844 20.855469 19.496094 C 20.882812 19.828125 21.214844 19.96875 21.152344 20.328125 L 20.457031 21.597656 C 20.503906 22.097656 21.109375 21.808594 21.304688 22.128906 C 21.304688 22.308594 21.183594 22.539062 21.332031 22.691406 C 21.4375 22.855469 21.835938 22.628906 21.617188 22.898438 C 21.558594 22.945312 21.585938 23.046875 21.601562 23.109375 C 21.691406 23.214844 21.839844 23.226562 21.855469 23.390625 C 21.78125 23.601562 21.78125 23.894531 21.902344 24.074219 C 22.777344 25.023438 24.285156 23.847656 25.191406 24.738281 C 25.414062 24.933594 25.414062 25.328125 25.355469 25.597656 C 24.871094 27.03125 21.992188 27.136719 22.96875 29.164062 C 23.136719 29.492188 23.53125 29.722656 23.90625 29.738281 C 24.234375 29.785156 24.480469 29.648438 24.75 29.574219 C 24.839844 29.574219 24.839844 29.648438 24.871094 29.695312 L 24.871094 29.753906 C 24.039062 30.34375 22.96875 31.21875 21.847656 30.585938 C 21.304688 30.238281 21.019531 29.515625 21.152344 28.804688 C 21.484375 27.691406 22.785156 27.398438 23.433594 26.464844 C 23.582031 26.195312 23.554688 25.828125 23.402344 25.558594 C 23.195312 25.203125 22.722656 25.089844 22.304688 25.015625 C 21.609375 25 20.554688 25.441406 20.234375 24.625 C 20.144531 24.3125 20.457031 23.765625 19.964844 23.691406 C 19.90625 23.601562 19.742188 23.527344 19.832031 23.390625 C 19.859375 23.316406 19.996094 23.304688 19.921875 23.199219 C 19.816406 23.167969 19.695312 23.199219 19.621094 23.109375 C 19.335938 22.808594 20.121094 22.472656 19.589844 22.265625 C 19.324219 22.234375 18.972656 22.429688 18.792969 22.128906 C 18.703125 21.84375 18.925781 21.644531 19.03125 21.402344 C 19.210938 21.015625 19.726562 20.738281 19.589844 20.230469 L 19.335938 19.789062 C 19.410156 18.765625 19.578125 17.761719 19.839844 16.8125 C 20.183594 15.746094 21.214844 15.15625 22.011719 14.414062 L 26.238281 10.832031 L 29.226562 8.195312 C 29.742188 7.707031 30.191406 7.171875 30.175781 6.445312 C 30.339844 6.386719 30.445312 6.578125 30.589844 6.640625 C 30.828125 6.953125 31.058594 7.171875 31.117188 7.53125 " fill-opacity="1" fill-rule="nonzero"/><path fill="#ffffff" d="M 29.96875 12.828125 C 29.40625 13.71875 28.472656 14.382812 27.65625 15.09375 L 24.414062 17.808594 C 23.808594 18.355469 23.65625 19.289062 23.925781 20.011719 C 23.957031 20.371094 23.671875 20.617188 23.582031 20.933594 C 23.597656 21.023438 23.613281 21.140625 23.703125 21.171875 C 23.835938 21.230469 24.046875 21.15625 24.128906 21.335938 C 24.144531 21.53125 24.070312 21.726562 24.265625 21.808594 C 24.339844 21.851562 24.472656 21.703125 24.472656 21.851562 C 24.429688 21.941406 24.382812 22.015625 24.398438 22.121094 C 24.503906 22.316406 24.726562 22.210938 24.839844 22.359375 C 24.882812 22.585938 24.882812 22.863281 25.125 22.953125 C 25.96875 23.085938 26.605469 22.523438 27.375 22.359375 C 28.585938 21.988281 29.742188 22.449219 30.8125 22.773438 C 31.34375 22.863281 31.941406 22.832031 32.472656 22.773438 L 32.515625 22.800781 C 31.835938 23.632812 30.992188 24.445312 29.804688 24.371094 C 28.546875 24.328125 27.730469 23.144531 26.394531 23.378906 C 25.488281 23.558594 24.570312 24.101562 23.597656 23.738281 C 23.34375 23.542969 23.253906 23.175781 23.34375 22.816406 C 23.300781 22.609375 22.769531 22.546875 23.105469 22.257812 C 23 22.195312 22.835938 22.257812 22.777344 22.105469 C 22.703125 21.941406 22.910156 21.679688 22.6875 21.5625 C 22.492188 21.53125 22.214844 21.636719 22.066406 21.472656 C 21.992188 21.367188 22.007812 21.21875 22.035156 21.097656 C 22.183594 20.753906 22.566406 20.476562 22.492188 20.074219 C 22.238281 19.835938 22.3125 19.40625 22.355469 19.0625 C 22.507812 18.265625 22.566406 17.417969 23.308594 16.890625 L 27.304688 13.507812 C 28.152344 12.710938 29.191406 12.179688 29.796875 11.125 C 30.078125 11.609375 30.238281 12.320312 29.976562 12.828125 " fill-opacity="1" fill-rule="nonzero"/><g clip-path="url(#50a3639141)"><path fill="#ffffff" d="M 17.761719 24.664062 C 18.890625 25.148438 20.085938 25.613281 21.09375 26.292969 C 21.347656 26.488281 21.578125 26.808594 21.519531 27.183594 C 21.175781 28.617188 19.164062 28.765625 19.464844 30.472656 C 19.554688 31.105469 19.964844 31.644531 20.578125 31.832031 C 20.863281 31.90625 21.230469 31.90625 21.511719 31.832031 C 21.558594 31.9375 21.75 32.042969 21.527344 32.117188 C 20.710938 32.648438 19.660156 33.230469 18.65625 32.722656 C 18.171875 32.496094 17.886719 31.96875 17.753906 31.449219 C 17.558594 29.910156 18.976562 29.425781 19.695312 28.402344 C 19.800781 28.207031 19.859375 27.960938 19.800781 27.722656 C 19.667969 27.4375 19.457031 27.25 19.179688 27.085938 C 16.496094 25.574219 13.566406 24.566406 10.546875 23.78125 C 10.046875 23.738281 9.273438 23.453125 8.945312 24.019531 L 8.945312 24.050781 C 8.675781 24.109375 8.78125 23.78125 8.78125 23.640625 C 8.871094 23.152344 9.140625 22.75 9.613281 22.554688 C 10.394531 22.332031 11.226562 22.601562 11.980469 22.734375 C 13.941406 23.265625 15.875 23.878906 17.746094 24.648438 " fill-opacity="1" fill-rule="nonzero"/></g><g clip-path="url(#a46b49e63a)"><path fill="#ffffff" d="M 17.109375 30.941406 C 16.871094 30.957031 16.855469 30.972656 16.855469 31.03125 C 16.839844 31.105469 16.855469 31.285156 16.855469 31.636719 C 16.871094 31.980469 16.871094 32.152344 16.871094 32.242188 C 16.878906 32.285156 16.964844 32.308594 17.125 32.316406 L 17.125 32.40625 L 16.371094 32.421875 C 16.054688 32.4375 15.914062 32.363281 15.765625 32.230469 C 15.628906 32.109375 15.539062 31.914062 15.539062 31.667969 C 15.539062 31.277344 15.765625 30.882812 16.371094 30.867188 L 17.09375 30.851562 Z M 16.578125 31.0625 C 16.578125 30.972656 16.5625 30.972656 16.414062 30.972656 C 15.988281 30.988281 15.808594 31.183594 15.824219 31.667969 C 15.839844 32.152344 16.019531 32.332031 16.445312 32.332031 C 16.59375 32.332031 16.609375 32.316406 16.609375 32.273438 Z M 16.578125 31.0625 " fill-opacity="1" fill-rule="nonzero"/></g><g clip-path="url(#650bd98988)"><path fill="#ffffff" d="M 15.40625 30.972656 C 15.195312 30.972656 15.179688 30.972656 15.179688 31.03125 C 15.164062 31.105469 15.152344 31.285156 15.121094 31.636719 C 15.089844 31.980469 15.078125 32.152344 15.078125 32.230469 C 15.078125 32.289062 15.089844 32.304688 15.285156 32.332031 L 15.285156 32.421875 L 14.457031 32.347656 C 14.335938 32.332031 14.203125 32.332031 14.113281 32.347656 L 14.113281 31.921875 L 14.214844 31.90625 C 14.246094 32.191406 14.292969 32.234375 14.605469 32.25 L 14.800781 32.265625 C 14.800781 32.265625 14.84375 32.25 14.84375 32.222656 L 14.890625 31.707031 C 14.890625 31.707031 14.890625 31.660156 14.816406 31.660156 L 14.753906 31.660156 C 14.515625 31.628906 14.5 31.675781 14.46875 31.824219 L 14.382812 31.824219 C 14.394531 31.75 14.394531 31.675781 14.410156 31.570312 C 14.410156 31.480469 14.425781 31.390625 14.425781 31.316406 L 14.53125 31.332031 C 14.53125 31.496094 14.558594 31.527344 14.726562 31.539062 L 14.875 31.554688 C 14.875 31.554688 14.917969 31.539062 14.917969 31.527344 L 14.964844 30.964844 C 14.964844 30.964844 14.949219 30.921875 14.933594 30.921875 L 14.558594 30.890625 C 14.382812 30.875 14.335938 30.921875 14.277344 31.054688 L 14.214844 31.203125 L 14.113281 31.175781 C 14.15625 31.054688 14.203125 30.84375 14.203125 30.75 L 15.457031 30.851562 L 15.414062 30.957031 Z M 15.40625 30.972656 " fill-opacity="1" fill-rule="nonzero"/></g><g clip-path="url(#61f912d93e)"><path fill="#ffffff" d="M 13.96875 30.851562 C 13.746094 30.824219 13.730469 30.839844 13.714844 30.882812 C 13.699219 30.957031 13.65625 31.136719 13.597656 31.472656 C 13.535156 31.816406 13.507812 31.988281 13.492188 32.0625 C 13.492188 32.125 13.507812 32.140625 13.714844 32.199219 L 13.699219 32.289062 L 12.902344 32.140625 C 12.734375 32.109375 12.617188 32.050781 12.542969 31.945312 C 12.46875 31.871094 12.4375 31.765625 12.46875 31.644531 C 12.527344 31.347656 12.8125 31.257812 13.207031 31.332031 C 13.265625 31.347656 13.328125 31.363281 13.355469 31.363281 L 13.445312 30.832031 C 13.460938 30.769531 13.429688 30.757812 13.191406 30.695312 L 13.207031 30.605469 L 13.992188 30.757812 L 13.976562 30.859375 Z M 13.335938 31.472656 C 13.335938 31.472656 13.257812 31.457031 13.230469 31.445312 C 13.003906 31.398438 12.804688 31.398438 12.742188 31.699219 C 12.699219 31.96875 12.863281 32.042969 13.101562 32.085938 C 13.207031 32.101562 13.207031 32.085938 13.222656 32.058594 L 13.328125 31.464844 Z M 13.335938 31.472656 " fill-opacity="1" fill-rule="nonzero"/></g><path fill="#ffffff" d="M 12.78125 30.644531 C 12.601562 30.613281 12.570312 30.660156 12.453125 30.808594 L 11.816406 31.636719 C 11.710938 31.773438 11.683594 31.816406 11.636719 31.878906 L 11.519531 31.847656 C 11.53125 31.773438 11.519531 31.652344 11.519531 31.578125 L 11.382812 30.417969 C 11.367188 30.269531 11.351562 30.238281 11.175781 30.195312 L 11.203125 30.105469 L 11.945312 30.316406 L 11.914062 30.40625 C 11.703125 30.359375 11.675781 30.375 11.660156 30.417969 C 11.644531 30.464844 11.675781 30.734375 11.675781 30.75 C 11.675781 30.761719 11.691406 30.761719 11.703125 30.777344 C 11.765625 30.792969 11.871094 30.839844 12.078125 30.898438 C 12.214844 30.941406 12.226562 30.929688 12.257812 30.882812 C 12.347656 30.761719 12.40625 30.660156 12.421875 30.644531 C 12.4375 30.570312 12.421875 30.554688 12.226562 30.480469 L 12.257812 30.390625 L 12.832031 30.554688 L 12.789062 30.644531 Z M 11.703125 30.914062 L 11.675781 30.914062 L 11.675781 30.957031 L 11.734375 31.546875 L 12.09375 31.0625 C 12.09375 31.0625 12.109375 31.046875 12.109375 31.03125 C 12.109375 31.019531 12.109375 31.019531 12.09375 31.019531 Z M 11.703125 30.914062 " fill-opacity="1" fill-rule="nonzero"/><path fill="#ffffff" d="M 11.113281 30.171875 C 10.90625 30.113281 10.890625 30.113281 10.859375 30.15625 C 10.816406 30.21875 10.753906 30.382812 10.621094 30.703125 C 10.484375 31.023438 10.425781 31.191406 10.410156 31.265625 C 10.394531 31.324219 10.410156 31.339844 10.589844 31.429688 L 10.5625 31.519531 L 9.789062 31.203125 C 9.625 31.144531 9.566406 31.085938 9.507812 30.996094 C 9.445312 30.90625 9.433594 30.800781 9.492188 30.679688 C 9.613281 30.382812 9.960938 30.457031 9.976562 30.441406 L 9.976562 30.382812 L 9.828125 29.804688 C 9.796875 29.65625 9.785156 29.628906 9.679688 29.597656 L 9.707031 29.507812 L 10.050781 29.640625 L 10.230469 30.472656 C 10.230469 30.472656 10.246094 30.515625 10.335938 30.546875 C 10.410156 30.578125 10.425781 30.578125 10.425781 30.5625 C 10.574219 30.1875 10.605469 30.136719 10.621094 30.074219 C 10.636719 30.015625 10.636719 30 10.441406 29.910156 L 10.472656 29.820312 L 11.152344 30.105469 L 11.121094 30.179688 Z M 10.359375 30.71875 C 10.367188 30.6875 10.328125 30.652344 10.238281 30.613281 C 9.941406 30.496094 9.796875 30.644531 9.753906 30.75 C 9.679688 30.914062 9.769531 31.078125 9.976562 31.175781 C 10.113281 31.234375 10.128906 31.234375 10.15625 31.175781 L 10.351562 30.71875 Z M 10.359375 30.71875 " fill-opacity="1" fill-rule="nonzero"/><path fill="#ffffff" d="M 9.542969 29.492188 C 9.320312 29.386719 9.304688 29.386719 9.273438 29.449219 C 9.246094 29.492188 9.214844 29.550781 9.15625 29.671875 L 8.683594 30.578125 L 8.910156 30.695312 C 8.96875 30.726562 9.027344 30.695312 9.222656 30.5 L 9.3125 30.5625 C 9.253906 30.636719 9.179688 30.726562 9.089844 30.90625 C 9.058594 30.875 9.011719 30.859375 8.984375 30.832031 C 8.953125 30.800781 8.910156 30.785156 8.878906 30.769531 L 8.199219 30.425781 C 8.125 30.382812 8.035156 30.351562 7.960938 30.324219 C 8.050781 30.144531 8.09375 30.023438 8.109375 29.933594 L 8.214844 29.964844 C 8.167969 30.234375 8.167969 30.308594 8.242188 30.335938 L 8.46875 30.457031 L 8.9375 29.550781 C 9 29.433594 9.027344 29.371094 9.042969 29.328125 C 9.058594 29.269531 9.058594 29.253906 8.847656 29.132812 L 8.894531 29.042969 L 9.605469 29.402344 Z M 9.542969 29.492188 " fill-opacity="1" fill-rule="nonzero"/><path fill="#ffffff" d="M 8.535156 29 C 8.324219 28.878906 8.3125 28.878906 8.28125 28.925781 C 8.234375 28.984375 8.132812 29.132812 7.9375 29.410156 C 7.742188 29.695312 7.652344 29.851562 7.609375 29.910156 C 7.578125 29.972656 7.59375 29.984375 7.773438 30.121094 L 7.710938 30.195312 L 7.210938 29.867188 C 7.210938 29.867188 7.226562 29.820312 7.242188 29.804688 L 7.554688 28.609375 L 6.5 29.378906 L 6.015625 29.050781 L 6.074219 28.976562 C 6.285156 29.097656 6.300781 29.097656 6.328125 29.050781 C 6.375 28.992188 6.480469 28.84375 6.671875 28.550781 C 6.867188 28.265625 6.972656 28.109375 7.003906 28.050781 C 7.03125 28.003906 7.03125 27.988281 6.839844 27.839844 L 6.882812 27.765625 L 7.535156 28.207031 L 7.488281 28.28125 C 7.292969 28.160156 7.265625 28.160156 7.234375 28.207031 L 6.539062 29.230469 L 7.621094 28.445312 C 7.621094 28.445312 7.683594 28.402344 7.710938 28.371094 L 7.847656 28.460938 C 7.847656 28.460938 7.816406 28.519531 7.816406 28.550781 L 7.472656 29.867188 L 8.0625 29.007812 C 8.109375 28.945312 8.152344 28.855469 8.167969 28.828125 C 8.199219 28.765625 8.183594 28.765625 8.019531 28.632812 L 8.078125 28.558594 L 8.578125 28.917969 L 8.535156 29.007812 Z M 8.535156 29 " fill-opacity="1" fill-rule="nonzero"/><path fill="#ffffff" d="M 6.816406 27.789062 C 6.652344 27.667969 6.636719 27.667969 6.589844 27.699219 C 6.53125 27.742188 6.410156 27.878906 6.203125 28.15625 C 5.976562 28.410156 5.859375 28.542969 5.8125 28.609375 C 5.785156 28.65625 5.785156 28.671875 5.933594 28.820312 L 5.875 28.894531 L 5.238281 28.332031 C 5.148438 28.257812 5.042969 28.183594 4.953125 28.125 C 5.027344 28.050781 5.179688 27.839844 5.195312 27.78125 L 5.269531 27.824219 C 5.132812 28.078125 5.148438 28.140625 5.371094 28.339844 L 5.523438 28.476562 C 5.523438 28.476562 5.550781 28.492188 5.582031 28.476562 L 5.910156 28.101562 C 5.910156 28.101562 5.925781 28.070312 5.882812 28.027344 L 5.835938 27.984375 C 5.65625 27.816406 5.613281 27.847656 5.507812 27.9375 L 5.433594 27.878906 C 5.476562 27.816406 5.539062 27.773438 5.597656 27.699219 C 5.65625 27.636719 5.714844 27.550781 5.761719 27.503906 L 5.835938 27.5625 C 5.730469 27.699219 5.730469 27.742188 5.867188 27.847656 L 5.972656 27.953125 C 5.972656 27.953125 6.015625 27.96875 6.03125 27.953125 L 6.40625 27.527344 C 6.40625 27.527344 6.417969 27.480469 6.40625 27.464844 L 6.121094 27.226562 C 5.984375 27.109375 5.925781 27.121094 5.792969 27.199219 L 5.65625 27.289062 L 5.597656 27.199219 C 5.703125 27.121094 5.851562 26.988281 5.925781 26.914062 L 6.859375 27.742188 L 6.816406 27.804688 Z M 6.816406 27.789062 " fill-opacity="1" fill-rule="nonzero"/><path fill="#ffffff" d="M 5.746094 26.855469 C 5.597656 26.703125 5.582031 26.703125 5.523438 26.734375 C 5.460938 26.777344 5.328125 26.898438 5.066406 27.144531 C 4.8125 27.371094 4.691406 27.503906 4.625 27.554688 C 4.582031 27.601562 4.59375 27.617188 4.714844 27.78125 L 4.640625 27.839844 L 4.328125 27.511719 C 4.328125 27.511719 4.339844 27.453125 4.355469 27.390625 L 4.625 26.179688 L 4.371094 26.421875 C 4.117188 26.660156 3.996094 26.765625 3.929688 26.832031 C 3.886719 26.875 3.898438 26.890625 4.050781 27.070312 L 3.976562 27.128906 L 3.550781 26.675781 L 3.625 26.613281 C 3.757812 26.765625 3.789062 26.765625 3.878906 26.6875 C 3.96875 26.613281 4.070312 26.523438 4.160156 26.433594 C 4.476562 26.136719 4.738281 25.890625 4.855469 25.753906 L 4.960938 25.875 C 4.902344 26.054688 4.855469 26.203125 4.8125 26.40625 L 4.617188 27.339844 L 4.945312 27.039062 C 5.199219 26.816406 5.320312 26.695312 5.386719 26.628906 C 5.417969 26.585938 5.417969 26.570312 5.253906 26.359375 L 5.328125 26.300781 L 5.785156 26.785156 L 5.738281 26.859375 Z M 5.746094 26.855469 " fill-opacity="1" fill-rule="nonzero"/><path fill="#ffffff" d="M 4.429688 25.386719 C 4.28125 25.210938 4.265625 25.210938 4.207031 25.222656 C 4.160156 25.253906 4.101562 25.296875 3.996094 25.375 L 3.183594 25.992188 L 3.332031 26.1875 C 3.375 26.25 3.453125 26.234375 3.707031 26.160156 L 3.75 26.25 C 3.660156 26.277344 3.554688 26.351562 3.390625 26.457031 C 3.363281 26.425781 3.347656 26.382812 3.332031 26.335938 C 3.300781 26.308594 3.289062 26.261719 3.257812 26.234375 L 2.800781 25.613281 C 2.742188 25.539062 2.683594 25.476562 2.621094 25.417969 C 2.785156 25.285156 2.875 25.210938 2.9375 25.132812 L 3.011719 25.195312 C 2.859375 25.417969 2.832031 25.476562 2.875 25.554688 L 3.027344 25.746094 L 3.855469 25.125 C 3.960938 25.050781 4.019531 24.992188 4.050781 24.960938 C 4.09375 24.917969 4.09375 24.902344 3.960938 24.707031 L 4.035156 24.648438 L 4.519531 25.285156 Z M 4.429688 25.386719 " fill-opacity="1" fill-rule="nonzero"/><path fill="#ffffff" d="M 1.648438 23.832031 C 1.457031 23.476562 1.589844 23.035156 2.023438 22.808594 C 2.449219 22.585938 2.882812 22.703125 3.078125 23.0625 C 3.273438 23.421875 3.121094 23.863281 2.703125 24.085938 C 2.277344 24.3125 1.828125 24.191406 1.648438 23.832031 M 2.996094 23.125 C 2.890625 22.914062 2.585938 22.839844 2.164062 23.0625 C 1.738281 23.289062 1.636719 23.578125 1.738281 23.789062 C 1.84375 23.996094 2.152344 24.074219 2.570312 23.847656 C 2.996094 23.625 3.101562 23.332031 2.996094 23.125 " fill-opacity="1" fill-rule="nonzero"/><path fill="#ffffff" d="M 2.578125 22.339844 C 2.488281 22.160156 2.472656 22.144531 2.414062 22.160156 C 2.335938 22.175781 2.171875 22.25 1.851562 22.367188 C 1.539062 22.488281 1.367188 22.5625 1.292969 22.609375 C 1.230469 22.636719 1.230469 22.652344 1.292969 22.847656 L 1.214844 22.875 L 0.902344 22.105469 C 0.859375 21.988281 0.796875 21.882812 0.753906 21.792969 C 0.84375 21.746094 1.082031 21.644531 1.125 21.597656 L 1.171875 21.671875 C 0.933594 21.835938 0.917969 21.898438 1.035156 22.1875 L 1.113281 22.367188 C 1.113281 22.367188 1.140625 22.398438 1.171875 22.382812 L 1.640625 22.1875 C 1.640625 22.1875 1.671875 22.175781 1.65625 22.113281 L 1.628906 22.054688 C 1.539062 21.832031 1.492188 21.832031 1.34375 21.875 L 1.3125 21.785156 C 1.375 21.753906 1.449219 21.742188 1.539062 21.695312 C 1.628906 21.664062 1.71875 21.621094 1.761719 21.605469 L 1.808594 21.695312 C 1.65625 21.769531 1.640625 21.816406 1.703125 21.964844 L 1.761719 22.097656 C 1.761719 22.097656 1.777344 22.128906 1.820312 22.128906 L 2.324219 21.933594 C 2.382812 21.917969 2.382812 21.890625 2.292969 21.664062 L 2.382812 21.636719 L 2.652344 22.316406 L 2.578125 22.347656 Z M 2.578125 22.339844 " fill-opacity="1" fill-rule="nonzero"/><path fill="#ffffff" d="M 1.867188 20.484375 C 1.808594 20.261719 1.792969 20.261719 1.730469 20.261719 C 1.65625 20.273438 1.492188 20.304688 1.140625 20.378906 C 0.8125 20.453125 0.625 20.5 0.566406 20.53125 C 0.507812 20.542969 0.507812 20.558594 0.550781 20.785156 L 0.429688 20.8125 L 0.253906 20.058594 L 0.34375 20.027344 C 0.402344 20.253906 0.417969 20.253906 0.476562 20.253906 C 0.519531 20.253906 0.65625 20.222656 0.761719 20.191406 L 0.894531 20.164062 C 0.953125 20.148438 0.96875 20.132812 0.953125 20.089844 L 0.820312 19.511719 C 0.804688 19.453125 0.789062 19.453125 0.730469 19.46875 L 0.582031 19.496094 C 0.476562 19.527344 0.355469 19.558594 0.3125 19.574219 C 0.273438 19.59375 0.261719 19.675781 0.28125 19.828125 L 0.191406 19.839844 L 0.0117188 19.085938 L 0.132812 19.085938 C 0.191406 19.296875 0.207031 19.3125 0.265625 19.3125 C 0.34375 19.296875 0.519531 19.265625 0.859375 19.191406 C 1.195312 19.117188 1.375 19.070312 1.449219 19.042969 C 1.507812 19.027344 1.507812 19.011719 1.476562 18.789062 L 1.566406 18.773438 L 1.746094 19.527344 L 1.65625 19.558594 C 1.597656 19.332031 1.582031 19.332031 1.523438 19.332031 C 1.464844 19.332031 1.285156 19.378906 1.023438 19.4375 C 0.960938 19.453125 0.949219 19.453125 0.960938 19.511719 L 1.097656 20.089844 C 1.105469 20.128906 1.136719 20.144531 1.1875 20.132812 C 1.441406 20.074219 1.613281 20.027344 1.671875 20.011719 C 1.730469 20 1.730469 19.984375 1.703125 19.757812 L 1.792969 19.746094 L 1.972656 20.5 Z M 1.867188 20.484375 " fill-opacity="1" fill-rule="nonzero"/><path fill="#ffffff" d="M 1.457031 18.707031 C 1.425781 18.566406 1.390625 18.496094 1.351562 18.496094 C 1.277344 18.496094 1.097656 18.511719 0.761719 18.554688 C 0.417969 18.601562 0.246094 18.617188 0.167969 18.628906 C 0.109375 18.644531 0.109375 18.660156 0.109375 18.855469 L 0.0195312 18.871094 L -0.0859375 18.039062 C -0.0976562 17.921875 -0.128906 17.785156 -0.144531 17.695312 C -0.0390625 17.679688 0.214844 17.621094 0.28125 17.605469 L 0.3125 17.695312 C 0.0273438 17.800781 0.0117188 17.84375 0.0429688 18.152344 L 0.0585938 18.347656 C 0.0585938 18.347656 0.0742188 18.390625 0.101562 18.375 L 0.601562 18.316406 C 0.601562 18.316406 0.648438 18.300781 0.632812 18.242188 L 0.617188 18.183594 C 0.589844 17.941406 0.542969 17.929688 0.394531 17.929688 L 0.378906 17.839844 C 0.453125 17.824219 0.515625 17.824219 0.632812 17.808594 C 0.722656 17.792969 0.828125 17.777344 0.886719 17.777344 L 0.886719 17.898438 C 0.722656 17.929688 0.691406 17.972656 0.722656 18.136719 L 0.738281 18.285156 C 0.738281 18.285156 0.753906 18.332031 0.78125 18.316406 L 1.34375 18.242188 C 1.34375 18.242188 1.386719 18.226562 1.386719 18.195312 L 1.34375 17.824219 C 1.3125 17.644531 1.269531 17.613281 1.121094 17.582031 L 0.96875 17.554688 L 0.984375 17.449219 C 1.105469 17.464844 1.3125 17.464844 1.425781 17.464844 L 1.574219 18.707031 L 1.46875 18.71875 Z M 1.457031 18.707031 " fill-opacity="1" fill-rule="nonzero"/><path fill="#ffffff" d="M 1.292969 17.34375 C 1.277344 17.179688 1.214844 17.148438 1.035156 17.074219 L 0.0742188 16.714844 C -0.0898438 16.65625 -0.136719 16.640625 -0.210938 16.613281 L -0.210938 16.492188 C -0.152344 16.476562 -0.015625 16.433594 0.0429688 16.402344 L 1.113281 15.933594 C 1.246094 15.871094 1.277344 15.855469 1.277344 15.675781 L 1.367188 15.675781 L 1.382812 16.433594 L 1.292969 16.433594 C 1.277344 16.207031 1.261719 16.195312 1.203125 16.195312 C 1.15625 16.195312 0.917969 16.296875 0.886719 16.3125 C 0.886719 16.3125 0.882812 16.324219 0.871094 16.34375 L 0.871094 16.730469 C 0.871094 16.867188 0.886719 16.882812 0.933594 16.894531 C 1.066406 16.957031 1.1875 16.984375 1.203125 16.984375 C 1.261719 16.984375 1.292969 16.957031 1.292969 16.746094 L 1.382812 16.746094 L 1.394531 17.351562 L 1.292969 17.351562 Z M 0.730469 16.394531 C 0.730469 16.394531 0.730469 16.367188 0.714844 16.367188 C 0.699219 16.367188 0.6875 16.378906 0.671875 16.378906 L 0.109375 16.605469 L 0.6875 16.8125 C 0.6875 16.8125 0.714844 16.828125 0.730469 16.828125 C 0.730469 16.828125 0.746094 16.8125 0.746094 16.800781 L 0.730469 16.386719 Z M 0.730469 16.394531 " fill-opacity="1" fill-rule="nonzero"/><path fill="#ffffff" d="M 1.277344 15.625 C 1.277344 15.417969 1.277344 15.402344 1.214844 15.386719 C 1.140625 15.371094 0.960938 15.355469 0.625 15.328125 C 0.28125 15.296875 0.109375 15.28125 0.0195312 15.28125 C -0.0390625 15.28125 -0.0390625 15.296875 -0.0859375 15.503906 L -0.175781 15.492188 L -0.113281 14.78125 L -0.0234375 14.78125 C -0.0234375 14.988281 -0.0234375 15.003906 0.0351562 15.019531 C 0.0820312 15.035156 0.214844 15.035156 0.320312 15.050781 L 1.207031 15.125 C 1.285156 15.125 1.296875 15.109375 1.3125 15.050781 L 1.328125 14.796875 C 1.34375 14.585938 1.285156 14.542969 0.984375 14.382812 L 1.03125 14.292969 C 1.105469 14.324219 1.359375 14.382812 1.484375 14.398438 L 1.382812 15.625 Z M 1.277344 15.625 " fill-opacity="1" fill-rule="nonzero"/><path fill="#ffffff" d="M 1.410156 14.160156 C 1.441406 13.921875 1.425781 13.90625 1.367188 13.890625 C 1.320312 13.875 1.246094 13.859375 1.125 13.832031 L 0.117188 13.667969 L 0.0742188 13.921875 C 0.0585938 13.996094 0.117188 14.039062 0.355469 14.175781 L 0.328125 14.265625 C 0.238281 14.234375 0.117188 14.191406 -0.0859375 14.160156 C -0.0703125 14.117188 -0.0546875 14.070312 -0.0546875 14.039062 C -0.0390625 13.980469 -0.0234375 13.9375 -0.0234375 13.890625 L 0.109375 13.136719 C 0.125 13.046875 0.125 12.957031 0.125 12.882812 C 0.320312 12.910156 0.453125 12.910156 0.550781 12.910156 L 0.550781 13.015625 C 0.28125 13.0625 0.222656 13.078125 0.207031 13.152344 L 0.164062 13.40625 L 1.171875 13.585938 C 1.292969 13.597656 1.382812 13.613281 1.425781 13.613281 C 1.484375 13.613281 1.5 13.613281 1.546875 13.375 L 1.636719 13.390625 L 1.5 14.175781 Z M 1.410156 14.160156 " fill-opacity="1" fill-rule="nonzero"/><path fill="#ffffff" d="M 1.589844 13.089844 C 1.636719 12.867188 1.636719 12.851562 1.574219 12.835938 C 1.5 12.808594 1.335938 12.761719 1 12.65625 C 0.671875 12.566406 0.5 12.523438 0.425781 12.507812 C 0.363281 12.492188 0.347656 12.507812 0.273438 12.71875 L 0.183594 12.6875 L 0.394531 11.949219 L 0.484375 11.976562 C 0.4375 12.203125 0.4375 12.214844 0.5 12.230469 C 0.542969 12.246094 0.664062 12.292969 0.769531 12.320312 L 0.902344 12.367188 C 0.960938 12.382812 0.976562 12.382812 0.992188 12.320312 L 1.15625 11.761719 C 1.167969 11.71875 1.148438 11.691406 1.097656 11.671875 L 0.949219 11.625 C 0.859375 11.597656 0.722656 11.566406 0.679688 11.550781 C 0.617188 11.535156 0.601562 11.550781 0.527344 11.761719 L 0.4375 11.730469 L 0.648438 10.992188 L 0.738281 11.019531 C 0.691406 11.246094 0.691406 11.257812 0.753906 11.273438 C 0.828125 11.304688 0.992188 11.347656 1.328125 11.4375 C 1.664062 11.527344 1.828125 11.574219 1.902344 11.589844 C 1.964844 11.601562 1.980469 11.589844 2.054688 11.378906 L 2.144531 11.410156 L 1.933594 12.179688 L 1.84375 12.148438 C 1.890625 11.925781 1.890625 11.910156 1.828125 11.894531 C 1.769531 11.863281 1.605469 11.820312 1.34375 11.746094 C 1.285156 11.730469 1.269531 11.730469 1.253906 11.789062 L 1.089844 12.367188 C 1.078125 12.40625 1.097656 12.4375 1.148438 12.457031 C 1.402344 12.53125 1.574219 12.574219 1.636719 12.589844 C 1.695312 12.605469 1.710938 12.589844 1.785156 12.382812 L 1.875 12.410156 L 1.664062 13.152344 Z M 1.589844 13.089844 " fill-opacity="1" fill-rule="nonzero"/><path fill="#ffffff" d="M 3.039062 9.226562 C 3.054688 9.359375 3.054688 9.496094 3.011719 9.585938 C 2.964844 9.691406 2.875 9.734375 2.710938 9.792969 C 2.757812 9.945312 2.757812 10.09375 2.683594 10.265625 C 2.546875 10.535156 2.269531 10.59375 2.0625 10.488281 C 1.867188 10.398438 1.777344 10.21875 1.761719 9.898438 C 1.523438 9.914062 1.449219 9.914062 1.375 9.882812 C 1.238281 9.824219 1.164062 9.675781 1.269531 9.441406 C 1.359375 9.25 1.507812 9.160156 1.679688 9.25 C 1.84375 9.324219 1.875 9.488281 1.859375 9.660156 C 2.097656 9.644531 2.332031 9.628906 2.554688 9.585938 C 2.507812 9.449219 2.40625 9.332031 2.34375 9.285156 C 2.285156 9.257812 2.242188 9.269531 2.195312 9.359375 L 2.105469 9.316406 L 2.316406 8.84375 L 2.40625 8.890625 C 2.359375 8.996094 2.359375 9.085938 2.464844 9.21875 C 2.507812 9.277344 2.585938 9.398438 2.660156 9.546875 C 2.839844 9.503906 2.898438 9.488281 2.929688 9.398438 C 2.957031 9.339844 2.957031 9.25 2.941406 9.144531 L 3.046875 9.21875 Z M 1.777344 9.691406 C 1.792969 9.570312 1.703125 9.480469 1.613281 9.4375 C 1.539062 9.40625 1.417969 9.390625 1.375 9.496094 C 1.34375 9.554688 1.359375 9.644531 1.464844 9.691406 C 1.539062 9.71875 1.640625 9.734375 1.777344 9.691406 M 2.59375 10.101562 C 2.621094 10.027344 2.636719 9.9375 2.605469 9.832031 C 2.414062 9.875 2.03125 9.90625 1.851562 9.90625 C 1.851562 10.070312 1.898438 10.175781 2.046875 10.234375 C 2.210938 10.308594 2.503906 10.296875 2.59375 10.101562 " fill-opacity="1" fill-rule="nonzero"/><path fill="#ffffff" d="M 3.421875 8.5625 C 3.542969 8.367188 3.542969 8.351562 3.496094 8.308594 C 3.4375 8.261719 3.300781 8.15625 3.011719 7.960938 C 2.742188 7.769531 2.585938 7.664062 2.507812 7.632812 C 2.449219 7.605469 2.433594 7.605469 2.300781 7.785156 L 2.226562 7.722656 L 2.667969 7.089844 L 2.742188 7.132812 C 2.621094 7.328125 2.621094 7.34375 2.667969 7.386719 C 2.710938 7.417969 2.816406 7.492188 2.890625 7.550781 L 3.011719 7.640625 C 3.054688 7.671875 3.070312 7.671875 3.117188 7.625 L 3.445312 7.140625 C 3.472656 7.097656 3.472656 7.082031 3.414062 7.050781 L 3.292969 6.960938 C 3.203125 6.902344 3.101562 6.828125 3.054688 6.8125 C 2.996094 6.78125 2.996094 6.796875 2.847656 6.960938 L 2.769531 6.902344 L 3.210938 6.265625 L 3.289062 6.3125 C 3.167969 6.503906 3.167969 6.519531 3.210938 6.566406 C 3.273438 6.625 3.40625 6.714844 3.699219 6.910156 C 3.980469 7.101562 4.125 7.207031 4.199219 7.238281 C 4.257812 7.269531 4.273438 7.269531 4.410156 7.089844 L 4.511719 7.164062 L 4.058594 7.796875 L 3.980469 7.738281 C 4.101562 7.542969 4.101562 7.53125 4.058594 7.484375 C 4.011719 7.441406 3.863281 7.335938 3.644531 7.183594 C 3.601562 7.140625 3.585938 7.140625 3.554688 7.199219 L 3.226562 7.6875 C 3.199219 7.730469 3.199219 7.746094 3.257812 7.777344 C 3.464844 7.925781 3.617188 8.03125 3.683594 8.058594 C 3.75 8.089844 3.757812 8.074219 3.894531 7.910156 L 3.96875 7.96875 L 3.527344 8.605469 Z M 3.421875 8.5625 " fill-opacity="1" fill-rule="nonzero"/><path fill="#ffffff" d="M 3.390625 6.085938 L 3.90625 5.511719 L 3.980469 5.570312 C 3.847656 5.75 3.832031 5.765625 3.878906 5.808594 C 3.9375 5.871094 4.058594 5.988281 4.484375 6.371094 C 4.617188 6.488281 4.855469 6.640625 5.089844 6.386719 C 5.34375 6.101562 5.238281 5.929688 4.910156 5.617188 C 4.640625 5.375 4.5 5.257812 4.4375 5.203125 C 4.394531 5.175781 4.378906 5.175781 4.199219 5.339844 L 4.125 5.277344 L 4.550781 4.808594 L 4.625 4.867188 C 4.492188 5.046875 4.476562 5.0625 4.519531 5.105469 C 4.566406 5.167969 4.699219 5.285156 5.066406 5.609375 C 5.320312 5.832031 5.539062 6.09375 5.15625 6.511719 C 4.933594 6.765625 4.609375 6.828125 4.3125 6.558594 C 3.898438 6.183594 3.765625 6.070312 3.707031 6.027344 C 3.660156 5.996094 3.644531 5.996094 3.480469 6.144531 L 3.40625 6.070312 Z M 3.390625 6.085938 " fill-opacity="1" fill-rule="nonzero"/><path fill="#ffffff" d="M 5.605469 5.78125 C 5.785156 5.617188 5.785156 5.601562 5.753906 5.554688 C 5.710938 5.496094 5.605469 5.363281 5.378906 5.101562 C 5.15625 4.839844 5.035156 4.710938 4.992188 4.644531 C 4.933594 4.597656 4.917969 4.597656 4.722656 4.75 L 4.664062 4.671875 L 5.117188 4.285156 C 5.117188 4.285156 5.148438 4.316406 5.164062 4.328125 L 6.21875 4.949219 L 5.746094 3.722656 L 6.203125 3.351562 L 6.261719 3.425781 C 6.097656 3.589844 6.082031 3.605469 6.128906 3.664062 C 6.171875 3.722656 6.277344 3.859375 6.5 4.121094 C 6.726562 4.382812 6.84375 4.507812 6.914062 4.578125 C 6.957031 4.621094 6.972656 4.621094 7.167969 4.472656 L 7.226562 4.546875 L 6.636719 5.0625 L 6.578125 4.988281 C 6.742188 4.824219 6.742188 4.808594 6.710938 4.761719 L 5.910156 3.828125 L 6.398438 5.085938 C 6.398438 5.085938 6.425781 5.160156 6.441406 5.1875 L 6.324219 5.292969 C 6.324219 5.292969 6.277344 5.265625 6.246094 5.234375 L 5.074219 4.554688 L 5.753906 5.339844 C 5.800781 5.398438 5.875 5.457031 5.902344 5.488281 C 5.949219 5.535156 5.964844 5.519531 6.128906 5.398438 L 6.1875 5.472656 L 5.703125 5.898438 L 5.613281 5.796875 Z M 5.605469 5.78125 " fill-opacity="1" fill-rule="nonzero"/><path fill="#ffffff" d="M 7.273438 4.375 C 7.40625 4.269531 7.40625 4.210938 7.363281 4.015625 L 7.152344 3.007812 C 7.121094 2.84375 7.105469 2.796875 7.078125 2.707031 L 7.167969 2.648438 C 7.210938 2.691406 7.316406 2.78125 7.375 2.8125 L 8.339844 3.476562 C 8.460938 3.566406 8.488281 3.582031 8.65625 3.476562 L 8.699219 3.550781 L 8.0625 3.964844 L 8.003906 3.890625 C 8.183594 3.769531 8.199219 3.738281 8.152344 3.695312 C 8.140625 3.648438 7.914062 3.5 7.898438 3.484375 L 7.871094 3.484375 C 7.824219 3.515625 7.71875 3.558594 7.539062 3.695312 C 7.421875 3.769531 7.421875 3.785156 7.4375 3.828125 C 7.464844 3.976562 7.496094 4.082031 7.511719 4.113281 C 7.539062 4.171875 7.570312 4.171875 7.765625 4.066406 L 7.808594 4.15625 L 7.308594 4.472656 L 7.265625 4.382812 Z M 7.765625 3.410156 C 7.765625 3.410156 7.78125 3.394531 7.78125 3.378906 C 7.78125 3.367188 7.75 3.367188 7.75 3.351562 L 7.265625 3.007812 L 7.382812 3.613281 C 7.382812 3.613281 7.382812 3.640625 7.398438 3.640625 C 7.398438 3.65625 7.414062 3.640625 7.429688 3.640625 L 7.757812 3.417969 Z M 7.765625 3.410156 " fill-opacity="1" fill-rule="nonzero"/><path fill="#ffffff" d="M 8.730469 3.441406 C 8.910156 3.335938 8.921875 3.320312 8.894531 3.261719 C 8.863281 3.1875 8.789062 3.035156 8.640625 2.714844 C 8.488281 2.414062 8.414062 2.242188 8.371094 2.183594 C 8.339844 2.140625 8.324219 2.140625 8.132812 2.214844 L 8.085938 2.125 L 8.496094 1.929688 C 8.496094 1.929688 8.558594 1.960938 8.601562 1.988281 L 9.671875 2.59375 L 9.523438 2.28125 C 9.371094 1.980469 9.296875 1.808594 9.253906 1.75 C 9.222656 1.707031 9.207031 1.707031 8.984375 1.796875 L 8.9375 1.707031 L 9.5 1.421875 L 9.542969 1.511719 C 9.363281 1.601562 9.351562 1.632812 9.394531 1.734375 C 9.441406 1.839844 9.5 1.960938 9.542969 2.078125 C 9.738281 2.46875 9.902344 2.789062 10 2.9375 L 9.851562 3.015625 C 9.703125 2.894531 9.566406 2.820312 9.378906 2.730469 L 8.550781 2.257812 L 8.746094 2.671875 C 8.894531 2.96875 8.96875 3.140625 9.011719 3.199219 C 9.042969 3.246094 9.058594 3.246094 9.3125 3.140625 L 9.355469 3.230469 L 8.765625 3.515625 L 8.738281 3.441406 Z M 8.730469 3.441406 " fill-opacity="1" fill-rule="nonzero"/><g clip-path="url(#28398576eb)"><path fill="#ffffff" d="M 11.070312 1.945312 C 11.21875 2.167969 11.382812 2.304688 11.613281 2.242188 C 11.855469 2.167969 11.929688 2.003906 11.882812 1.871094 C 11.839844 1.734375 11.71875 1.722656 11.554688 1.707031 L 11.375 1.707031 C 10.949219 1.707031 10.875 1.585938 10.816406 1.421875 C 10.726562 1.152344 10.90625 0.890625 11.226562 0.785156 C 11.390625 0.726562 11.539062 0.710938 11.667969 0.710938 C 11.667969 0.742188 11.683594 0.769531 11.695312 0.800781 C 11.726562 0.90625 11.757812 0.996094 11.800781 1.101562 L 11.695312 1.128906 C 11.578125 0.875 11.429688 0.832031 11.210938 0.890625 C 11.03125 0.949219 10.925781 1.101562 10.972656 1.234375 C 11.003906 1.324219 11.0625 1.382812 11.242188 1.382812 L 11.628906 1.398438 C 11.882812 1.414062 12.003906 1.503906 12.070312 1.699219 C 12.160156 1.980469 11.980469 2.230469 11.628906 2.332031 C 11.480469 2.378906 11.300781 2.363281 11.144531 2.410156 C 11.113281 2.304688 11.039062 2.109375 10.980469 1.96875 L 11.070312 1.9375 Z M 11.070312 1.945312 " fill-opacity="1" fill-rule="nonzero"/></g><g clip-path="url(#398d057155)"><path fill="#ffffff" d="M 12.296875 2.003906 C 12.488281 1.945312 12.503906 1.945312 12.488281 1.886719 C 12.488281 1.808594 12.445312 1.632812 12.371094 1.292969 C 12.296875 0.964844 12.265625 0.777344 12.234375 0.703125 C 12.21875 0.644531 12.207031 0.644531 11.996094 0.660156 L 11.980469 0.570312 L 12.796875 0.40625 C 12.914062 0.375 13.035156 0.34375 13.125 0.316406 C 13.15625 0.421875 13.230469 0.660156 13.246094 0.726562 L 13.15625 0.757812 C 13.035156 0.488281 12.992188 0.472656 12.667969 0.53125 L 12.476562 0.578125 C 12.476562 0.578125 12.429688 0.59375 12.445312 0.636719 L 12.550781 1.136719 C 12.550781 1.136719 12.5625 1.183594 12.625 1.167969 L 12.683594 1.152344 C 12.921875 1.109375 12.921875 1.0625 12.910156 0.898438 L 12.996094 0.882812 C 13.011719 0.957031 13.027344 1.019531 13.042969 1.121094 C 13.058594 1.210938 13.085938 1.300781 13.101562 1.363281 L 13.011719 1.375 C 12.96875 1.226562 12.9375 1.199219 12.757812 1.226562 L 12.609375 1.257812 C 12.609375 1.257812 12.578125 1.273438 12.578125 1.300781 L 12.699219 1.863281 C 12.699219 1.863281 12.714844 1.90625 12.742188 1.894531 L 13.117188 1.816406 C 13.296875 1.773438 13.328125 1.726562 13.34375 1.578125 L 13.355469 1.414062 L 13.460938 1.414062 C 13.460938 1.535156 13.476562 1.742188 13.492188 1.855469 L 12.265625 2.109375 L 12.28125 2.019531 Z M 12.296875 2.003906 " fill-opacity="1" fill-rule="nonzero"/></g><g clip-path="url(#6dd48e8cdd)"><path fill="#ffffff" d="M 13.714844 1.707031 C 13.941406 1.675781 13.953125 1.660156 13.953125 1.601562 C 13.953125 1.527344 13.941406 1.347656 13.910156 1.011719 C 13.878906 0.667969 13.863281 0.496094 13.851562 0.421875 C 13.835938 0.359375 13.820312 0.359375 13.597656 0.359375 L 13.566406 0.253906 L 14.425781 0.164062 C 14.605469 0.152344 14.695312 0.164062 14.785156 0.210938 C 14.875 0.253906 14.933594 0.34375 14.949219 0.480469 C 14.980469 0.792969 14.621094 0.90625 14.621094 0.921875 C 14.621094 0.9375 14.636719 0.949219 14.648438 0.980469 L 15.0625 1.421875 C 15.164062 1.527344 15.195312 1.554688 15.300781 1.542969 L 15.316406 1.632812 L 14.941406 1.675781 L 14.382812 1.027344 C 14.382812 1.027344 14.351562 1.011719 14.246094 1.011719 C 14.195312 1.019531 14.171875 1.035156 14.171875 1.054688 C 14.214844 1.445312 14.214844 1.527344 14.230469 1.570312 C 14.246094 1.632812 14.261719 1.632812 14.484375 1.632812 L 14.5 1.722656 L 13.714844 1.796875 Z M 14.132812 0.875 C 14.132812 0.921875 14.148438 0.921875 14.285156 0.90625 C 14.628906 0.875 14.671875 0.683594 14.65625 0.5625 C 14.644531 0.382812 14.492188 0.277344 14.230469 0.292969 C 14.066406 0.308594 14.066406 0.324219 14.066406 0.367188 L 14.125 0.882812 Z M 14.132812 0.875 " fill-opacity="1" fill-rule="nonzero"/></g><g clip-path="url(#8fec32c5e3)"><path fill="#ffffff" d="M 15.023438 0.105469 L 15.777344 0.0898438 L 15.777344 0.179688 L 15.675781 0.179688 C 15.570312 0.179688 15.554688 0.210938 15.554688 0.253906 C 15.554688 0.300781 15.675781 0.585938 15.792969 0.890625 L 15.957031 1.316406 L 16.121094 0.859375 C 16.210938 0.605469 16.332031 0.300781 16.332031 0.242188 C 16.332031 0.179688 16.300781 0.179688 16.109375 0.179688 L 16.109375 0.0898438 L 16.714844 0.0742188 L 16.714844 0.164062 L 16.652344 0.164062 C 16.550781 0.164062 16.519531 0.210938 16.414062 0.480469 C 16.070312 1.382812 16.039062 1.472656 16.003906 1.675781 L 15.855469 1.675781 C 15.839844 1.527344 15.441406 0.636719 15.324219 0.390625 C 15.234375 0.195312 15.21875 0.195312 15.039062 0.195312 Z M 15.023438 0.105469 " fill-opacity="1" fill-rule="nonzero"/></g><g clip-path="url(#281e3cdd8b)"><path fill="#ffffff" d="M 16.765625 1.570312 C 17.003906 1.570312 17.019531 1.570312 17.035156 1.511719 C 17.050781 1.4375 17.066406 1.257812 17.09375 0.921875 C 17.125 0.578125 17.140625 0.40625 17.140625 0.316406 C 17.140625 0.253906 17.125 0.253906 16.886719 0.210938 L 16.898438 0.121094 L 17.699219 0.179688 L 17.683594 0.269531 C 17.445312 0.269531 17.429688 0.269531 17.429688 0.332031 C 17.417969 0.40625 17.402344 0.585938 17.371094 0.9375 C 17.339844 1.28125 17.328125 1.464844 17.328125 1.527344 C 17.328125 1.585938 17.339844 1.601562 17.582031 1.632812 L 17.582031 1.722656 L 16.78125 1.660156 Z M 16.765625 1.570312 " fill-opacity="1" fill-rule="nonzero"/></g><g clip-path="url(#b0818166de)"><path fill="#ffffff" d="M 19.148438 1.617188 C 18.925781 1.839844 18.710938 1.929688 18.410156 1.886719 C 18.066406 1.824219 17.714844 1.527344 17.804688 0.964844 C 17.863281 0.554688 18.179688 0.195312 18.738281 0.285156 C 18.875 0.316406 19.066406 0.375 19.195312 0.433594 C 19.179688 0.554688 19.179688 0.765625 19.179688 0.859375 L 19.074219 0.859375 C 19.046875 0.59375 18.925781 0.421875 18.6875 0.375 C 18.417969 0.332031 18.171875 0.570312 18.109375 0.996094 C 18.035156 1.453125 18.246094 1.707031 18.5 1.75 C 18.738281 1.78125 18.925781 1.691406 19.089844 1.527344 Z M 19.148438 1.617188 " fill-opacity="1" fill-rule="nonzero"/></g><g clip-path="url(#2417bfde2c)"><path fill="#ffffff" d="M 19.164062 1.886719 C 19.375 1.929688 19.375 1.914062 19.40625 1.871094 C 19.433594 1.796875 19.480469 1.632812 19.570312 1.292969 C 19.660156 0.957031 19.703125 0.792969 19.71875 0.71875 C 19.734375 0.660156 19.71875 0.644531 19.523438 0.585938 L 19.554688 0.496094 L 20.367188 0.71875 C 20.488281 0.75 20.625 0.777344 20.710938 0.777344 C 20.683594 0.882812 20.636719 1.136719 20.636719 1.203125 L 20.546875 1.191406 C 20.5625 0.890625 20.519531 0.859375 20.234375 0.765625 L 20.039062 0.71875 C 20.039062 0.71875 19.996094 0.71875 19.996094 0.75 L 19.859375 1.234375 C 19.859375 1.234375 19.859375 1.28125 19.921875 1.292969 L 19.980469 1.308594 C 20.203125 1.371094 20.234375 1.339844 20.292969 1.191406 L 20.382812 1.21875 C 20.367188 1.292969 20.339844 1.355469 20.308594 1.460938 C 20.277344 1.550781 20.265625 1.636719 20.25 1.699219 L 20.144531 1.667969 C 20.175781 1.503906 20.160156 1.460938 19.996094 1.414062 L 19.84375 1.371094 C 19.84375 1.371094 19.800781 1.371094 19.800781 1.398438 L 19.652344 1.945312 C 19.652344 1.945312 19.652344 1.988281 19.679688 1.988281 L 20.039062 2.09375 C 20.203125 2.140625 20.265625 2.109375 20.355469 1.976562 L 20.429688 1.839844 L 20.519531 1.898438 C 20.457031 2.003906 20.382812 2.199219 20.355469 2.289062 L 19.144531 1.960938 L 19.15625 1.886719 Z M 19.164062 1.886719 " fill-opacity="1" fill-rule="nonzero"/></g><path fill="#ffffff" d="M 20.855469 1.929688 C 20.824219 2.199219 20.871094 2.414062 21.09375 2.503906 C 21.316406 2.59375 21.484375 2.503906 21.535156 2.371094 C 21.59375 2.238281 21.503906 2.148438 21.371094 2.042969 L 21.222656 1.921875 C 20.890625 1.667969 20.90625 1.511719 20.96875 1.347656 C 21.070312 1.078125 21.355469 0.988281 21.675781 1.109375 C 21.839844 1.167969 21.960938 1.242188 22.066406 1.300781 C 22.066406 1.332031 22.035156 1.363281 22.035156 1.390625 C 22.007812 1.496094 21.976562 1.585938 21.929688 1.691406 L 21.828125 1.660156 C 21.886719 1.390625 21.796875 1.25 21.601562 1.175781 C 21.421875 1.101562 21.242188 1.160156 21.191406 1.292969 C 21.160156 1.382812 21.175781 1.460938 21.3125 1.578125 L 21.609375 1.832031 C 21.804688 1.996094 21.847656 2.132812 21.773438 2.347656 C 21.667969 2.632812 21.386719 2.707031 21.035156 2.589844 C 20.882812 2.527344 20.75 2.410156 20.59375 2.347656 C 20.636719 2.242188 20.683594 2.050781 20.726562 1.894531 L 20.847656 1.921875 Z M 20.855469 1.929688 " fill-opacity="1" fill-rule="nonzero"/><path fill="#ffffff" d="M 22.648438 2.238281 C 22.722656 2.265625 22.753906 2.371094 22.722656 2.445312 C 22.679688 2.519531 22.589844 2.550781 22.515625 2.519531 C 22.441406 2.492188 22.410156 2.402344 22.441406 2.328125 C 22.484375 2.238281 22.574219 2.207031 22.648438 2.238281 " fill-opacity="1" fill-rule="nonzero"/><path fill="#ffffff" d="M 23.375 1.855469 L 24.039062 2.242188 L 23.996094 2.320312 C 23.855469 2.25 23.769531 2.234375 23.742188 2.273438 C 23.695312 2.332031 23.605469 2.484375 23.3125 2.96875 C 23.222656 3.117188 23.136719 3.394531 23.433594 3.558594 C 23.761719 3.753906 23.917969 3.621094 24.144531 3.214844 C 24.324219 2.902344 24.414062 2.746094 24.441406 2.671875 C 24.457031 2.609375 24.457031 2.59375 24.265625 2.460938 L 24.308594 2.386719 L 24.871094 2.714844 L 24.824219 2.789062 C 24.683594 2.71875 24.601562 2.703125 24.570312 2.746094 C 24.523438 2.804688 24.4375 2.953125 24.195312 3.378906 C 24.015625 3.679688 23.824219 3.941406 23.335938 3.648438 C 23.039062 3.46875 22.910156 3.179688 23.128906 2.835938 C 23.410156 2.347656 23.484375 2.199219 23.515625 2.125 C 23.546875 2.066406 23.53125 2.066406 23.351562 1.929688 L 23.382812 1.855469 Z M 23.375 1.855469 " fill-opacity="1" fill-rule="nonzero"/><path fill="#ffffff" d="M 24.578125 3.804688 C 24.472656 4.0625 24.472656 4.277344 24.652344 4.425781 C 24.847656 4.5625 25.027344 4.53125 25.125 4.410156 C 25.21875 4.292969 25.152344 4.1875 25.046875 4.054688 L 24.945312 3.902344 C 24.703125 3.558594 24.75 3.417969 24.855469 3.28125 C 25.019531 3.058594 25.339844 3.042969 25.609375 3.238281 C 25.742188 3.34375 25.847656 3.449219 25.921875 3.539062 C 25.910156 3.566406 25.878906 3.597656 25.863281 3.613281 C 25.804688 3.703125 25.742188 3.792969 25.683594 3.882812 L 25.59375 3.820312 C 25.730469 3.582031 25.667969 3.410156 25.503906 3.289062 C 25.355469 3.171875 25.160156 3.1875 25.0625 3.289062 C 25.003906 3.367188 25.003906 3.457031 25.109375 3.589844 L 25.332031 3.917969 C 25.46875 4.128906 25.480469 4.277344 25.347656 4.449219 C 25.167969 4.6875 24.863281 4.6875 24.578125 4.480469 C 24.441406 4.375 24.351562 4.226562 24.21875 4.136719 C 24.277344 4.046875 24.398438 3.867188 24.457031 3.746094 Z M 24.578125 3.804688 " fill-opacity="1" fill-rule="nonzero"/><path fill="#ffffff" d="M 25.242188 4.816406 C 25.378906 4.921875 25.4375 4.90625 25.617188 4.816406 L 26.550781 4.359375 C 26.714844 4.285156 26.746094 4.253906 26.820312 4.210938 L 26.910156 4.285156 C 26.863281 4.34375 26.820312 4.464844 26.789062 4.539062 L 26.402344 5.636719 C 26.34375 5.789062 26.34375 5.800781 26.476562 5.9375 L 26.417969 5.996094 L 25.855469 5.480469 L 25.914062 5.40625 C 26.082031 5.554688 26.109375 5.554688 26.15625 5.511719 C 26.183594 5.480469 26.273438 5.226562 26.289062 5.210938 C 26.289062 5.195312 26.289062 5.183594 26.273438 5.183594 C 26.230469 5.136719 26.15625 5.0625 25.992188 4.914062 C 25.886719 4.824219 25.871094 4.824219 25.824219 4.839844 C 25.691406 4.898438 25.585938 4.957031 25.570312 4.988281 C 25.527344 5.03125 25.542969 5.0625 25.675781 5.226562 L 25.617188 5.300781 L 25.175781 4.890625 L 25.234375 4.800781 Z M 26.320312 5.054688 C 26.320312 5.054688 26.347656 5.070312 26.347656 5.070312 C 26.363281 5.054688 26.363281 5.039062 26.363281 5.023438 L 26.574219 4.464844 L 26.027344 4.734375 C 26.027344 4.734375 25.996094 4.75 25.996094 4.75 C 25.996094 4.75 26.003906 4.757812 26.011719 4.777344 L 26.3125 5.046875 Z M 26.320312 5.054688 " fill-opacity="1" fill-rule="nonzero"/></svg>