<svg xmlns="http://www.w3.org/2000/svg" viewBox="0 0 24 24" width="24" height="24">
  <!-- Active state: Currently on AI Insights page -->
  <!-- Neural network nodes - filled and larger -->
  <circle fill="#4A90E2" cx="6" cy="4" r="1.5"/>
  <circle fill="#4A90E2" cx="12" cy="4" r="1.5"/>
  <circle fill="#4A90E2" cx="18" cy="4" r="1.5"/>
  <circle fill="#4A90E2" cx="4" cy="10" r="1.5"/>
  <circle fill="#4A90E2" cx="9" cy="10" r="1.5"/>
  <circle fill="#4A90E2" cx="15" cy="10" r="1.5"/>
  <circle fill="#4A90E2" cx="20" cy="10" r="1.5"/>
  <circle fill="#4A90E2" cx="8" cy="16" r="1.5"/>
  <circle fill="#4A90E2" cx="16" cy="16" r="1.5"/>
  <!-- Output node - filled -->
  <circle fill="#4A90E2" fill-opacity="0.2" stroke="#4A90E2" stroke-width="2" cx="12" cy="21" r="2"/>
  <circle fill="#4A90E2" cx="12" cy="21" r="1.2"/>
  <!-- Neural pathways - visible -->
  <line stroke="#4A90E2" stroke-width="1" stroke-opacity="0.6" x1="6" y1="4" x2="4" y2="10"/>
  <line stroke="#4A90E2" stroke-width="1" stroke-opacity="0.6" x1="6" y1="4" x2="9" y2="10"/>
  <line stroke="#4A90E2" stroke-width="1" stroke-opacity="0.6" x1="12" y1="4" x2="9" y2="10"/>
  <line stroke="#4A90E2" stroke-width="1" stroke-opacity="0.6" x1="12" y1="4" x2="15" y2="10"/>
  <line stroke="#4A90E2" stroke-width="1" stroke-opacity="0.6" x1="18" y1="4" x2="15" y2="10"/>
  <line stroke="#4A90E2" stroke-width="1" stroke-opacity="0.6" x1="18" y1="4" x2="20" y2="10"/>
  <line stroke="#4A90E2" stroke-width="1" stroke-opacity="0.6" x1="4" y1="10" x2="8" y2="16"/>
  <line stroke="#4A90E2" stroke-width="1" stroke-opacity="0.6" x1="9" y1="10" x2="8" y2="16"/>
  <line stroke="#4A90E2" stroke-width="1" stroke-opacity="0.6" x1="15" y1="10" x2="16" y2="16"/>
  <line stroke="#4A90E2" stroke-width="1" stroke-opacity="0.6" x1="20" y1="10" x2="16" y2="16"/>
  <line stroke="#4A90E2" stroke-width="1.3" x1="8" y1="16" x2="12" y2="19"/>
  <line stroke="#4A90E2" stroke-width="1.3" x1="16" y1="16" x2="12" y2="19"/>
  <!-- Insight spark -->
  <path fill="#4A90E2" d="M 21 3 L 22 2 L 23 3 L 22 4 Z"/>
  <!-- Active indicator -->
  <rect fill="#4A90E2" x="0" y="0" width="3" height="24"/>
</svg>
